STARTFONT 2.1
COMMENT
COMMENT Converted from OpenType font "pooh.ttf" by "otf2bdf 3.0".
COMMENT
FONT -FreeType-Pooh-Medium-R-Normal--66-480-100-100-P-309-ISO10646-1
SIZE 48 100 100
FONTBOUNDINGBOX 92 82 -10 -13
STARTPROPERTIES 19
FOUNDRY "FreeType"
FAMILY_NAME "Pooh"
WEIGHT_NAME "Medium"
SLANT "R"
SETWIDTH_NAME "Normal"
ADD_STYLE_NAME ""
PIXEL_SIZE 66
POINT_SIZE 480
RESOLUTION_X 100
RESOLUTION_Y 100
SPACING "P"
AVERAGE_WIDTH 309
CHARSET_REGISTRY "ISO10646"
CHARSET_ENCODING "1"
FONT_ASCENT 69
FONT_DESCENT 12
COPYRIGHT "Copyright 19901996 International Typeface Corporation.  Confidential."
_OTF_FONTFILE "pooh.ttf"
_OTF_PSNAME "Pooh"
ENDPROPERTIES
CHARS 233
STARTCHAR 0020
ENCODING 32
SWIDTH 315 0
DWIDTH 21 0
BBX 0 0 0 0
BITMAP
ENDCHAR
STARTCHAR 0021
ENCODING 33
SWIDTH 315 0
DWIDTH 21 0
BBX 12 51 5 -1
BITMAP
0F80
1FE0
3FF0
7FF0
7FF0
FFF0
FFE0
FFE0
FFE0
FFE0
FFE0
FFC0
FFC0
FFC0
FFC0
FFC0
FFC0
FFC0
FF80
FF80
FF80
FF80
FF80
FF80
FF80
FF80
FF80
FF80
FF80
FF80
FF80
7F80
7F80
7F80
7F80
3F00
3F00
1E00
0000
0000
1F00
3F80
7FC0
FFE0
FFE0
FFE0
FFE0
FFE0
7FC0
3F80
1F00
ENDCHAR
STARTCHAR 0022
ENCODING 34
SWIDTH 510 0
DWIDTH 34 0
BBX 21 18 6 31
BITMAP
FF07F8
FF8FF8
FF8FF8
FF8FF8
FF8FF8
FF8FF8
FF07F8
FF07F8
FF07F8
FF07F8
FF07F8
FF07F8
FF07F8
FF07F8
FF07F8
FF07F8
FF03F8
FE03F8
ENDCHAR
STARTCHAR 0023
ENCODING 35
SWIDTH 675 0
DWIDTH 45 0
BBX 43 51 1 -1
BITMAP
0000E001C000
0001F003E000
0001F003F000
0003F003F000
0003F007F000
0003F007F000
0007F007F000
0007F007F000
0007F007F000
0007F00FF000
000FE00FF000
000FE00FF000
000FE00FF000
000FE00FE000
000FE01FE000
07FFFFFFFF80
1FFFFFFFFFE0
3FFFFFFFFFE0
3FFFFFFFFFE0
3FFFFFFFFFE0
1FFFFFFFFF80
001FC03FC000
001F803FC000
001F803FC000
003F803FC000
003F807F8000
003F807F8000
003F807F8000
003F007F8000
7FFFFFFFFE00
FFFFFFFFFF00
FFFFFFFFFF80
FFFFFFFFFF80
FFFFFFFFFF80
3FFFFFFFFF00
00FE00FE0000
00FE00FE0000
00FE00FE0000
00FE01FE0000
01FE01FC0000
01FE01FC0000
01FC01FC0000
01FC01FC0000
01FC01FC0000
01FC01F80000
01FC01F80000
01FC01F80000
01F801F80000
01F801F00000
00F001F00000
007000E00000
ENDCHAR
STARTCHAR 0024
ENCODING 36
SWIDTH 600 0
DWIDTH 40 0
BBX 28 64 6 -9
BITMAP
00070000
000F8000
000FC000
000FC000
000FC000
000FC000
000FC000
007FFE00
01FFFF80
07FFFFE0
0FFFFFE0
1FFFFFF0
1FFFFFF0
3FF83FF0
3FE00FF0
7FC003F0
7FC000E0
7FC00000
7FC00000
7FC00000
7FE00000
7FE00000
3FF00000
3FFC0000
1FFE0000
1FFF0000
0FFF8000
07FFC000
03FFE000
01FFF000
00FFF800
007FFC00
001FFE00
000FFF00
0007FF80
0003FFC0
0001FFE0
0000FFE0
00007FE0
00003FF0
00003FF0
00001FF0
00001FF0
38001FF0
7C001FF0
FE001FF0
FF003FE0
FFE07FE0
FFFFFFE0
7FFFFFC0
3FFFFF80
1FFFFF00
0FFFFE00
03FFF800
007FC000
000FC000
000FC000
000FC000
000FC000
000FC000
000FC000
000FC000
000FC000
00078000
ENDCHAR
STARTCHAR 0025
ENCODING 37
SWIDTH 855 0
DWIDTH 57 0
BBX 53 51 2 -1
BITMAP
01FE0000007000
07FF800000F800
1FFFE00001FC00
3FFFF00003FC00
3FFFF80007FC00
7FFFF8000FF800
7FFFFC001FF800
FFC7FC001FF000
FF01FC003FE000
FF01FE007FE000
FE00FE00FFC000
FE00FE00FF8000
FE00FE01FF0000
FF01FE03FF0000
FF01FE03FE0000
7FC7FE07FC0000
7FFFFC0FFC0000
7FFFFC1FF80000
3FFFFC1FF00000
3FFFF83FE00000
1FFFF07FE00000
07FFC07FC00000
01FF00FF800000
000001FF800000
000003FF000000
000003FE000000
000007FC000000
00000FFC000000
00001FF80FF800
00001FF03FFF00
00003FE0FFFF80
00007FE1FFFFC0
0000FFC3FFFFE0
0000FF83FFFFE0
0001FF07FFFFF0
0003FF07FE1FF0
0007FE07F80FF0
0007FC07F807F8
000FF807F003F8
001FF807F003F8
001FF007F003F8
003FE007F807F8
007FC007FC0FF8
00FFC003FE1FF8
00FF8003FFFFF0
01FF0003FFFFF0
01FE0001FFFFE0
03FE0000FFFFE0
03FC00007FFF80
03F800003FFF00
01E0000007F800
ENDCHAR
STARTCHAR 0026
ENCODING 38
SWIDTH 600 0
DWIDTH 40 0
BBX 38 47 1 -2
BITMAP
0003F80000
000FFE0000
001FFF0000
003FFF8000
003FFFC000
007F9FC000
007F0FE000
007F0FE000
007F0FE000
007F0FE000
007F1FE000
003F9FE000
003FBFC000
003FFFC000
001FFF8000
001FFF0000
001FFE0000
007FFC0000
00FFF80000
01FFF80000
03FFFC0000
07FFFC0000
0FFFFE0000
1FF9FE0000
3FF1FF0000
3FC0FF0000
7FC0FF8000
7F807FC000
FF807FC078
FF003FE0FC
FF003FE3FC
FF001FF7FC
FF000FFFFC
FF000FFFF8
FF8007FFF0
FF8007FFE0
7FC003FFC0
7FE003FF80
7FF00FFF80
3FFC3FFFC0
3FFFFFFFE0
1FFFFFFFE0
0FFFFFFFF0
07FFFFCFF0
03FFFF0FF0
00FFFC07E0
001FE003C0
ENDCHAR
STARTCHAR 0027
ENCODING 39
SWIDTH 285 0
DWIDTH 19 0
BBX 9 18 5 31
BITMAP
FF00
FF80
FF80
FF00
FF00
FF00
FF00
FF00
FF00
FF00
FF00
FF00
FF00
FF00
FF00
FF00
FF00
FE00
ENDCHAR
STARTCHAR 0028
ENCODING 40
SWIDTH 345 0
DWIDTH 23 0
BBX 18 62 3 -12
BITMAP
000F80
003FC0
007FC0
00FFC0
00FFC0
01FF80
03FF00
07FE00
07FC00
0FFC00
0FF800
1FF800
1FF000
1FF000
3FF000
3FF000
3FE000
3FE000
7FE000
7FE000
7FE000
7FC000
7FC000
FFC000
FFC000
FFC000
FFC000
FFC000
FFC000
FFC000
FFC000
FFC000
FFC000
FFC000
FFC000
FFC000
FFC000
7FC000
7FC000
7FC000
7FE000
7FE000
7FE000
3FE000
3FE000
3FE000
3FF000
1FF000
1FF000
1FF800
0FF800
0FF800
0FFC00
07FC00
07FE00
03FF00
01FF00
00FF80
00FFC0
003FC0
001FC0
000780
ENDCHAR
STARTCHAR 0029
ENCODING 41
SWIDTH 345 0
DWIDTH 23 0
BBX 18 62 3 -12
BITMAP
780000
FE0000
FF0000
FF8000
7FC000
3FE000
3FF000
1FF800
0FF800
0FFC00
07FC00
07FE00
03FE00
03FE00
01FF00
01FF00
01FF00
00FF00
00FF80
00FF80
00FF80
00FF80
00FF80
00FFC0
007FC0
007FC0
007FC0
007FC0
007FC0
007FC0
007FC0
007FC0
007FC0
007FC0
007FC0
007FC0
007FC0
007FC0
007F80
007F80
007F80
00FF80
00FF80
00FF80
00FF00
00FF00
01FF00
01FF00
01FE00
03FE00
03FE00
07FC00
07FC00
0FF800
1FF800
3FF000
7FE000
FFE000
FFC000
FF8000
FF0000
7C0000
ENDCHAR
STARTCHAR 002A
ENCODING 42
SWIDTH 630 0
DWIDTH 42 0
BBX 38 34 2 16
BITMAP
0000F80000
0001FC0000
0003FE0000
0003FE0000
0003FE0000
0003FE0000
0003FE0000
0003FE0000
0003FE0000
0001FC0000
0001FC0000
3E01FC0000
7FC1FC07F0
FFF8F87FF8
FFFEF9FFFC
FFFFFFFFFC
FFFFFFFFFC
7FFFFFFFFC
1FFFFFFFF8
0003FDFFE0
0007FE0000
001F9F0000
003F9F8000
007F9FE000
00FF0FF000
01FF0FF800
03FE07F800
03FE07FC00
07FC07FC00
07FC03FC00
07F803FC00
03F803F800
01E001F800
000000F000
ENDCHAR
STARTCHAR 002B
ENCODING 43
SWIDTH 585 0
DWIDTH 39 0
BBX 37 38 1 6
BITMAP
0000780000
0000FE0000
0000FE0000
0001FE0000
0001FE0000
0001FE0000
0001FE0000
0001FE0000
0001FE0000
0001FE0000
0001FE0000
0001FE0000
0001FE0000
0001FE0000
0001FE0000
0001FFFFE0
3FFFFFFFF0
7FFFFFFFF8
FFFFFFFFF8
FFFFFFFFF8
FFFFFFFFF0
7FFFFFFFE0
3FFFFF0000
0001FE0000
0001FE0000
0001FE0000
0001FE0000
0001FE0000
0001FE0000
0001FE0000
0001FE0000
0001FE0000
0001FE0000
0001FE0000
0001FE0000
0001FE0000
0000FC0000
0000780000
ENDCHAR
STARTCHAR 002C
ENCODING 44
SWIDTH 240 0
DWIDTH 16 0
BBX 11 21 2 -11
BITMAP
1F00
7F80
7FC0
FFC0
FFE0
FFE0
FFE0
FFE0
7FE0
7FE0
1FC0
1FC0
1FC0
1F80
3F80
3F00
7E00
7E00
FC00
F800
7000
ENDCHAR
STARTCHAR 002D
ENCODING 45
SWIDTH 360 0
DWIDTH 24 0
BBX 20 9 2 16
BITMAP
0FFF80
7FFFE0
7FFFF0
FFFFF0
FFFFF0
FFFFF0
FFFFF0
7FFFE0
1FFF00
ENDCHAR
STARTCHAR 002E
ENCODING 46
SWIDTH 225 0
DWIDTH 15 0
BBX 11 11 2 -1
BITMAP
1E00
3F80
7FC0
7FC0
FFE0
FFE0
FFE0
FFE0
7FC0
3F80
1F00
ENDCHAR
STARTCHAR 002F
ENCODING 47
SWIDTH 525 0
DWIDTH 35 0
BBX 26 51 4 -1
BITMAP
00000780
00000FC0
00001FC0
00003FC0
00003FC0
00003F80
00007F80
00007F80
0000FF00
0000FF00
0001FE00
0001FE00
0001FE00
0003FC00
0003FC00
0007F800
0007F800
000FF000
000FF000
001FF000
001FE000
001FE000
003FC000
003FC000
007FC000
007F8000
00FF8000
00FF0000
01FF0000
01FE0000
01FE0000
03FE0000
03FC0000
07FC0000
07F80000
0FF80000
0FF00000
1FF00000
1FE00000
1FE00000
3FE00000
3FC00000
7FC00000
7F800000
7F800000
FF000000
FF000000
FE000000
FC000000
FC000000
70000000
ENDCHAR
STARTCHAR 0030
ENCODING 48
SWIDTH 630 0
DWIDTH 42 0
BBX 36 51 3 -1
BITMAP
0007FE0000
003FFFC000
00FFFFF000
01FFFFF800
03FFFFFC00
07FFFFFE00
0FFFFFFF00
1FFE0FFF80
1FF803FF80
3FF001FFC0
3FE000FFC0
3FE0007FC0
7FC0007FE0
7FC0003FE0
7F80003FE0
7F80003FE0
FF80001FE0
FF00001FF0
FF00001FF0
FF00001FF0
FF00001FF0
FF00001FF0
FF00001FF0
FF00001FF0
FF00001FF0
FF00001FF0
FF00001FF0
FF00001FF0
FF80001FF0
FF80001FF0
7F80001FF0
7F80001FF0
7F80001FF0
7F80001FE0
7FC0003FE0
7FC0003FE0
3FC0003FE0
3FE0003FE0
3FE0007FC0
1FF0007FC0
1FF000FFC0
0FF801FF80
0FFC03FF80
07FF0FFF00
07FFFFFE00
03FFFFFE00
01FFFFFC00
01FFFFF800
007FFFE000
003FFF8000
0007FC0000
ENDCHAR
STARTCHAR 0031
ENCODING 49
SWIDTH 420 0
DWIDTH 28 0
BBX 20 51 0 -1
BITMAP
0003C0
000FE0
007FF0
01FFF0
0FFFF0
3FFFF0
7FFFF0
FFFFF0
FFFFF0
FFFFF0
FFBFF0
3E3FF0
003FF0
003FF0
003FF0
003FF0
003FF0
003FF0
003FF0
003FF0
003FF0
003FF0
003FF0
003FF0
003FF0
003FF0
003FF0
003FF0
003FF0
003FF0
003FF0
003FF0
003FF0
003FF0
003FF0
003FF0
003FF0
003FF0
003FF0
003FF0
003FF0
003FF0
003FF0
003FF0
003FF0
003FF0
003FF0
003FF0
001FF0
001FE0
000FC0
ENDCHAR
STARTCHAR 0032
ENCODING 50
SWIDTH 540 0
DWIDTH 36 0
BBX 34 51 2 -1
BITMAP
000FF00000
007FFE0000
01FFFF8000
03FFFFC000
07FFFFE000
0FFFFFF000
1FFFFFF000
3FFFFFF800
3FF07FF800
7FC03FFC00
7F801FFC00
FF800FFC00
FF000FFC00
FE000FFC00
FE000FFC00
FC000FFC00
F8001FF800
70001FF800
00003FF800
00003FF000
00007FF000
0000FFE000
0000FFE000
0001FFC000
0003FF8000
0007FF8000
0007FF0000
000FFE0000
001FFC0000
003FF80000
007FF00000
00FFE00000
00FFC00000
01FFC00000
03FF800000
07FF000000
0FFE000000
0FFC000000
1FF8000000
3FF0000000
3FF0000000
7FE0000000
7FC0000000
FFFFFFFF00
FFFFFFFF80
FFFFFFFFC0
FFFFFFFFC0
FFFFFFFFC0
FFFFFFFFC0
7FFFFFFF80
3FFFFFFF00
ENDCHAR
STARTCHAR 0033
ENCODING 51
SWIDTH 510 0
DWIDTH 34 0
BBX 32 52 0 -1
BITMAP
001FF000
00FFFE00
01FFFF80
07FFFFC0
0FFFFFE0
1FFFFFE0
3FFFFFF0
7FF8FFF0
7FE01FF8
7FC00FF8
3F000FF8
1E0007F8
000007F8
000007F8
000007F8
000007F8
000007F8
00000FF0
00000FF0
00001FE0
0000FFE0
00FFFFC0
01FFFF80
03FFFF00
03FFFE00
03FFFF80
03FFFFE0
01FFFFF0
0000FFF8
00001FFC
00000FFE
000007FE
000007FE
000003FF
000003FF
000003FF
000003FF
000003FF
000003FF
000007FF
000007FF
00000FFE
3C000FFE
7F803FFC
FFF0FFFC
FFFFFFF8
FFFFFFF0
7FFFFFE0
3FFFFFC0
1FFFFF80
07FFFE00
007FF000
ENDCHAR
STARTCHAR 0034
ENCODING 52
SWIDTH 570 0
DWIDTH 38 0
BBX 36 52 1 -2
BITMAP
000001F800
000003FC00
000007FC00
000007FC00
00000FFC00
00001FFC00
00003FFC00
00007FFC00
00007FFC00
0000FFFE00
0001FFFE00
0003FFFE00
0003FDFE00
0007FFFE00
000FFBFE00
001FF3FE00
001FE3FE00
003FE3FE00
007FC3FE00
00FF83FC00
00FF83FC00
01FF03FC00
03FF03FC00
03FE03FC00
07FC03FC00
07FC03FC00
0FF803FC00
0FF003FC00
1FF003FC00
3FE003FC00
3FC003FC00
3FFFFFFFC0
7FFFFFFFE0
7FFFFFFFF0
7FFFFFFFF0
FFFFFFFFF0
FFFFFFFFF0
7FFFFFFFE0
7FFFFFFFC0
3FFFFFFE00
000003FE00
000003FC00
000003FC00
000003FC00
000003FC00
000003FC00
000003FC00
000003FC00
000003FC00
000001FC00
000001FC00
000000F800
ENDCHAR
STARTCHAR 0035
ENCODING 53
SWIDTH 510 0
DWIDTH 34 0
BBX 31 50 1 -1
BITMAP
1FFFFFC0
3FFFFFF0
3FFFFFF0
3FFFFFF0
7FFFFFF0
7FFFFFF0
7FFFFFE0
7FC00000
7FC00000
7FC00000
7FC00000
7FC00000
7FC00000
7FC00000
7FC00000
7FC00000
7FFF8000
7FFFF800
7FFFFE00
3FFFFF80
3FFFFFC0
3FFFFFE0
1FFFFFF0
0001FFF8
00003FF8
00001FFC
00000FFC
000007FC
000007FE
000007FE
000003FE
000003FE
000003FE
000003FE
000003FE
000003FE
000003FE
000007FC
000007FC
78000FFC
FE001FFC
FF803FF8
FFE0FFF8
FFFFFFF0
7FFFFFE0
3FFFFFC0
1FFFFF80
07FFFF00
03FFFC00
003FE000
ENDCHAR
STARTCHAR 0036
ENCODING 54
SWIDTH 570 0
DWIDTH 38 0
BBX 33 51 3 -1
BITMAP
0003FE0000
001FFFC000
003FFFF000
00FFFFF800
01FFFFFE00
03FFFFFE00
07FFFFFF00
0FFF07FF00
0FFC01FF00
1FF8007F00
1FF8003E00
3FF0000000
3FF0000000
3FE0000000
7FE0000000
7FE0000000
7FE0000000
7FE1FE0000
FFE7FFC000
FFFFFFF000
FFFFFFF800
FFFFFFFC00
FFFFFFFE00
FFFFFFFE00
FFFF0FFF00
FFFC03FF00
FFF801FF00
FFF001FF80
FFF000FF80
FFE000FF80
FFE0007F80
FFE0007F80
FFE0007F80
7FE0007F80
7FE0007F80
7FE0007F80
7FE0007F80
7FE0007F80
3FF0007F80
3FF000FF80
3FF000FF00
1FF801FF00
1FFC03FF00
0FFF0FFE00
07FFFFFE00
07FFFFFC00
03FFFFF800
01FFFFF000
007FFFE000
003FFF8000
0007FC0000
ENDCHAR
STARTCHAR 0037
ENCODING 55
SWIDTH 495 0
DWIDTH 33 0
BBX 32 52 -1 -2
BITMAP
1FFFFFF8
7FFFFFFC
FFFFFFFE
FFFFFFFF
FFFFFFFF
FFFFFFFF
7FFFFFFF
3FFFFFFF
000001FF
000001FF
000003FE
000003FE
000007FE
000007FC
00000FFC
00000FF8
00001FF8
00001FF0
00003FF0
00003FF0
00007FE0
00007FE0
00007FC0
0000FFC0
0000FFC0
0001FF80
0001FF80
0001FF00
0003FF00
0003FF00
0007FE00
0007FE00
0007FE00
000FFC00
000FFC00
000FFC00
001FF800
001FF800
001FF800
001FF000
003FF000
003FF000
003FF000
003FE000
007FE000
007FE000
007FC000
007FC000
007FC000
007F8000
003F8000
000F0000
ENDCHAR
STARTCHAR 0038
ENCODING 56
SWIDTH 570 0
DWIDTH 38 0
BBX 37 54 2 -2
BITMAP
0007FC0000
003FFF8000
00FFFFE070
03FFFFF1F8
07FFFFFBF8
0FFFFFFFF0
1FFC03FFF0
1FF0007FE0
3FE0003FE0
3FC0003FC0
3FC0007FC0
3FC0007F80
3FC000FF00
3FE001FF00
3FE001FE00
1FF003FC00
1FF807FC00
0FFC0FF800
0FFE3FF000
07FF7FE000
03FFFFC000
01FFFFC000
00FFFF8000
007FFF8000
00FFFFC000
01FFFFE000
01FFFFF000
03FF7FF000
07FE3FF800
0FFC1FFC00
0FFC0FFC00
1FF807FE00
3FF007FE00
3FE003FF00
7FE001FF00
7FC001FF80
7FC000FF80
FFC000FF80
FF80007F80
FF80007F80
FF80007F80
FF80007F80
FF8000FF80
FFC000FF80
7FC001FF00
7FE003FF00
3FF007FE00
3FFC1FFE00
1FFFFFFC00
0FFFFFF800
07FFFFF000
03FFFFE000
00FFFF8000
000FFE0000
ENDCHAR
STARTCHAR 0039
ENCODING 57
SWIDTH 570 0
DWIDTH 38 0
BBX 34 52 2 -1
BITMAP
000FF80000
007FFF0000
01FFFFC000
07FFFFF000
0FFFFFF800
1FFFFFFC00
1FFFFFFC00
3FFC1FFE00
3FE007FF00
7FC003FF00
7F8001FF00
7F8001FF80
FF8001FF80
FF0000FF80
FF0000FF80
FF0000FF80
FF0000FFC0
FF0000FFC0
FF0000FFC0
FF0000FFC0
FF8001FFC0
FF8001FFC0
7F8003FFC0
7FC003FFC0
7FE007FFC0
3FF00FFFC0
3FF83FFFC0
1FFFFFFFC0
1FFFFFFFC0
0FFFFFFFC0
07FFFFFFC0
03FFFDFFC0
00FFF9FF80
001FC1FF80
000001FF80
000001FF80
000001FF80
000001FF00
000003FF00
000003FF00
1C0003FE00
3F0007FE00
3F800FFE00
3FC01FFC00
3FF07FFC00
1FFFFFF800
1FFFFFF000
0FFFFFE000
07FFFFC000
01FFFF8000
007FFE0000
000FF00000
ENDCHAR
STARTCHAR 003A
ENCODING 58
SWIDTH 225 0
DWIDTH 15 0
BBX 11 41 2 -1
BITMAP
1E00
3F80
7FC0
7FC0
FFE0
FFE0
FFE0
FFE0
7FC0
3F80
1F00
0000
0000
0000
0000
0000
0000
0000
0000
0000
0000
0000
0000
0000
0000
0000
0000
0000
0000
0000
1E00
3F80
7FC0
7FC0
FFE0
FFE0
FFE0
FFE0
7FC0
3F80
1F00
ENDCHAR
STARTCHAR 003B
ENCODING 59
SWIDTH 225 0
DWIDTH 15 0
BBX 11 52 2 -11
BITMAP
1E00
3F80
7FC0
7FC0
FFE0
FFE0
FFE0
FFE0
7FC0
3F80
1F00
0000
0000
0000
0000
0000
0000
0000
0000
0000
0000
0000
0000
0000
0000
0000
0000
0000
0000
0000
0000
1F00
7F80
7FC0
FFC0
FFE0
FFE0
FFE0
FFE0
7FE0
7FE0
1FC0
1FC0
1FC0
3F80
3F80
3F00
7E00
7E00
FC00
F800
7000
ENDCHAR
STARTCHAR 003C
ENCODING 60
SWIDTH 600 0
DWIDTH 40 0
BBX 32 36 3 7
BITMAP
0000003C
000000FE
000007FF
00000FFF
00003FFF
0000FFFE
0001FFFC
0007FFF8
001FFFF0
007FFFC0
00FFFF00
03FFFC00
0FFFF000
1FFFC000
7FFF0000
FFFC0000
FFF00000
FFF00000
FFFC0000
7FFF0000
7FFF8000
1FFFE000
0FFFF000
03FFFC00
00FFFF00
007FFF80
001FFFE0
000FFFF0
0003FFF8
0000FFFC
00007FFE
00001FFF
00000FFF
000003FF
000000FE
0000003C
ENDCHAR
STARTCHAR 003D
ENCODING 61
SWIDTH 585 0
DWIDTH 39 0
BBX 37 25 1 12
BITMAP
03FFFFFFE0
7FFFFFFFF0
FFFFFFFFF8
FFFFFFFFF8
FFFFFFFFF8
FFFFFFFFF8
7FFFFFFFF0
3FFFFFFFC0
0000000000
0000000000
0000000000
0000000000
0000000000
0000000000
0000000000
0000000000
0000000000
03FFFFFFE0
7FFFFFFFF0
FFFFFFFFF8
FFFFFFFFF8
FFFFFFFFF8
FFFFFFFFF8
7FFFFFFFF0
3FFFFFFFC0
ENDCHAR
STARTCHAR 003E
ENCODING 62
SWIDTH 600 0
DWIDTH 40 0
BBX 32 36 5 7
BITMAP
3C000000
7F000000
FFC00000
FFF00000
FFFC0000
7FFF0000
3FFF8000
1FFFE000
07FFF800
03FFFE00
00FFFF00
003FFFC0
000FFFF0
0003FFFC
0000FFFE
00003FFF
00000FFF
00000FFF
00003FFF
0000FFFE
0001FFFC
0007FFF8
000FFFE0
003FFF80
007FFF00
01FFFC00
03FFF800
0FFFE000
1FFFC000
3FFF0000
7FFE0000
FFF80000
FFF00000
FFC00000
7F800000
3C000000
ENDCHAR
STARTCHAR 003F
ENCODING 63
SWIDTH 480 0
DWIDTH 32 0
BBX 30 51 0 -1
BITMAP
003FF000
01FFFE00
07FFFF80
0FFFFFC0
1FFFFFE0
1FFFFFF0
3FFFFFF8
7FF07FF8
7FC01FF8
7F800FFC
7F8007FC
FF0007FC
7F0007FC
7E0007FC
3C0007FC
00000FFC
00000FFC
00001FF8
00003FF8
0000FFF0
0001FFF0
0007FFE0
0007FFC0
000FFF80
000FFE00
000FF800
000FF000
000FF000
000FF000
000FF000
000FF000
000FF000
000FF000
000FF000
0007F000
0007F000
0003E000
0001C000
00000000
00000000
0003E000
0007F000
000FF800
001FFC00
001FFC00
001FFC00
001FFC00
001FFC00
000FF800
0007F000
0003E000
ENDCHAR
STARTCHAR 0040
ENCODING 64
SWIDTH 810 0
DWIDTH 54 0
BBX 48 51 3 -1
BITMAP
00001FFC0000
0001FFFFE000
0007FFFFF800
001FFFFFFE00
007FFFFFFF00
00FFFFFFFFC0
01FFFFFFFFE0
03FFF807FFF0
07FF80007FF0
0FFE00001FF8
0FFC00000FFC
1FF01F9F07FC
3FE07FDF83FE
3FC0FFFF81FE
3FC1FFFF81FE
7F81FFFF80FE
7F83FC7F80FF
7F03F83F807F
FF07F03F807F
FF07F03F807F
FE07F03F807F
FE0FE03F807F
FE0FE03F807F
FE0FE03F807F
FE0FE03F807F
FE0FE03F807F
FE0FE03F807F
FE0FE03F807E
FE0FE03F80FE
7F0FE03FC0FE
7F07F07FC0FC
7F07F07FC1FC
7F07F8FFE3FC
3F83FFFFFFF8
3F83FFFFFFF8
1FC1FFEFFFF0
1FE0FFE7FFE0
0FE07F83FFC0
0FF01F01FF00
07F800001800
07FE00000078
03FF000003FC
01FFE0000FFC
00FFFE01FFFC
007FFFFFFFFC
003FFFFFFFF8
001FFFFFFFF0
0007FFFFFFC0
0001FFFFFF00
00007FFFF800
00000FFF0000
ENDCHAR
STARTCHAR 0041
ENCODING 65
SWIDTH 540 0
DWIDTH 36 0
BBX 35 51 2 -1
BITMAP
003FE00000
007FF00000
007FF80000
00FFF80000
00FFF80000
00FFFC0000
00FFFC0000
00FFFC0000
01FFFE0000
01FDFE0000
01F9FE0000
01F9FE0000
01F9FF0000
03F8FF0000
03F8FF0000
03F8FF0000
03F0FF8000
03F07F8000
03F07F8000
07F07F8000
07F07FC000
07F03FC000
07F03FC000
07F03FC000
07F03FE000
3FF01FE000
7FFC1FE000
7FFFFFF000
7FFFFFF000
1FFFFFF000
0FFFFFF800
0FFFFFF800
0FF07FF800
1FE00FFC00
1FE00FFC00
1FE007FC00
1FE007FE00
3FE007FE00
3FE007FF00
3FE003FF00
3FC003FF00
3FC003FF80
7FC003FF80
7FC003FF80
7FC001FFC0
7FC001FFC0
FF8001FFC0
FF8001FFE0
FF8000FFE0
FF8000FFC0
FF00003F00
ENDCHAR
STARTCHAR 0042
ENCODING 66
SWIDTH 585 0
DWIDTH 39 0
BBX 34 51 3 -1
BITMAP
07FFE00000
1FFFF80000
3FFFFE0000
3FFFFF8000
3FFFFFC000
3FFFFFE000
3FC07FF000
3FC01FF800
3FC007FC00
3FC003FC00
3FC003FE00
3FC001FE00
3FC001FE00
3FC001FE00
3FC003FE00
3FC003FE00
3FC003FE00
3FC007FE00
3FC007FC00
3FC00FFC00
3FC03FF800
3FFFFFF000
3FFFFFE000
3FFFFF8000
3FFFFE0000
3FFFFF0000
3FFFFFC000
3FC3FFE000
3FC07FF800
3FC01FFC00
3FC00FFC00
3FC007FE00
3FC003FF00
3FC003FF80
3FC001FF80
3FC000FF80
3FC000FFC0
3FC000FFC0
3FC000FFC0
3FC000FFC0
7FC001FFC0
7FC001FFC0
7FC003FF80
7FC00FFF80
FFC03FFF00
FFFFFFFE00
FFFFFFFC00
FFFFFFF000
FFFFFFE000
7FFFFF8000
1FFFFF0000
ENDCHAR
STARTCHAR 0043
ENCODING 67
SWIDTH 555 0
DWIDTH 37 0
BBX 35 51 1 -1
BITMAP
0000FE0000
0007FFC000
001FFFF000
003FFFF800
00FFFFFE00
01FFFFFF00
03FFFFFF80
07FFFFFF80
07FFFFFF80
0FFF83FF80
1FFE003F00
1FFC000E00
3FF8000000
3FF8000000
3FF0000000
7FF0000000
7FF0000000
7FE0000000
7FE0000000
7FE0000000
FFC0000000
FFC0000000
FFC0000000
FFC0000000
FFC0000000
FFC0000000
FFC0000000
FFC0000000
FFE0000000
FFE0000000
FFE0000000
7FE0000000
7FE0000000
7FE0000000
7FF0000000
7FF0000000
3FF0000000
3FF8000000
3FFC000000
3FFE0001C0
1FFF0007E0
1FFF800FE0
0FFFC03FE0
07FFF0FFE0
03FFFFFFC0
01FFFFFFC0
00FFFFFF80
007FFFFF00
003FFFFC00
000FFFF000
0001FF8000
ENDCHAR
STARTCHAR 0044
ENCODING 68
SWIDTH 555 0
DWIDTH 37 0
BBX 32 50 3 -1
BITMAP
1FF00000
7FFE0000
FFFFC000
FFFFF000
FFFFFC00
FFFFFF00
FFFFFF80
FF87FFC0
7F81FFE0
7F807FE0
7F803FF0
7F801FF0
7F800FF0
7F8007F8
7F8003F8
7F8003F8
7FC003FC
7FC003FC
3FC001FC
3FC001FE
3FC001FE
3FC001FE
3FC001FE
3FC001FE
3FC001FF
3FC001FF
3FC001FF
3FC001FF
3FC001FF
3FC001FF
3FC003FF
3FC003FF
3FC003FF
3FC003FF
3FC007FE
3FC007FE
3FC00FFE
3FC00FFC
3FC00FFC
3FC01FF8
3FC01FF8
3FC03FF0
3FF0FFE0
3FFFFFC0
3FFFFF80
3FFFFF00
3FFFFC00
3FFFF800
3FFFE000
1FFF0000
ENDCHAR
STARTCHAR 0045
ENCODING 69
SWIDTH 540 0
DWIDTH 36 0
BBX 31 50 3 -1
BITMAP
30000000
7FFFFFF8
FFFFFFFC
FFFFFFFE
FFFFFFFE
FFFFFFFE
FFFFFFFE
7FFFFFFC
7FC00000
7FC00000
7FC00000
7FC00000
7FC00000
7FC00000
7FC00000
7FC00000
7FC00000
7FC00000
7FC00000
7FE00000
7FFFFF00
7FFFFF80
FFFFFF80
FFFFFF80
FFFFFF80
FFFFFF00
FFFFFC00
7FC00000
7FC00000
7FC00000
7F800000
7F800000
7F800000
7F800000
7F800000
7F800000
7F800000
7F800000
7FC00000
7FC00000
7FC00000
7FC00000
7FC003FC
7FFFFFFE
7FFFFFFE
7FFFFFFE
7FFFFFFE
7FFFFFFE
7FFFFFFC
1FFFFFF8
ENDCHAR
STARTCHAR 0046
ENCODING 70
SWIDTH 525 0
DWIDTH 35 0
BBX 30 50 4 -1
BITMAP
FFFFFFF0
FFFFFFF8
FFFFFFFC
FFFFFFFC
FFFFFFFC
FFFFFFFC
FFFFFFFC
FF0007F0
FF000000
FF000000
FF000000
FF000000
FF000000
FF000000
FF000000
FF000000
FF000000
FF800000
FF800000
FFF00F00
FFFFFF00
FFFFFF80
FFFFFF80
FFFFFF80
FFFFFF80
FFFFFF80
FFFFFF00
FF800000
FF800000
FF800000
FF800000
FF800000
FF800000
FF800000
FF800000
FF800000
FF800000
FF800000
FF800000
FF800000
FF800000
FF800000
FF800000
FF800000
FF800000
FFC00000
FFC00000
FFC00000
7F800000
3E000000
ENDCHAR
STARTCHAR 0047
ENCODING 71
SWIDTH 675 0
DWIDTH 45 0
BBX 42 51 2 -1
BITMAP
0000FFC00000
0007FFFC0000
001FFFFE0000
007FFFFF8000
00FFFFFFC000
01FFFFFFE000
03FFFFFFF000
07FFFFFFF800
0FFFC03FFC00
1FFF000FFC00
1FFE0007FE00
3FF80003FE00
3FF80001FE00
3FF00000FE00
7FF000007E00
7FE000003C00
7FE000000000
7FE000000000
FFE000000000
FFC000000000
FFC000000000
FFC000000000
FFC000000000
FFC007800000
FFC00FFFFF80
FFC01FFFFFC0
FFC01FFFFFC0
FFC01FFFFFC0
FFC01FFFFFC0
FFC00FFFFFC0
FFC007FFFF80
FFC0000FF000
FFC0000FF000
7FE0000FF000
7FE0000FF000
7FE0000FF000
7FF0000FF000
3FF8000FF000
3FF8001FF000
1FFC001FF000
1FFE001FE000
0FFF803FE000
0FFFE07FE000
07FFFFFFC000
03FFFFFFC000
01FFFFFF8000
00FFFFFF8000
007FFFFF0000
003FFFFC0000
000FFFF00000
0001FF800000
ENDCHAR
STARTCHAR 0048
ENCODING 72
SWIDTH 600 0
DWIDTH 40 0
BBX 32 54 4 -2
BITMAP
00000038
000000FC
3E0000FE
FF0001FE
FF8001FE
FF8001FE
FF8001FE
FF8001FE
FF8001FE
FF8001FE
FF8001FE
FF8001FE
FF8001FE
FF8001FE
FF8001FE
FF8001FE
FF8001FE
FF8001FE
FF8001FE
FF8001FE
FF8001FE
FF8001FE
FF8001FE
FF8001FE
FF8007FE
FFFFFFFE
FFFFFFFE
FFFFFFFE
FFFFFFFE
FFFFFFFE
FFC003FE
FFC003FE
FFC003FE
FFC003FE
FFC003FE
FFC003FE
FFC003FE
FFC003FE
FFC003FE
FFC003FE
FFC003FE
FFC003FE
FFC003FF
FFC003FF
FFC003FF
FFC003FF
FFC003FF
FFC003FF
FFC003FF
FFC003FF
FFC003FF
FF8001FF
7E0001FF
0000007E
ENDCHAR
STARTCHAR 0049
ENCODING 73
SWIDTH 285 0
DWIDTH 19 0
BBX 10 52 5 -2
BITMAP
3C00
7F00
7F80
7F80
FF80
FF80
FF80
FF80
FF80
FF80
FF80
FF80
FF80
FF80
FF80
FF80
FF80
FF80
FF80
FF80
FF80
FF80
FF80
FF80
FF80
FF80
FF80
FF80
FF80
FF80
FF80
FF80
FF80
FF80
FF80
FF80
FF80
FF80
FF80
FF80
FF80
FF80
FF80
FF80
FF80
FF80
FFC0
FFC0
FFC0
FFC0
7F80
1F80
ENDCHAR
STARTCHAR 004A
ENCODING 74
SWIDTH 480 0
DWIDTH 32 0
BBX 28 51 1 -1
BITMAP
000003E0
00000FE0
00001FF0
00003FF0
00003FF0
00003FF0
00003FF0
00003FF0
00003FF0
00003FF0
00003FF0
00003FF0
00003FF0
00003FE0
00003FE0
00003FE0
00003FE0
00003FE0
00003FE0
00003FE0
00003FE0
00003FE0
00003FE0
00003FE0
00003FE0
00003FE0
00003FE0
00003FE0
00003FE0
00003FE0
00003FE0
00003FE0
00003FE0
00003FE0
00003FE0
38003FE0
7C003FE0
7E003FE0
FE003FE0
FF007FE0
FF807FC0
FFC07FC0
FFE1FFC0
7FFFFFC0
7FFFFF80
3FFFFF80
1FFFFF00
0FFFFE00
03FFFC00
01FFF800
003FC000
ENDCHAR
STARTCHAR 004B
ENCODING 75
SWIDTH 555 0
DWIDTH 37 0
BBX 32 52 5 -2
BITMAP
3E000000
7F0000F0
7F0003FC
FF8007FC
FF800FFC
FF801FFC
FF803FF8
FF807FF8
FF80FFF0
FF81FFE0
FF83FFC0
FF83FF80
FF87FF00
FF8FFE00
FF9FF800
FFBFF000
FFFFE000
FFFFC000
FFFF8000
FFFE0000
FFFC0000
FFF80000
FFF00000
FFE00000
FFF00000
FFF80000
FFFC0000
FFFE0000
FFFF0000
FFFF8000
FFBFC000
FF9FE000
FF9FF000
FF8FF800
FF87FC00
FF83FE00
FF83FF00
FF81FF80
FF80FFC0
FF80FFE0
FF807FF0
FF803FF0
FF803FF8
FF801FFC
FF800FFC
FF800FFE
FF8007FE
FF8003FE
FF8003FF
7F8001FE
7F0000F8
1E000000
ENDCHAR
STARTCHAR 004C
ENCODING 76
SWIDTH 420 0
DWIDTH 28 0
BBX 22 52 4 -1
BITMAP
3C0000
7F0000
FF8000
FF8000
FF8000
FF8000
FF8000
FF8000
FF8000
FF8000
FF8000
FF8000
FF8000
FF8000
FF8000
FF8000
FF8000
FF8000
FF8000
FF8000
FF8000
FF8000
FF8000
FF8000
FF8000
FF8000
FF8000
FF8000
FF8000
FF8000
FF8000
FF8000
FF8000
FF8000
FF8000
FF8000
FF8000
FF8000
FF8000
FF8000
FF8000
FF8000
FF8000
FF8000
FFFFF0
FFFFF8
FFFFF8
FFFFFC
FFFFFC
FFFFFC
FFFFF8
0007F0
ENDCHAR
STARTCHAR 004D
ENCODING 77
SWIDTH 765 0
DWIDTH 51 0
BBX 45 53 4 -3
BITMAP
3C0000007C00
FE000001FE00
FF000001FE00
FF800003FE00
FFC00003FF00
FFC00003FF00
FFE00007FF00
FFE00007FF00
FFF00007FF00
FFF0000FFF00
FFF0000FFF80
FFF8000FFF80
FFF8001FFF80
FFFC001FFF80
FFFC001FFF80
FFFE003FFF80
FFFE003FFFC0
FF7E003FFFC0
FF7F007FBFC0
FF7F007FBFC0
FF3F80FF3FC0
FF3F80FF3FC0
FF3FC0FE3FC0
FF1FC1FE3FC0
FF1FE1FE3FE0
FF1FE3FC3FE0
FF0FE3FC3FE0
FF0FF7F83FE0
FF0FF7F83FE0
FF07FFF03FE0
FF07FFE03FE0
FF03FFE03FE0
FF03FFC03FE0
FF01FFC03FE0
FF01FF803FF0
FF00FF001FF0
FF007E001FF0
FF003C001FF0
FF0000001FF0
FF0000001FF0
FF0000001FF0
FF0000001FF0
FF0000001FF0
FF0000001FF8
FF0000000FF8
FF0000000FF8
FF0000000FF8
FF0000000FF8
FE0000000FF8
FE00000007F8
7E00000007F0
3C00000003E0
000000000100
ENDCHAR
STARTCHAR 004E
ENCODING 78
SWIDTH 630 0
DWIDTH 42 0
BBX 37 53 2 -1
BITMAP
0380000000
3FC00007E0
7FC0001FF0
FFE0001FF8
FFE0001FF8
FFE0001FF8
7FF0001FF8
7FF0001FF8
3FF0001FF0
3FF8001FF0
3FF8001FF0
3FFC001FF0
3FFC001FF0
3FFE001FF0
3FFE001FF0
3FFF001FF0
3FFF001FF0
3FFF801FF0
3FFF801FF0
3FFFC01FF0
3FBFC01FF0
3FBFE01FF0
3F9FE01FF0
3F9FF01FF0
3FCFF01FF0
3FCFF81FF0
3FCFF81FF0
3FC7FC1FF0
3FC7FC1FF0
3FC3FE1FF0
3FC3FE1FF0
3FC1FF1FF0
3FC1FF1FF0
3FC0FF9FF0
3FC0FF9FF0
3FC07FDFF0
3FC07FDFF0
3FC03FDFF0
3FC03FFFF0
7FC01FFFF0
7FC01FFFF0
7FC00FFFF0
7FC00FFFF0
7FC007FFF0
7FC003FFF0
7FC003FFF0
7FC001FFF0
7FC000FFF0
7F80007FF0
7F80003FF0
7F80003FE0
3F00000FE0
1E000007C0
ENDCHAR
STARTCHAR 004F
ENCODING 79
SWIDTH 645 0
DWIDTH 43 0
BBX 39 51 2 -1
BITMAP
0003FE0000
000FFFE000
003FFFF800
007FFFFE00
00FFFFFF00
01FFFFFF80
03FFFFFFC0
07FF83FFE0
0FFC00FFE0
1FF8003FF0
1FF0003FF0
3FF0001FF8
3FE0001FF8
3FE0000FF8
7FC0000FF8
7FC0000FFC
7F80000FFC
7F800007FC
7F800007FC
FF800007FC
FF000007FE
FF000007FE
FF000003FE
FF000003FE
FF000003FE
FF000003FE
FF000003FE
FF000003FE
FF800003FE
FF800003FE
FF800003FE
7F800003FE
7FC00003FE
7FC00003FE
7FC00003FE
3FE00007FC
3FE00007FC
3FF00007FC
1FF80007F8
1FF8000FF8
0FFC001FF0
0FFE001FF0
07FF803FE0
03FFE0FFC0
03FFFFFFC0
00FFFFFF80
007FFFFF00
003FFFFE00
000FFFFC00
0001FFF000
00003FC000
ENDCHAR
STARTCHAR 0050
ENCODING 80
SWIDTH 555 0
DWIDTH 37 0
BBX 31 51 4 -1
BITMAP
3FFFC000
FFFFFC00
FFFFFF00
FFFFFF80
FFFFFFC0
FFFFFFF0
FF00FFF8
FF001FFC
FF0007FC
FF0003FC
FF0003FE
FF0001FE
FF0001FE
FF0001FE
FF0001FE
FF0001FE
FF0001FE
FF0003FE
FF0007FE
FF000FFE
FFC03FFC
FFFFFFFC
FFFFFFF8
FFFFFFF0
FFFFFFC0
FFFFFF80
FFDFF800
FFC00000
FFC00000
FFC00000
FFC00000
FF800000
FF800000
FF800000
FF800000
FF800000
FF800000
FF800000
FF800000
FF800000
FF800000
FF800000
FF800000
FF800000
FF800000
FF800000
FF800000
FF800000
FF800000
7F000000
1E000000
ENDCHAR
STARTCHAR 0051
ENCODING 81
SWIDTH 645 0
DWIDTH 43 0
BBX 40 57 2 -7
BITMAP
0001FE0000
000FFFE000
003FFFFC00
007FFFFF00
00FFFFFF80
01FFFFFFC0
03FFFFFFE0
07FF81FFE0
0FFE007FF0
1FF8003FF0
1FF8001FF0
3FF0000FF8
3FE0000FF8
3FE0000FFC
7FC00007FC
7FC00007FC
7F800007FC
7F800003FC
FF800003FE
FF800003FE
FF000003FE
FF000003FE
FF000003FE
FF000003FE
FF000001FE
FF000001FE
FF000001FE
FF000001FE
FF800001FE
FF800001FE
7F800001FE
7F800001FE
7FC00001FE
7FC00001FE
7FC00003FE
3FE00003FC
3FE00303FC
1FF007C3FC
1FF80FE3FC
1FFC0FF7F8
0FFE07FFF8
07FF03FFF0
07FFC1FFF0
03FFF9FFE0
01FFFFFFC0
00FFFFFFC0
007FFFFFC0
001FFFFFE0
0007FFFFF0
0001FFF7F8
00003FC3FC
00000001FE
00000000FF
000000003F
000000001E
000000000E
0000000006
ENDCHAR
STARTCHAR 0052
ENCODING 82
SWIDTH 555 0
DWIDTH 37 0
BBX 32 51 4 -1
BITMAP
1FFFE000
FFFFFC00
FFFFFF00
FFFFFFC0
FFFFFFE0
FFFFFFF0
FF01FFF8
FF003FF8
FF000FFC
FF0007FC
FF0003FE
FF0003FE
FF0001FE
FF0001FE
FF0001FE
FF0001FE
FF0003FE
FF0003FC
FF0007FC
FF000FF8
FF807FF8
FFFFFFF0
FFFFFFE0
FFFFFFC0
FFFFFF80
FFFFFC00
FFFFE000
FFDFF000
FFDFF800
FF8FF800
FF8FFC00
FF87FC00
FF87FE00
FF83FF00
FF83FF00
FF81FF80
FF80FFC0
FF80FFC0
FF807FE0
FFC07FE0
FFC03FF0
FFC03FF8
FFC01FF8
FFC01FFC
FFC00FFC
FFC007FE
FFC007FE
FFC003FF
FF8003FF
7F0001FF
3E00007E
ENDCHAR
STARTCHAR 0053
ENCODING 83
SWIDTH 450 0
DWIDTH 30 0
BBX 28 51 1 -1
BITMAP
001FF000
00FFFE00
01FFFF00
07FFFF80
0FFFFFC0
1FFFFFE0
1FFFFFE0
3FF83FF0
3FE00FF0
7FE003E0
7FC001E0
7FC00000
7FC00000
7FC00000
7FE00000
7FE00000
7FF00000
3FF80000
3FFC0000
1FFE0000
1FFF0000
0FFFC000
07FFE000
03FFF000
01FFF800
00FFFC00
007FFE00
003FFF00
000FFF80
0007FF80
0003FFC0
0001FFC0
0000FFE0
00007FE0
00003FE0
00003FE0
00001FE0
00001FE0
00001FE0
70001FE0
FC001FE0
FE003FE0
FF807FC0
FFE0FFC0
FFFFFFC0
7FFFFF80
3FFFFF00
1FFFFE00
07FFFC00
01FFF000
003FC000
ENDCHAR
STARTCHAR 0054
ENCODING 84
SWIDTH 510 0
DWIDTH 34 0
BBX 34 51 0 -1
BITMAP
01FFFFFF80
3FFFFFFFC0
7FFFFFFFC0
FFFFFFFFC0
FFFFFFFFC0
FFFFFFFE00
FFFFFC0000
7FFFFC0000
3003FC0000
0003FC0000
0003FC0000
0003FC0000
0003FC0000
0003FC0000
0003FC0000
0003FC0000
0003FC0000
0003FC0000
0003FC0000
0003FC0000
0003FC0000
0003FC0000
0003FC0000
0003FC0000
0003FC0000
0003FC0000
0003FC0000
0003FC0000
0003FC0000
0003FC0000
0003FC0000
0003FC0000
0003FC0000
0003FC0000
0003FC0000
0003FC0000
0003FC0000
0003FC0000
0003FC0000
0003FC0000
0003FC0000
0003FC0000
0003FC0000
0003FC0000
0003FC0000
0003FC0000
0003FC0000
0003FC0000
0001FC0000
0001F80000
0000F00000
ENDCHAR
STARTCHAR 0055
ENCODING 85
SWIDTH 600 0
DWIDTH 40 0
BBX 33 53 3 -2
BITMAP
000001F000
3F0003FE00
7F8007FE00
FF8007FF00
FF8007FF00
FF8007FF00
FF8003FF00
FF8003FF00
FF8003FF00
7F8003FF00
7F8003FF00
7F8003FF00
7F8003FF00
7F8003FF00
7F8003FF00
7F8003FF00
7F8003FF00
7F8001FF00
7F8001FF00
7F8001FF00
7F8001FF00
7F8001FF00
7F8001FF00
7F8001FF00
7F8001FF00
7F8001FF00
7F8001FF00
7F8001FF00
7F8001FF00
7F8001FF00
7F8001FF00
7F8001FF00
7F8001FF00
7F8001FF00
7F8001FF00
7F8003FF00
7F8003FF00
7F8003FF00
7F8003FF00
7F8003FF00
7F8007FF00
7FC007FF00
7FC00FFF00
3FE00FFF00
3FE01FFF00
3FF87FFF00
1FFFFFFF00
0FFFFFFF00
07FFFFFF80
03FFFFFF80
00FFFCFF80
001FF07F00
0000001E00
ENDCHAR
STARTCHAR 0056
ENCODING 86
SWIDTH 540 0
DWIDTH 36 0
BBX 36 51 0 -1
BITMAP
3F00000FF0
7FC0001FF0
FFC0001FF0
FFC0001FF0
FFE0001FE0
7FE0001FE0
7FE0003FE0
7FF0003FE0
3FF0003FE0
3FF0003FC0
3FF0003FC0
1FF8003FC0
1FF8007FC0
1FF8007FC0
0FF8007F80
0FFC007F80
0FFC007F80
07FC007F80
07FC00FF80
03FE00FF80
03FE00FF00
03FE00FF00
01FE00FF00
01FF00FF00
01FF01FF00
00FF01FE00
00FF01FE00
00FF81FE00
00FF81FE00
007F81FE00
007F83FC00
007FC3FC00
007FC3FC00
003FC3FC00
003FC3FC00
003FE3FC00
003FE3F800
001FE7F800
001FE7F800
001FF7F800
001FF7F800
000FF7F000
000FFFF000
000FFFF000
0007FFF000
0007FFE000
0007FFE000
0003FFE000
0003FFE000
0001FFC000
0001FF8000
ENDCHAR
STARTCHAR 0057
ENCODING 87
SWIDTH 750 0
DWIDTH 50 0
BBX 48 53 1 -2
BITMAP
1F0000000000
7F00078000FC
FF800F8001FE
FF800F8001FF
FF801F8001FF
FFC01F8001FF
FFC01FC001FF
FFC01FC001FF
FFC01FC001FF
7FC03FC001FF
7FC03FC001FF
7FC03FC001FF
7FC03FE001FF
7FC03FE001FF
7FC07FE003FF
7FC07FE003FF
3FE07FE003FF
3FE07FF003FE
3FE07FF003FE
3FE07FF003FE
3FE0FFF003FE
3FE0FFF007FE
1FE0FFF807FE
1FE0FFF807FC
1FE0FFF807FC
1FE1FFF807FC
1FE1FFF807FC
1FE1FFFC0FFC
0FE1FDFC0FF8
0FE3FDFC0FF8
0FE3F9FC0FF8
0FE3F9FC1FF8
0FE3F9FE1FF0
0FE7F8FE1FF0
0FE7F8FE1FF0
07E7F0FE3FE0
07EFF0FE3FE0
07EFF07F3FE0
07EFF07F3FC0
07FFF07F7FC0
07FFE07F7FC0
07FFE03F7F80
03FFE03FFF80
03FFE03FFF80
03FFC01FFF00
03FFC01FFF00
03FFC01FFF00
03FFC00FFE00
01FF800FFE00
01FF800FFE00
00FF0007FC00
007F0003FC00
003C0000F800
ENDCHAR
STARTCHAR 0058
ENCODING 88
SWIDTH 600 0
DWIDTH 40 0
BBX 38 52 1 -2
BITMAP
0FE00000F0
1FF00001FC
3FF00003FC
3FF00007FC
1FF8000FFC
0FF8000FFC
0FFC001FF8
07FC001FF0
03FE003FF0
03FE007FE0
01FF007FC0
00FF00FF80
00FF80FF80
007F81FF00
003FC3FE00
003FC3FC00
001FE7FC00
001FEFF800
000FFFF000
000FFFF000
0007FFE000
0007FFC000
0007FF8000
000FFF8000
000FFF8000
001FFFC000
001FFFC000
003FFFE000
007FFFE000
007FFFF000
00FFDFF000
01FF9FF800
01FF8FF800
03FF0FFC00
03FE07FE00
07FE03FE00
0FFC03FF00
0FF801FF00
1FF801FF80
1FF000FFC0
3FE000FFC0
7FE0007FE0
7FC0003FE0
FF80003FF0
FF80001FF8
FF00001FF8
FE00000FFC
FE000007FC
78000007FC
00000003F8
00000003F8
00000001E0
ENDCHAR
STARTCHAR 0059
ENCODING 89
SWIDTH 540 0
DWIDTH 36 0
BBX 35 51 1 -1
BITMAP
1E00001F00
7F00001FC0
FF80001FE0
FFC0003FE0
FFE0003FE0
7FF0003FC0
7FF0007FC0
3FF8007FC0
1FF8007F80
1FFC00FF80
0FFC00FF80
07FE00FF00
03FE01FF00
03FF01FE00
01FF03FE00
00FF83FC00
00FF83FC00
007FC7F800
003FC7F800
003FEFF000
001FEFF000
000FFFE000
000FFFE000
0007FFC000
0007FFC000
0003FFC000
0003FF8000
0003FF8000
0001FF8000
0001FF8000
0001FF8000
0001FF8000
0001FF0000
0001FF0000
0001FF0000
0001FF0000
0001FF0000
0001FF0000
0001FF0000
0001FF0000
0001FF0000
0001FF0000
0001FF0000
0001FF0000
0001FF0000
0001FF0000
0001FF0000
0001FF0000
0001FF0000
0001FF0000
0000780000
ENDCHAR
STARTCHAR 005A
ENCODING 90
SWIDTH 630 0
DWIDTH 42 0
BBX 40 50 1 -1
BITMAP
1F80000000
3FFFFFFF80
7FFFFFFFE0
FFFFFFFFF0
FFFFFFFFF0
FFFFFFFFF0
FFFFFFFFF0
3FFFFFFFF0
0000007FF0
000000FFE0
000000FFE0
000001FFC0
000003FF80
000007FF80
000007FF00
00000FFE00
00001FFE00
00001FFC00
00003FF800
00007FF000
00007FF000
0000FFE000
0001FFC000
0001FFC000
0003FF8000
0007FF0000
000FFF0000
000FFE0000
001FFC0000
003FF80000
003FF80000
007FF00000
00FFE00000
00FFE00000
01FFC00000
03FF800000
03FF800000
07FF000000
07FF000000
0FFE000000
1FFC000000
1FFC000000
3FF8000000
3FFFFFFFFC
7FFFFFFFFE
7FFFFFFFFF
7FFFFFFFFF
7FFFFFFFFF
1FFFFFFFFF
07FFFFFFFC
ENDCHAR
STARTCHAR 005B
ENCODING 91
SWIDTH 435 0
DWIDTH 29 0
BBX 24 61 4 -12
BITMAP
01FE00
7FFF80
FFFFC0
FFFFC0
FFFFC0
FFFFC0
FFFF80
FFF800
FF8000
FF8000
FF8000
FF8000
FF8000
FF8000
FF8000
FF8000
FF8000
FF8000
FF8000
FF8000
FF8000
FF8000
FF8000
FF8000
FF8000
FF8000
FF8000
FF8000
FF8000
FF8000
FF8000
FF8000
FF8000
FF8000
FF8000
FF8000
FF8000
FF8000
FF8000
FF8000
FF8000
FF8000
FF8000
FF8000
FF8000
FF8000
FF8000
FF8000
FF8000
FF8000
FF8000
FF8000
FF8000
FFE000
FFFFFC
FFFFFE
FFFFFF
7FFFFF
7FFFFF
3FFFFF
0FFFFE
ENDCHAR
STARTCHAR 005C
ENCODING 92
SWIDTH 510 0
DWIDTH 34 0
BBX 26 51 4 -1
BITMAP
78000000
FC000000
FE000000
FF000000
FF000000
7F000000
7F800000
7F800000
3FC00000
3FC00000
1FE00000
1FE00000
1FE00000
0FF00000
0FF00000
07F80000
07F80000
07FC0000
03FC0000
03FE0000
01FE0000
01FE0000
00FF0000
00FF0000
007F8000
007F8000
007FC000
003FC000
003FE000
001FE000
001FE000
000FF000
000FF000
000FF800
0007F800
0007FC00
0003FC00
0003FC00
0001FE00
0001FE00
0001FF00
0000FF00
0000FF80
00007F80
00007F80
00003F80
00003FC0
00001FC0
00000FC0
000007C0
00000380
ENDCHAR
STARTCHAR 005D
ENCODING 93
SWIDTH 405 0
DWIDTH 27 0
BBX 21 61 2 -11
BITMAP
3FFFC0
FFFFE0
FFFFF0
FFFFF0
FFFFF8
7FFFF8
3FFFF8
001FF8
000FF8
000FF8
000FF8
000FF8
000FF8
000FF8
000FF8
000FF8
000FF8
000FF8
000FF8
000FF8
000FF8
000FF8
000FF8
000FF8
000FF8
000FF8
000FF8
000FF8
000FF8
000FF8
000FF8
000FF8
000FF8
000FF8
000FF8
000FF8
000FF8
000FF8
000FF8
000FF8
000FF8
000FF8
000FF8
000FF8
000FF8
000FF8
000FF8
000FF8
000FF8
000FF8
000FF8
000FF8
000FF8
3FFFF8
7FFFF8
FFFFF8
FFFFF8
FFFFF8
7FFFF0
7FFFF0
07FFC0
ENDCHAR
STARTCHAR 005E
ENCODING 94
SWIDTH 930 0
DWIDTH 62 0
BBX 40 14 11 36
BITMAP
00003E0000
0001FF8000
0007FFE000
001FFFF800
007FFFFE00
01FFFFFF00
07FFFFFFC0
1FFFFFFFF0
3FFFC3FFF8
7FFE007FFE
FFF8001FFF
FFE00007FF
FF000000FF
7C0000001E
ENDCHAR
STARTCHAR 005F
ENCODING 95
SWIDTH 930 0
DWIDTH 62 0
BBX 62 6 0 -12
BITMAP
FFFFFFFFFFFFFFFC
FFFFFFFFFFFFFFFC
FFFFFFFFFFFFFFFC
FFFFFFFFFFFFFFFC
FFFFFFFFFFFFFFFC
FFFFFFFFFFFFFFFC
ENDCHAR
STARTCHAR 0060
ENCODING 96
SWIDTH 480 0
DWIDTH 32 0
BBX 14 11 7 44
BITMAP
3800
7E00
FF00
FF80
FFE0
7FF0
1FF8
0FFC
03FC
00FC
0038
ENDCHAR
STARTCHAR 0061
ENCODING 97
SWIDTH 540 0
DWIDTH 36 0
BBX 32 43 1 -2
BITMAP
0007F078
003FFCFC
007FFEFE
01FFFFFE
03FFFFFE
03FFFFFE
07FFFFFE
0FFE0FFE
1FF801FE
1FF001FE
3FE001FE
3FE001FE
3FC001FE
7FC001FE
7F8001FE
7F8001FE
FF8001FE
FF8001FE
FF8001FE
FF0001FE
FF0001FE
FF0001FE
FF0001FE
FF0001FE
FF0003FE
FF0003FE
FF0003FE
FF8003FE
7F8003FE
7F8007FE
7FC007FE
3FC007FE
3FE00FFF
3FF01FFF
1FFC3FFF
0FFFFFFF
0FFFFFFF
07FFFE7F
03FFFC7F
01FFF87F
007FF03F
001FC03E
0000001E
ENDCHAR
STARTCHAR 0062
ENCODING 98
SWIDTH 525 0
DWIDTH 35 0
BBX 33 53 1 -1
BITMAP
1F00000000
3F80000000
7FC0000000
7FC0000000
7FC0000000
7FC0000000
FFC0000000
7FC0000000
7FC0000000
7FC0000000
7FC0000000
7FC0FE0000
7FC7FF8000
7FCFFFE000
7FFFFFF000
7FFFFFF000
7FFFFFF800
7FFFFFFC00
7FF81FFC00
7FF007FE00
7FE003FE00
7FC001FE00
7FC001FF00
7FC000FF00
7FC000FF00
7FC000FF00
7FC0007F00
7FC0007F00
7FC0007F00
7FC0007F00
7FC0007F00
7FC0007F00
7FC0007F80
7FC0007F00
7FC0007F00
7FE0007F00
7FE0007F00
7FE0007F00
7FE000FF00
7FF000FF00
7FF000FF00
7FF000FE00
7FF801FE00
7FF801FE00
7FFC03FC00
7FFF07FC00
7FFFFFF800
7FFFFFF000
7FBFFFF000
7F1FFFE000
7F0FFF8000
7E07FF0000
3C01F80000
ENDCHAR
STARTCHAR 0063
ENCODING 99
SWIDTH 540 0
DWIDTH 36 0
BBX 34 42 1 -1
BITMAP
0007FC0000
003FFF0000
00FFFFC000
01FFFFE000
07FFFFF000
0FFFFFF800
0FFFFFFC00
1FFE1FFC00
3FF807FE00
3FF003FE00
3FE001FE00
7FC000FE00
7FC000FC00
7FC0007800
FF80000000
FF80000000
FF80000000
FF80000000
FF80000000
FF80000000
FF80000000
FF80000000
FF80000000
FF80000000
FF80000000
FFC0000000
7FC0000000
7FC0000780
7FE0000FC0
7FE0001FC0
3FF0003FC0
3FF0007FC0
1FF800FF80
1FFC01FF80
1FFF07FF00
0FFFFFFF00
07FFFFFE00
03FFFFFC00
01FFFFF800
00FFFFF000
003FFFC000
0003FE0000
ENDCHAR
STARTCHAR 0064
ENCODING 100
SWIDTH 555 0
DWIDTH 37 0
BBX 32 54 2 -2
BITMAP
0000003E
0000007F
000000FF
000000FF
000000FF
000001FF
000001FF
000001FF
000001FF
000001FF
000001FF
0007E1FF
003FF9FF
00FFFDFF
01FFFFFF
03FFFFFF
07FFFFFF
07FFFFFF
0FFF0FFF
1FFC03FF
1FF801FF
3FF001FF
3FE001FF
3FC001FF
7FC001FF
7F8001FF
7F8001FF
FF8001FF
FF8001FF
FF0001FF
FF0001FF
FF0001FF
FF0001FF
FF0001FF
FF0001FF
FF0003FF
FF0003FF
FF8003FF
FF8003FF
7F8007FF
7F8007FF
7FC007FF
7FC00FFF
3FE00FFF
3FF01FFF
1FFC7FFF
1FFFFFFF
0FFFFFFF
07FFFFFF
03FFFEFF
01FFFCFF
007FF87F
001FC07E
0000003C
ENDCHAR
STARTCHAR 0065
ENCODING 101
SWIDTH 585 0
DWIDTH 39 0
BBX 35 42 2 -1
BITMAP
0007FC0000
003FFF8000
00FFFFE000
01FFFFF800
07FFFFFC00
0FFFFFFE00
0FFFFFFF00
1FFE0FFF00
3FF801FF80
3FF000FF80
7FE000FFC0
7FC0007FC0
7F80007FE0
7F80003FE0
FF80003FE0
FFFFFFFFE0
FFFFFFFFE0
FFFFFFFFE0
FFFFFFFFE0
FFFFFFFFE0
FFFFFFFF80
FF80000000
FF80000000
FF80000000
FF80000000
7FC0000000
7FC0000000
7FC0000000
7FC0000000
3FE0000000
3FF0000780
3FF0000FC0
1FF8003FC0
1FFE007FC0
0FFF83FFC0
0FFFFFFF80
07FFFFFF00
03FFFFFE00
01FFFFFC00
00FFFFF800
003FFFE000
0007FF0000
ENDCHAR
STARTCHAR 0066
ENCODING 102
SWIDTH 360 0
DWIDTH 24 0
BBX 27 55 -1 -1
BITMAP
00000E00
0003FFC0
000FFFE0
001FFFE0
003FFFE0
003FFFE0
007FFF80
007FE000
007FC000
007F8000
00FF8000
00FF0000
00FF0000
00FF0000
00FF0000
00FFFF80
3FFFFFC0
FFFFFFC0
FFFFFFC0
FFFFFFC0
7FFFFF80
1FFFFE00
00FF0000
00FF0000
00FF0000
00FF0000
00FF0000
00FF0000
00FF0000
00FF0000
00FF0000
00FF0000
00FF0000
00FF0000
00FF0000
00FF0000
00FF0000
00FF0000
00FF0000
00FF0000
00FF0000
00FF0000
00FF0000
00FF0000
00FF0000
00FF0000
00FF0000
00FF0000
00FF0000
00FF0000
00FF0000
007F0000
007F0000
007E0000
003C0000
ENDCHAR
STARTCHAR 0067
ENCODING 103
SWIDTH 570 0
DWIDTH 38 0
BBX 32 54 2 -12
BITMAP
0000000F
000FE01F
00FFFC3F
01FFFF7F
07FFFFFF
0FFFFFFF
1FFFFFFF
1FFFFFFF
3FFE0FFF
3FF803FF
7FF001FF
7FE001FF
7FC000FF
FFC000FF
FF8000FF
FF8000FF
FF8000FF
FF8000FF
FF0000FF
FF0000FF
FF0000FF
FF0000FF
FF0000FF
FF0000FF
FF0000FF
FF0000FF
7F8001FF
7F8001FF
7F8001FF
7F8001FF
3FC003FF
3FC003FF
1FE007FF
1FF00FFF
0FF83FFF
0FFFFFFF
07FFFFFF
03FFFFFF
01FFFEFF
007FF8FF
001FC1FF
000001FF
000001FF
000003FF
1E0003FE
3FC00FFE
3FF83FFE
3FFFFFFC
3FFFFFFC
1FFFFFF8
0FFFFFF0
07FFFFE0
00FFFF80
001FFC00
ENDCHAR
STARTCHAR 0068
ENCODING 104
SWIDTH 540 0
DWIDTH 36 0
BBX 30 51 3 -1
BITMAP
3C000000
7E000000
FF000000
FF000000
FF000000
FF000000
FF000000
FF000000
FF000000
FF03F800
FF0FFF00
FF1FFF80
FF7FFFC0
FFFFFFE0
FFFFFFF0
FFFFFFF0
FFFFFFF8
FFF83FF8
FFF00FF8
FFE00FF8
FFC007FC
FFC007FC
FF8007FC
FF8007FC
FF8003FC
FF0003FC
FF0003FC
FF0003FC
FF0003FC
FF0003FC
FF0003FC
FF0003FC
FF0003FC
FF0003FC
FF0003FC
FF0003FC
FF0003FC
FF0003FC
FF0003FC
FF0003FC
FF0003FC
FF0003FC
FF0003FC
FF0003FC
FF0003FC
FF0003FC
FF0003FC
FF0003FC
7E0001FC
7E0001FC
3C000078
ENDCHAR
STARTCHAR 0069
ENCODING 105
SWIDTH 255 0
DWIDTH 17 0
BBX 10 53 3 -1
BITMAP
1E00
7F00
7F00
FF00
FF00
FF00
FF00
7E00
3C00
0000
0000
1E00
3F00
3F00
7F80
7F80
7F80
7F80
7FC0
7FC0
7FC0
7FC0
7FC0
7FC0
7FC0
7FC0
7FC0
7FC0
7FC0
7FC0
7FC0
7FC0
7FC0
7FC0
7FC0
7FC0
7FC0
7FC0
7FC0
7FC0
7FC0
7FC0
7FC0
7FC0
7FC0
7FC0
7FC0
7FC0
7FC0
7FC0
3F80
3F80
0F00
ENDCHAR
STARTCHAR 006A
ENCODING 106
SWIDTH 300 0
DWIDTH 20 0
BBX 18 65 -3 -12
BITMAP
000780
001FC0
003FC0
003FC0
003FC0
003FC0
003FC0
003F80
001E00
000000
000000
000000
000F00
001F80
003F80
003F80
007F80
007FC0
007FC0
007FC0
007FC0
003FC0
003FC0
003FC0
003FC0
003FC0
003FC0
003FC0
003FC0
003FC0
003FC0
003FC0
003FC0
003FC0
003FC0
003FC0
003FC0
003FC0
003FC0
003FC0
003FC0
003FC0
003FC0
003FC0
003FC0
003FC0
003FC0
003FC0
003FC0
003FC0
003FC0
007FC0
007FC0
007FC0
007F80
00FF80
01FF80
03FF00
07FF00
1FFE00
3FFE00
7FFC00
FFF000
FFC000
7C0000
ENDCHAR
STARTCHAR 006B
ENCODING 107
SWIDTH 450 0
DWIDTH 30 0
BBX 27 51 4 -1
BITMAP
3E000000
7F000000
FF000000
FF000000
FF000000
FF000000
FF000000
FF000000
FF000000
FF000700
FF001F80
FF003F80
FF007F80
FF00FF80
FF03FF00
FF07FE00
FF0FFC00
FF1FF800
FF7FF000
FFFFE000
FFFFC000
FFFF8000
FFFE0000
FFFC0000
FFF00000
FFC00000
FFC00000
FFE00000
FFF80000
FFFC0000
FFFE0000
FFFF0000
FFFF8000
FFFFC000
FF7FE000
FF3FE000
FF1FF000
FF0FF800
FF0FFC00
FF07FE00
FF03FE00
FF01FF00
FF01FF80
FF00FF80
FF007FC0
FF007FC0
FF003FE0
FF001FE0
7F001FE0
7E000FC0
3C000780
ENDCHAR
STARTCHAR 006C
ENCODING 108
SWIDTH 240 0
DWIDTH 16 0
BBX 8 51 4 -1
BITMAP
1E
7F
7F
FF
FF
FF
FF
FF
FF
FF
FF
FF
FF
FF
FF
FF
FF
FF
FF
FF
FF
FF
FF
FF
FF
FF
FF
FF
FF
FF
FF
FF
FF
FF
FF
FF
FF
FF
FF
FF
FF
FF
FF
FF
FF
FF
FF
FF
7F
7E
3C
ENDCHAR
STARTCHAR 006D
ENCODING 109
SWIDTH 750 0
DWIDTH 50 0
BBX 44 42 3 -1
BITMAP
380FE00FE000
7C3FF03FFC00
7CFFF8FFFE00
FFFFFDFFFF00
FFFFFFFFFF80
FFFFFFFFFFC0
FFFFFFFFFFC0
FFFFFFFFFFE0
FFE1FFF0FFE0
FFC0FFE03FE0
FF80FFC03FE0
FF807FC01FE0
FF807FC01FF0
FF007FC01FF0
FF007FC01FF0
FF003FC01FF0
FF003FC01FF0
FF003FC00FF0
FF003FC00FF0
FF003FC00FF0
FF003FC00FF0
FF003FC00FF0
FF003FC00FF0
FF003FC00FF0
FF003FC00FF0
FF003FC00FF0
FF003FC00FF0
FF003FC00FF0
FF003FC00FF0
FF003FC00FF0
FF003FC00FF0
FF003FC00FF0
FF003FC00FF0
FF003FC00FF0
FF003FC00FF0
FF003FC00FF0
FF003FC00FF0
FF003FC00FF0
FF003FC00FF0
FF001FC00FF0
7E001FC007E0
3C00078003C0
ENDCHAR
STARTCHAR 006E
ENCODING 110
SWIDTH 555 0
DWIDTH 37 0
BBX 31 42 3 -1
BITMAP
3807FC00
7C1FFF00
7C7FFFC0
FCFFFFE0
FFFFFFF0
FFFFFFF0
FFFFFFF8
FFFFFFF8
FFF03FF8
FFC00FFC
FF8007FC
FF8007FC
FF0007FC
FF0003FC
FF0003FC
FF0003FE
FF0003FE
FF0003FE
FF0003FE
FF0001FE
FF0001FE
FF0001FE
FF0001FE
FF0001FE
FF0001FE
FF0001FE
FF0001FE
FF0001FE
FF0001FE
FF0001FE
FF0001FE
FF0001FE
FF0001FE
FF0001FE
FF0001FE
FF0001FE
FF0001FE
FF0001FE
FF0001FE
7F0000FE
7E0000FE
3C00007C
ENDCHAR
STARTCHAR 006F
ENCODING 111
SWIDTH 555 0
DWIDTH 37 0
BBX 34 42 2 -1
BITMAP
000FF00000
007FFE0000
00FFFF8000
03FFFFE000
07FFFFF000
0FFFFFF800
1FFFFFF800
1FFE1FFC00
3FF00FFE00
3FE003FE00
7FE001FF00
7FC001FF00
7F8000FF00
7F8000FF80
FF80007F80
FF80007F80
FF00007F80
FF00003FC0
FF00003FC0
FF00003FC0
FF00003FC0
FF00003FC0
FF00003FC0
FF00003FC0
FF80003FC0
7F80003FC0
7F80007FC0
7F80007FC0
7FC0007F80
7FC0007F80
3FE000FF80
3FF000FF00
3FF801FF00
1FFC03FE00
1FFF07FE00
0FFFFFFC00
07FFFFF800
07FFFFF000
03FFFFE000
00FFFFC000
003FFF0000
0007FC0000
ENDCHAR
STARTCHAR 0070
ENCODING 112
SWIDTH 540 0
DWIDTH 36 0
BBX 32 54 2 -12
BITMAP
7803F800
FC0FFE00
FE1FFF80
FE3FFFC0
FF7FFFE0
FFFFFFF0
FFFFFFF8
FFFC1FF8
7FF007FC
7FE003FC
7FC003FC
7FC001FE
7F8001FE
7F8001FE
7F8001FE
7F8000FF
7F8000FF
7F8000FF
7F8000FF
7F8000FF
7F8000FF
7F8000FF
7F8000FF
7F8000FF
7F8000FF
7F8000FF
7F8000FF
7FC000FF
7FC001FE
7FC001FE
7FC001FE
7FC003FE
7FE003FE
7FF007FC
7FF80FFC
7FFC1FF8
7FFFFFF8
7FFFFFF0
7FFFFFF0
7FBFFFE0
7F9FFFC0
7F87FF00
7F80FC00
7F800000
7F800000
7F800000
7F800000
7F800000
7F800000
7F800000
3F800000
3F800000
3F000000
1E000000
ENDCHAR
STARTCHAR 0071
ENCODING 113
SWIDTH 555 0
DWIDTH 37 0
BBX 33 56 2 -12
BITMAP
0000000F00
0000001F80
0000003F80
0003F87F00
001FFF7F00
007FFFFF00
00FFFFFF00
01FFFFFF00
03FFFFFF00
07FF03FF00
0FFC01FF00
0FF801FF00
1FF001FF00
3FE001FF00
3FC001FF00
3FC001FF00
7F8001FF00
7F8001FF00
7F8001FF00
7F8001FF00
FF8001FF00
FF0001FF00
FF0001FF00
FF0001FF00
FF0001FF00
FF0001FF00
FF0001FF00
FF0001FF00
FF0001FF00
FF8001FF00
FF8001FF00
7F8001FF00
7FC001FF00
7FC001FF00
7FE001FF00
3FF003FF00
3FF807FF00
1FFE1FFF00
1FFFFFFF00
0FFFFFFF00
07FFFFFF00
03FFFDFF00
01FFF9FF00
007FF1FF00
001FC1FF00
000001FF00
000001FF00
000001FF00
000001FF00
000001FF00
000001FF00
000001FF00
000000FF00
000000FF00
000000FE00
0000003C00
ENDCHAR
STARTCHAR 0072
ENCODING 114
SWIDTH 435 0
DWIDTH 29 0
BBX 26 42 3 -1
BITMAP
380FC000
7C3FF800
7C7FFC00
FDFFFE00
FDFFFF00
FFFFFF80
FFFFFF80
FFF1FFC0
FFE0FFC0
FFC07FC0
FFC03FC0
FFC03FC0
FF801FC0
FF801F80
FF800700
FF000000
FF000000
FF000000
FF000000
FF000000
FF000000
FF000000
FF000000
FF000000
FF000000
FF000000
FF000000
FF000000
FF000000
FF000000
FF000000
FF000000
FF000000
FF000000
FF000000
FF000000
FF000000
FF000000
FF000000
7F000000
7E000000
1C000000
ENDCHAR
STARTCHAR 0073
ENCODING 115
SWIDTH 450 0
DWIDTH 30 0
BBX 26 43 2 -2
BITMAP
003FE000
01FFFC00
07FFFE00
0FFFFF00
1FFFFF80
1FFFFFC0
3FFFFFC0
3FF07FC0
7FC01FC0
7F800380
7F800000
7F800000
7FC00000
7FE00000
7FF00000
3FF80000
3FFC0000
1FFF0000
1FFF8000
0FFFE000
07FFF800
03FFFC00
00FFFE00
007FFF00
003FFF00
000FFF80
0007FF80
0001FFC0
0000FFC0
00007FC0
00007FC0
00003FC0
00003FC0
70007FC0
FC007FC0
FF81FF80
FFFFFF80
FFFFFF00
7FFFFF00
3FFFFE00
1FFFFC00
07FFF000
00FFC000
ENDCHAR
STARTCHAR 0074
ENCODING 116
SWIDTH 390 0
DWIDTH 26 0
BBX 26 48 0 -1
BITMAP
003F0000
003F8000
007F8000
007F8000
007F8000
007F8000
007F8000
007F8000
007FFF80
3FFFFFC0
FFFFFFC0
FFFFFFC0
FFFFFFC0
7FFFFF80
1FFFFE00
00FF0000
00FF0000
00FF0000
00FF0000
00FF0000
00FF0000
00FF0000
00FF0000
00FF0000
00FF0000
00FF0000
00FF0000
00FF0000
00FF0000
00FF0000
00FF0000
00FF0000
00FF0000
00FF0000
00FF0000
00FF0000
00FF0000
00FF8000
00FF8000
00FFC000
00FFE000
00FFFF00
007FFF80
007FFF80
003FFF80
003FFF00
001FFC00
0007F000
ENDCHAR
STARTCHAR 0075
ENCODING 117
SWIDTH 570 0
DWIDTH 38 0
BBX 32 42 3 -1
BITMAP
3C00001C
7F00007E
FF00007E
FF00007F
FF8000FF
FF8000FF
FF8000FF
FF8000FF
FF8000FF
FF8000FF
FF8000FF
FF8000FF
FF8000FF
FF8000FF
FF8000FF
FF8000FF
FF8000FF
FF8000FF
FF8000FF
FF8000FF
FF8000FF
FF8000FF
FF8000FF
FF8000FF
FF8000FF
FF8001FF
FF8001FF
FF8001FF
FF8001FF
FF8003FF
7FC003FF
7FC007FF
7FE00FFF
7FF81FFF
7FFFFFFF
3FFFFFFF
3FFFFFFF
1FFFFFFF
0FFFFCFF
07FFF8FE
01FFE0FE
003F807C
ENDCHAR
STARTCHAR 0076
ENCODING 118
SWIDTH 510 0
DWIDTH 34 0
BBX 34 44 0 -2
BITMAP
0000001E00
0000003F80
3F00007FC0
7F00007FC0
FF80007FC0
FF8000FFC0
FF8000FFC0
FFC000FF80
FFC000FF80
7FC000FF80
7FC001FF80
7FC001FF00
7FC001FF00
7FE001FF00
3FE003FF00
3FE003FE00
3FE003FE00
3FE003FE00
1FF003FC00
1FF007FC00
1FF007FC00
1FF007FC00
0FF80FF800
0FF80FF800
0FF80FF800
0FFC0FF000
07FC1FF000
07FC1FF000
07FC1FE000
07FE3FE000
03FE3FE000
03FF3FC000
03FF7FC000
01FF7FC000
01FFFF8000
00FFFF8000
00FFFF8000
00FFFF0000
007FFF0000
003FFE0000
003FFE0000
001FFC0000
000FF80000
0003E00000
ENDCHAR
STARTCHAR 0077
ENCODING 119
SWIDTH 720 0
DWIDTH 48 0
BBX 46 44 1 -1
BITMAP
3C0000000000
7E0000000000
FF000F8000F0
FF001FC001F8
FF001FC001FC
FF001FE001FC
FF801FE001FC
7F803FE003FC
7F803FF003FC
7F803FF003FC
7F803FF003FC
7F803FF003FC
3FC03FF803FC
3FC03FF807F8
3FC07FF807F8
3FC07FF807F8
3FE07FFC07F8
1FE07FFC07F8
1FE07FFC07F8
1FE07FFC07F8
1FE0FFFE0FF0
0FF0FFFE0FF0
0FF0FFFE0FF0
0FF0FEFF0FF0
0FF0FEFF0FF0
07F9FCFF0FF0
07F9FC7F9FE0
07F9FC7F9FE0
03F9FC7F9FE0
03F9FC3FDFE0
03FFF83FDFE0
03FFF81FDFE0
01FFF81FFFC0
01FFF81FFFC0
01FFF80FFFC0
00FFF00FFFC0
00FFF00FFF80
00FFF007FF80
007FF007FF80
007FE007FF80
003FE003FF00
003FC003FF00
001FC001FE00
000F80007C00
ENDCHAR
STARTCHAR 0078
ENCODING 120
SWIDTH 495 0
DWIDTH 33 0
BBX 33 44 0 -2
BITMAP
0000003C00
1F00007E00
3F8000FF00
7FC000FF00
7FC001FF00
7FE001FF00
3FE003FE00
3FF003FE00
1FF807FC00
0FF80FFC00
0FFC0FF800
07FC1FF000
03FE1FF000
01FE3FE000
01FF3FC000
00FFFFC000
00FFFF8000
007FFF0000
007FFF0000
003FFE0000
003FFC0000
003FFC0000
003FFE0000
007FFE0000
00FFFF0000
00FFFF0000
01FFFF8000
01FFFFC000
03FE7FC000
03FE7FE000
07FC3FF000
0FFC1FF000
0FF81FF800
1FF00FFC00
1FF007FC00
3FE003FE00
3FE003FE00
7FC001FF00
7FC000FF00
FF8000FF80
FF00007F80
FF00003F80
FE00003F00
7C00000E00
ENDCHAR
STARTCHAR 0079
ENCODING 121
SWIDTH 570 0
DWIDTH 38 0
BBX 33 55 2 -12
BITMAP
3C00000000
FF00001E00
FF00003F00
7F00007F00
7F8000FF80
7F8000FF80
7F8000FF80
7F8000FF80
7F8000FF80
7F8000FF80
7F8000FF80
7F8000FF80
7F8000FF80
7F8000FF80
7F8000FF80
7F8000FF80
7F8000FF80
7F8000FF80
7F8000FF80
7F8000FF80
7F8000FF80
7F8001FF80
7F8001FF80
7F8001FF80
7FC001FF80
7FC003FF80
7FC003FF80
7FC003FF00
7FE007FF00
7FF00FFF00
3FF81FFF00
3FFFFFFF00
3FFFFFFF00
1FFFFFFF00
0FFFFFFF00
0FFFFFFE00
03FFFFFE00
01FFFBFE00
003FC3FE00
000003FC00
000007FC00
000007FC00
00000FF800
00001FF800
00001FF800
00007FF000
0000FFE000
0001FFE000
0003FFC000
0007FF8000
000FFF8000
000FFF0000
000FFC0000
000FF80000
0003E00000
ENDCHAR
STARTCHAR 007A
ENCODING 122
SWIDTH 555 0
DWIDTH 37 0
BBX 36 41 1 0
BITMAP
3FFFFFFE00
7FFFFFFF00
FFFFFFFF80
FFFFFFFF80
FFFFFFFF80
FFFFFFFF80
FFFFFFFF00
7E001FFF00
00000FFE00
00001FFE00
00003FFC00
00007FF800
00007FF000
0000FFE000
0001FFE000
0003FFC000
0007FF8000
0007FF0000
000FFE0000
001FFC0000
003FFC0000
007FF80000
007FF00000
00FFE00000
01FFC00000
01FFC00000
03FF800000
07FF000000
0FFE000000
0FFE000000
1FFC000000
1FF8000000
3FFE0007C0
3FFFFFFFE0
7FFFFFFFF0
7FFFFFFFF0
7FFFFFFFF0
7FFFFFFFF0
3FFFFFFFF0
1FFFFFFFE0
07FFFFFFC0
ENDCHAR
STARTCHAR 007B
ENCODING 123
SWIDTH 450 0
DWIDTH 30 0
BBX 27 62 2 -12
BITMAP
000FFE00
007FFF00
00FFFF80
01FFFF80
01FFFF80
01FFFF80
03FFFF00
03FF8000
03FE0000
03FC0000
03FC0000
03FC0000
03FC0000
03FC0000
03FC0000
03FC0000
03FC0000
03FC0000
03FC0000
03FC0000
03FC0000
03FC0000
03FC0000
03FC0000
07FC0000
0FFC0000
7FF80000
FFF00000
FFC00000
FFE00000
7FF80000
3FF80000
0FFC0000
07FC0000
07FC0000
03FC0000
03FC0000
03FC0000
03FC0000
03FC0000
03FC0000
03FC0000
03FC0000
03FC0000
03FC0000
03FC0000
03FC0000
03FC0000
03FC0000
03FC0000
03FE0000
03FE0000
03FF0000
01FF8000
01FFF800
01FFFF80
01FFFFC0
01FFFFE0
00FFFFE0
00FFFFC0
007FFFC0
000FFF00
ENDCHAR
STARTCHAR 007C
ENCODING 124
SWIDTH 930 0
DWIDTH 62 0
BBX 9 62 26 -12
BITMAP
FF80
FF80
FF80
FF80
FF80
FF80
FF80
FF80
FF80
FF80
FF80
FF80
FF80
FF80
FF80
FF80
FF80
FF80
FF80
FF80
FF80
FF80
FF80
FF80
FF80
FF80
FF80
FF80
FF80
FF80
FF80
FF80
FF80
FF80
FF80
FF80
FF80
FF80
FF80
FF80
FF00
FF00
FF00
FF00
FF00
FF00
FF00
FF00
FF00
FF00
FF00
FF00
FF00
FF00
FF00
FF00
FF00
FF00
FF00
FF00
FF00
FF00
ENDCHAR
STARTCHAR 007D
ENCODING 125
SWIDTH 450 0
DWIDTH 30 0
BBX 26 62 1 -12
BITMAP
1FFE0000
7FFF8000
FFFFC000
FFFFE000
FFFFE000
7FFFE000
3FFFE000
007FF000
003FF000
001FF000
001FF000
000FF000
000FF000
000FF000
000FF000
000FF000
000FF000
000FF000
000FF000
000FF000
000FF000
000FF000
000FF000
000FF000
000FF800
000FFC00
0007FF00
0003FF80
0001FFC0
0000FFC0
0003FFC0
0007FF80
000FFC00
000FF800
001FF000
001FF000
001FF000
001FF000
001FF000
001FF000
001FF000
001FF000
001FF000
001FF000
001FF000
001FF000
001FF000
000FF000
000FF000
000FF000
000FF000
000FF000
000FF000
001FF000
007FF000
3FFFF000
7FFFF000
7FFFF000
7FFFE000
7FFFE000
3FFF8000
1FFC0000
ENDCHAR
STARTCHAR 007E
ENCODING 126
SWIDTH 915 0
DWIDTH 61 0
BBX 41 12 11 37
BITMAP
01FC00000700
07FFC0001F80
0FFFFE003F80
1FFFFFE0FF80
3FFFFFFFFF00
3FFFFFFFFF00
7FFFFFFFFE00
7F8FFFFFFE00
FE007FFFFC00
FC0003FFF800
F800001FE000
700000000000
ENDCHAR
STARTCHAR 00A1
ENCODING 161
SWIDTH 300 0
DWIDTH 20 0
BBX 11 51 5 -1
BITMAP
1F00
3F80
7FC0
FFE0
FFE0
FFE0
FFE0
FFE0
7FC0
3F80
1F00
0000
0000
1E00
3F00
3F00
7F80
7F80
7F80
7F80
FF80
FF80
FF80
FF80
FF80
FF80
FF80
FF80
FF80
FF80
FF80
FF80
FF80
FF80
FFC0
FFC0
FFC0
FFC0
FFC0
FFC0
FFC0
FFE0
FFE0
FFE0
FFE0
7FE0
7FE0
7FE0
3FE0
3FC0
0F00
ENDCHAR
STARTCHAR 00A2
ENCODING 162
SWIDTH 615 0
DWIDTH 41 0
BBX 32 52 5 -2
BITMAP
0003C000
0003E000
0007E000
0007E000
0007E000
0007E000
0007E000
003FFC00
00FFFE00
01FFFF80
03FFFFC0
07FFFFE0
0FFFFFF0
1FFFFFF0
1FF7EFF8
3FE7E7F8
3FC7E3F8
7FC7E1F8
7FC7E1F8
7F87E070
7F87E000
FF87E000
FF87E000
FF07E000
FF07E000
FF07E000
FF07E000
FF07E000
FF07E000
FF07E000
FF07E00E
FF87E01F
7F87E03F
7F87E03F
7F87E07F
7FC7E07E
3FC7E0FE
3FE7E1FE
1FF7E3FC
1FFFEFFC
0FFFFFF8
07FFFFF0
03FFFFF0
01FFFFE0
00FFFFC0
003FFF00
0007FC00
0003E000
0003E000
0003E000
0003C000
0001C000
ENDCHAR
STARTCHAR 00A3
ENCODING 163
SWIDTH 600 0
DWIDTH 40 0
BBX 37 51 2 -1
BITMAP
0007FC0000
003FFF8000
00FFFFE000
01FFFFF000
03FFFFF800
07FFFFFC00
07FFFFFE00
0FFE1FFE00
0FF803FF00
1FF801FF00
1FF001FF00
1FF000FF00
1FF000FF00
1FF0007F00
1FF0003F00
1FF8003F00
1FF8001E00
0FF8000000
0FFC000000
0FFC000000
07FC000000
07FE000000
7FFFFF8000
FFFFFFC000
FFFFFFC000
FFFFFFC000
7FFFFF8000
00FF800000
00FF800000
007F800000
007F800000
007F800000
007F800000
007F800000
007F800000
007F800000
007F800000
007F800000
007F800000
007F000000
00FF000000
00FF000000
01FF0000E0
03FFF80FF0
0FFFFFFFF8
1FFFFFFFF8
1FFFFFFFF8
1FFFFFFFF0
1FFFFFFFC0
0FFFFFFF00
07C007F800
ENDCHAR
STARTCHAR 00A4
ENCODING 164
SWIDTH 585 0
DWIDTH 39 0
BBX 35 35 2 11
BITMAP
2000000080
70000001C0
F8000003E0
7C000007C0
3E03F80F80
1F0FFE1F00
0FBFFFBE00
07FFFFFC00
03FC07F800
01F001F000
03E000F800
03C0007800
0780003C00
0780003C00
0F00001E00
0F00001E00
0F00001E00
0F00001E00
0F00001E00
0F00001E00
0F00001E00
0780003C00
0780003C00
03C0007800
03E000F800
01F001F000
03FC07F800
07FFFFFC00
0FBFFFBE00
1F0FFE1F00
3E03F80F80
7C000007C0
F8000003E0
70000001C0
2000000080
ENDCHAR
STARTCHAR 00A5
ENCODING 165
SWIDTH 615 0
DWIDTH 41 0
BBX 36 51 2 -1
BITMAP
3E00000F80
7F00001FC0
FF80001FE0
FFC0003FE0
FFC0003FE0
7FE0007FC0
7FF0007FC0
3FF0007FC0
1FF800FF80
1FF800FF80
0FFC01FF00
07FC01FF00
07FE01FE00
03FE03FE00
03FF03FC00
01FF07FC00
00FF87F800
00FF8FF800
007FCFF000
007FCFF000
003FFFE000
001FFFE000
001FFFFF00
0FFFFFFFE0
3FFFFFFFF0
3FFFFFFFF0
3FFFFFFFF0
1FFFFFFFC0
0003FF0000
0003FF0000
0003FF0000
0003FF0000
0003FFFE00
0FFFFFFFE0
3FFFFFFFF0
3FFFFFFFF0
3FFFFFFFF0
1FFFFFFFC0
0003FE0000
0003FF0000
0003FF0000
0003FF0000
0003FF0000
0003FF0000
0003FF0000
0003FF0000
0003FF0000
0003FF0000
0003FF0000
0001FF0000
0000F80000
ENDCHAR
STARTCHAR 00A6
ENCODING 166
SWIDTH 930 0
DWIDTH 62 0
BBX 8 54 26 -10
BITMAP
FF
FF
FF
FF
FF
FF
FF
FF
FF
FF
FF
FF
FF
FF
FF
FF
FF
FF
FF
FF
FF
00
00
00
00
00
00
00
00
00
00
00
00
FF
FF
FF
FF
FF
FF
FF
FF
FF
FF
FF
FF
FF
FF
FF
FF
FF
FF
FF
FF
FF
ENDCHAR
STARTCHAR 00A7
ENCODING 167
SWIDTH 555 0
DWIDTH 37 0
BBX 27 60 5 -11
BITMAP
00FFC000
03FFF800
0FFFFC00
1FFFFF00
3FFFFF80
7FFFFFC0
7FFFFFC0
FFC1FFE0
FF803FE0
FF001FE0
FF000FE0
FF0007C0
FF800000
FF800000
7FC00000
7FE00000
7FF80000
3FFF0000
1FFFC000
1FFFE000
3FFFF800
3FFFFC00
3FFFFE00
7FCFFF00
7F83FF80
7F01FF80
7F00FFC0
7F007FC0
7F003FC0
7F003FE0
7F801FE0
7FC01FE0
3FC01FE0
3FE01FE0
3FF01FE0
1FFC3FE0
0FFFFFE0
0FFFFFE0
07FFFFC0
03FFFFC0
01FFFFC0
007FFFC0
001FFFC0
0003FFC0
0000FFE0
00007FE0
00003FE0
38003FE0
7C001FE0
FE001FE0
FF001FE0
FF803FE0
7FE07FE0
3FFFFFC0
3FFFFFC0
1FFFFF80
0FFFFF00
03FFFE00
01FFF800
003FE000
ENDCHAR
STARTCHAR 00A8
ENCODING 168
SWIDTH 495 0
DWIDTH 33 0
BBX 23 9 5 44
BITMAP
3C00F0
7E01FC
FF03FE
FF03FE
FF03FE
FF03FE
FF03FC
7E01FC
3C00F0
ENDCHAR
STARTCHAR 00A9
ENCODING 169
SWIDTH 795 0
DWIDTH 53 0
BBX 45 45 4 8
BITMAP
0000FFF00000
0007FFFF0000
003FFFFFE000
007FFFFFF800
01FFFFFFFC00
03FFC03FFE00
07FE0007FF00
0FF80000FF80
0FF000007FC0
1FE000001FC0
1FC000000FE0
3F801FC00FE0
3F803FF007F0
7F00FFF807F0
7F01FFFC03F0
7E01FFFE03F0
7E03F83E03F8
FE03F01E01F8
FC07F00E01F8
FC07E00001F8
FC07E00001F8
FC07E00001F8
FC07E00001F8
FC07E00001F8
FC07E00001F8
FC07E00001F8
FC07F00001F8
FC03F00001F8
7E03F81C03F0
7E01FC7E03F0
7E01FFFE03F0
3E00FFFC07F0
3F007FF807E0
3F803FF00FE0
1F800FC00FC0
1FC000001FC0
0FE000003F80
07F00000FF80
07FC0001FF00
03FF801FFE00
01FFFFFFFC00
007FFFFFF000
001FFFFFE000
0007FFFF0000
00007FF00000
ENDCHAR
STARTCHAR 00AA
ENCODING 170
SWIDTH 420 0
DWIDTH 28 0
BBX 22 34 3 15
BITMAP
0000E0
01F1F0
07FDF0
0FFFF0
1FFFF0
3FFFF0
3F87F0
7F03F0
7E03F0
FE03F0
FC03F0
FC03F0
FC03F0
FC03F0
FC03F0
FC03F0
FC07F0
FE07F0
FE07F0
7F0FF0
7FFFF0
7FFFF0
3FFFF0
1FFDF0
0FF8F0
03F060
000000
000000
000000
7FFFF8
FFFFFC
FFFFFC
FFFFFC
7FFFF8
ENDCHAR
STARTCHAR 00AB
ENCODING 171
SWIDTH 615 0
DWIDTH 41 0
BBX 37 34 3 4
BITMAP
00038003C0
000FC007E0
001FE00FE0
003FE01FE0
007FE03FE0
00FFC07FC0
01FF80FF80
03FF01FF00
07FE03FF00
07FC07FE00
0FFC0FFC00
1FF81FF800
3FF03FF000
7FE07FE000
7FC07FC000
FF80FFC000
FF00FF8000
FF00FF8000
FF80FFC000
FFC0FFE000
7FE07FF000
7FF03FF800
3FF81FFC00
0FFC0FFE00
07FE03FF00
03FF81FF80
01FFC0FFC0
00FFE07FE0
007FF03FF0
003FF01FF8
001FF80FF8
0007F807F8
0003F801F8
0000F000F0
ENDCHAR
STARTCHAR 00AC
ENCODING 172
SWIDTH 600 0
DWIDTH 40 0
BBX 36 19 2 10
BITMAP
0FFFFFFF80
7FFFFFFFE0
7FFFFFFFE0
FFFFFFFFF0
FFFFFFFFF0
7FFFFFFFF0
7FFFFFFFF0
1FFFFFFFF0
00000007F0
00000007F0
00000007F0
00000007F0
00000007F0
00000007F0
00000007F0
00000007F0
00000007F0
00000003E0
00000000C0
ENDCHAR
STARTCHAR 00AD
ENCODING 173
SWIDTH 585 0
DWIDTH 39 0
BBX 37 8 1 20
BITMAP
1FFFFFFFE0
7FFFFFFFF8
FFFFFFFFF8
FFFFFFFFF8
FFFFFFFFF8
FFFFFFFFF0
7FFFFFFFF0
1FFFFFFF80
ENDCHAR
STARTCHAR 00AE
ENCODING 174
SWIDTH 795 0
DWIDTH 53 0
BBX 46 46 4 7
BITMAP
00007FFC0000
0007FFFFC000
001FFFFFF000
007FFFFFFC00
01FFFFFFFE00
03FFC01FFF00
07FE0001FF80
0FF800007F80
0FF000001FC0
1FE000000FE0
1FC1FFC007E0
3F83FFF807E0
3F03FFFC03F0
7F03FFFE03F0
7E03E0FE01F8
7E03E03F01F8
7E03E01F01F8
FC03E01F00F8
FC03E03F00FC
FC03FFFE00FC
FC03FFFE00FC
FC03FFFC00FC
FC03FFF000FC
FC03FFC000FC
FC03F7E000FC
FC03F3F000FC
FC03F3F800FC
FC03F1FC00FC
7E03F0FC01FC
7E03F0FE01F8
7E03F07F01F8
3F03F03F03F8
3F03F01F83F0
3F83F01F87F0
1F81E00787F0
1FC000000FE0
0FE000001FC0
07F800003FC0
07FC0000FF80
03FFC00FFF00
01FFFFFFFE00
00FFFFFFFC00
007FFFFFF000
001FFFFFC000
0007FFFF0000
00007FF00000
ENDCHAR
STARTCHAR 00AF
ENCODING 175
SWIDTH 495 0
DWIDTH 33 0
BBX 23 6 5 46
BITMAP
7FFFFC
FFFFFE
FFFFFE
FFFFFE
FFFFFE
7FFFF8
ENDCHAR
STARTCHAR 00B0
ENCODING 176
SWIDTH 375 0
DWIDTH 25 0
BBX 21 22 2 28
BITMAP
01FC00
07FF00
0FFF80
1FFFC0
3FFFE0
7FFFF0
7F8FF0
FE03F0
FE03F8
FC01F8
FC01F8
FC01F8
FC01F8
FE03F8
FE03F8
7F8FF0
7FFFF0
3FFFE0
1FFFC0
0FFF80
07FF00
01FC00
ENDCHAR
STARTCHAR 00B1
ENCODING 177
SWIDTH 585 0
DWIDTH 39 0
BBX 37 44 1 0
BITMAP
0000780000
0000FC0000
0000FE0000
0001FE0000
0001FE0000
0001FE0000
0001FE0000
0001FE0000
0001FE0000
0001FE0000
0001FE0000
0001FE0000
0001FE0000
0001FFFFE0
3FFFFFFFF0
FFFFFFFFF8
FFFFFFFFF8
FFFFFFFFF8
FFFFFFFFF0
7FFFFFFFE0
3FFFFF0000
0001FE0000
0001FE0000
0001FE0000
0001FE0000
0001FE0000
0001FE0000
0001FE0000
0001FE0000
0001FE0000
0001FE0000
0000FC0000
0000780000
0000000000
0000000000
0000000000
0000000000
3FFFFFFFF0
FFFFFFFFF8
FFFFFFFFF8
FFFFFFFFF8
FFFFFFFFF8
7FFFFFFFF0
1FFFFFFFC0
ENDCHAR
STARTCHAR 00B2
ENCODING 178
SWIDTH 315 0
DWIDTH 21 0
BBX 19 23 1 27
BITMAP
03F800
0FFE00
3FFF00
7FFF80
7FFFC0
FE3FC0
F81FC0
701FC0
001FC0
003F80
003F80
00FF00
01FF00
03FE00
07FC00
0FF000
1FE000
3F8000
3FFFC0
7FFFE0
7FFFE0
7FFFE0
3FFFC0
ENDCHAR
STARTCHAR 00B3
ENCODING 179
SWIDTH 300 0
DWIDTH 20 0
BBX 17 24 1 26
BITMAP
07F000
1FFC00
3FFE00
7FFE00
FFFF00
FC7F00
703F00
003F00
003F00
007E00
0FFE00
1FFC00
1FFC00
0FFF00
003F00
001F80
001F80
001F80
703F80
FFFF80
FFFF00
7FFE00
3FFC00
0FF000
ENDCHAR
STARTCHAR 00B4
ENCODING 180
SWIDTH 495 0
DWIDTH 33 0
BBX 14 11 11 44
BITMAP
0070
01F8
03FC
07FC
1FFC
3FF8
7FE0
FF80
FE00
FC00
7000
ENDCHAR
STARTCHAR 00B5
ENCODING 181
SWIDTH 585 0
DWIDTH 39 0
BBX 34 53 2 -13
BITMAP
3E00000E00
7F00003F00
7F80003F80
FF80007F80
7FC0007FC0
7FC0007FC0
7FC0007FC0
7FC0007FC0
7FC0007FC0
7FC0007FC0
7FC0007FC0
7FC0007FC0
7FC0007FC0
7FC0007FC0
7FC0007FC0
7FC0007FC0
7FC0007FC0
7FC0007FC0
7FC0007FC0
7FC0007FC0
7FC0007FC0
7FC0007F80
7FC0007F80
7FC0007F80
7FC0007F80
7FC000FF80
7FC000FF80
7FC000FF80
7FC001FF80
7FE001FF80
7FF003FF80
7FF807FF80
7FFE0FFF80
7FFFFFFF80
7FFFFFFF80
7FFFFFFF80
7FFFFFFF80
7FFFFE7F80
7FDFFC7F80
7FCFF83F00
7FC3E03E00
7FC0000000
7FC0000000
7FC0000000
7FC0000000
7FC0000000
7FC0000000
7F80000000
3F80000000
3F80000000
3F80000000
1F80000000
0E00000000
ENDCHAR
STARTCHAR 00B6
ENCODING 182
SWIDTH 555 0
DWIDTH 37 0
BBX 35 51 1 -1
BITMAP
007FFFFE00
03FFFFFFC0
07FFFFFFE0
1FFFFFFFE0
1FFFFFFFE0
3FFFFFFFE0
7FFFFFFFC0
7FFFE1FC00
7FFFE1FC00
FFFFE1FC00
FFFFE1FC00
FFFFE1FC00
FFFFE1FC00
FFFFE1FC00
FFFFE1FC00
7FFFE1FC00
7FFFE1FC00
7FFFE1FC00
3FFFE1FC00
3FFFE1FC00
1FFFE1FC00
0FFFE1FC00
07FFE1FC00
01FFE1FC00
001FE1FC00
000FE1FC00
000FE1FC00
000FE1FC00
000FE1FC00
000FE1FC00
000FE1FC00
000FE1FC00
000FE1FC00
000FE1FC00
000FE1FC00
000FE1FC00
000FE1FC00
000FE1FC00
000FE1FC00
000FE1FC00
000FE1FC00
000FE1FC00
000FE1FC00
000FE1FC00
000FE1FC00
000FE1FC00
000FE1FC00
000FE1FC00
000FE1F800
0007C1F800
000000F000
ENDCHAR
STARTCHAR 00B7
ENCODING 183
SWIDTH 300 0
DWIDTH 20 0
BBX 11 11 5 20
BITMAP
1E00
3F80
7FC0
7FE0
FFE0
FFE0
FFE0
FFE0
7FC0
3F80
1F00
ENDCHAR
STARTCHAR 00B8
ENCODING 184
SWIDTH 495 0
DWIDTH 33 0
BBX 15 13 9 -12
BITMAP
0380
0380
0380
03E0
03F8
03FC
007E
003E
703E
FFFE
FFFC
7FF8
1FF0
ENDCHAR
STARTCHAR 00B9
ENCODING 185
SWIDTH 300 0
DWIDTH 20 0
BBX 12 24 2 26
BITMAP
01E0
07F0
3FF0
FFF0
FFF0
FFF0
FFF0
F3F0
03F0
03F0
03F0
03F0
03F0
03F0
03F0
03F0
03F0
03F0
03F0
03F0
03F0
03F0
03F0
01E0
ENDCHAR
STARTCHAR 00BA
ENCODING 186
SWIDTH 420 0
DWIDTH 28 0
BBX 23 34 3 15
BITMAP
01FC00
07FF80
0FFFC0
1FFFE0
3FFFF0
7F8FF0
7F07F8
7E03F8
FE03F8
FE01FC
FE01FC
FE01FC
FE01FC
FE01FC
FE01FC
FF01FC
FF01FC
7F83F8
7FC7F8
7FFFF0
3FFFF0
1FFFE0
0FFFC0
07FF80
00FE00
000000
000000
000000
000000
3FFFFC
7FFFFE
7FFFFE
7FFFFE
3FFFFC
ENDCHAR
STARTCHAR 00BB
ENCODING 187
SWIDTH 600 0
DWIDTH 40 0
BBX 37 34 1 3
BITMAP
1E001E0000
3F003F0000
3F803F8000
3FC03FC000
3FE03FE000
1FF01FF000
0FF80FF800
0FFC0FFC00
07FE07FE00
03FF03FF00
01FF81FF80
00FFC0FFC0
007FE07FE0
003FF03FF0
001FF01FF0
001FF80FF8
000FF807F8
000FF807F8
001FF80FF8
003FF01FF8
007FF03FF0
00FFE07FE0
01FFC0FFC0
03FF81FF80
07FF03FF00
0FFE0FFE00
1FFC1FFC00
3FF83FF800
7FE07FF000
FFC07FE000
FF80FF8000
FF00FF0000
FC00FE0000
7800780000
ENDCHAR
STARTCHAR 00BC
ENCODING 188
SWIDTH 600 0
DWIDTH 40 0
BBX 37 50 2 0
BITMAP
01E0000070
0FF00000F0
3FF00001F0
FFF00003F0
FFF00003E0
FFF00007E0
FFF00007C0
F3F0000FC0
03F0001F80
03F0003F80
03F0003F00
03F0007E00
03F000FE00
03F000FC00
03F001F800
03F003F800
03F003F000
03F007E000
03F00FE000
03F01FC000
03F01F8000
03F03F0000
03F07F0000
01E07E0000
0000FC0000
0001FC0000
0001F80F80
0003F01FC0
0007E01FC0
0007E03FC0
000FC07FC0
001F80FFC0
001F80FFC0
003F01FFC0
007E03F7C0
007E07F7C0
00FC07E7C0
00F80FC7C0
01F80F87C0
03F01F87C0
03E01F07C0
07E03FFFF0
07C03FFFF8
0FC03FFFF8
1F803FFFF8
1F001FFFF0
1F000007C0
3E000007C0
3C000007C0
1800000380
ENDCHAR
STARTCHAR 00BD
ENCODING 189
SWIDTH 600 0
DWIDTH 40 0
BBX 38 50 1 0
BITMAP
01E00000E0
0FF00001E0
3FF00003E0
FFF00007E0
FFF0000FC0
FFF0001F80
FFF0001F80
F3F0003F00
03F0007F00
03F000FE00
03F000FC00
03F001FC00
03F003F800
03F003F000
03F007F000
03F00FE000
03F00FC000
03F01F8000
03F03F8000
03F03F0000
03F07E0000
03F0FE0000
03F1FC0000
01E1F80000
0003F80000
0007F00000
0007E00000
000FE03F80
001FC1FFE0
001F83FFF0
003F87FFF8
007F0FFFFC
007E0FE3FC
00FE0F81FC
01FC0601FC
01F80001FC
03F80003F8
07F00007F8
07E0000FF0
0FE0001FF0
0FC0003FE0
1FC000FFC0
3F8001FF00
3F0003FE00
7F0007F800
7E0007FFF8
FC000FFFFC
F8000FFFFC
F0000FFFFC
600007FFF8
ENDCHAR
STARTCHAR 00BE
ENCODING 190
SWIDTH 600 0
DWIDTH 40 0
BBX 38 50 1 0
BITMAP
07F000001C
1FFC00003C
3FFE00007C
7FFE0000F8
FFFF0001F8
FC7F0003F0
703F0007F0
003F0007E0
003F000FC0
007E001FC0
0FFE001F80
1FFC003F00
1FFC007F00
0FFF007E00
003F00FC00
001F81FC00
001F81F800
001F83F000
703F87F000
FFFF87E000
FFFF0FC000
7FFE1FC000
3FFC1F8000
0FF03F0000
00007F0000
00007E0000
0000FC0780
0001F81FC0
0001F81FC0
0003F03FC0
0007E07FC0
0007E0FFC0
000FC0FFC0
001F81FFC0
001F83FFC0
003F03F7C0
007E07E7C0
007E0FC7C0
00FC0FC7C0
00FC1F87C0
01F81F07C0
03F03FFFF0
03F03FFFF8
07E03FFFF8
07E03FFFF8
0FC01FFFF0
0F800007C0
1F800007C0
0F000007C0
0E00000380
ENDCHAR
STARTCHAR 00BF
ENCODING 191
SWIDTH 495 0
DWIDTH 33 0
BBX 30 51 2 -1
BITMAP
001F0000
003F8000
007FC000
00FFE000
00FFE000
00FFE000
00FFE000
00FFE000
007FC000
003F8000
001F0000
00000000
00000000
000E0000
001F0000
003F8000
003F8000
003FC000
003FC000
003FC000
003FC000
003FC000
003FC000
003FC000
003FC000
007FC000
01FFC000
07FFC000
0FFF8000
1FFF8000
3FFE0000
3FFC0000
7FF80000
7FE00000
FFC00000
FFC00000
FF8000F0
FF8001F8
FF8003F8
FF8003FC
FF8007F8
FFC007F8
7FE00FF8
7FF83FF8
7FFFFFF0
3FFFFFE0
1FFFFFE0
0FFFFFC0
07FFFF00
01FFFE00
003FF000
ENDCHAR
STARTCHAR 00C0
ENCODING 192
SWIDTH 525 0
DWIDTH 35 0
BBX 34 65 2 -1
BITMAP
0300000000
07C0000000
0FF0000000
0FF8000000
0FFE000000
07FF000000
01FF800000
00FFC00000
003FC00000
000FC00000
0003800000
0000000000
0000000000
0000000000
003FE00000
007FE00000
00FFF00000
00FFF00000
00FFF80000
00FFF80000
01FFFC0000
01FFFC0000
01FFFC0000
01FFFC0000
01F9FE0000
01F9FE0000
03F9FE0000
03F9FE0000
03F8FF0000
03F8FF0000
03F0FF0000
07F0FF0000
07F07F0000
07F07F8000
07F07F8000
07F07F8000
07F07FC000
07F03FC000
0FF03FC000
3FF03FC000
7FFC3FE000
7FFFFFE000
7FFFFFE000
3FFFFFF000
0FFFFFF000
1FFFFFF000
1FF0FFF800
1FE00FF800
1FE00FF800
1FE00FFC00
3FE00FFC00
3FE007FE00
3FE007FE00
3FC007FE00
3FC007FF00
7FC007FF00
7FC003FF80
7FC003FF80
7FC003FF80
7F8003FFC0
FF8001FFC0
FF8001FFC0
FF8001FFC0
FF8000FFC0
FF00003F00
ENDCHAR
STARTCHAR 00C1
ENCODING 193
SWIDTH 540 0
DWIDTH 36 0
BBX 35 65 2 -1
BITMAP
0000700000
0000F80000
0003FC0000
0007FC0000
001FFC0000
003FF80000
007FE00000
00FF800000
00FE000000
00FC000000
0070000000
0000000000
0000000000
0000000000
003FE00000
007FF00000
007FF80000
007FF80000
00FFF80000
00FFFC0000
00FFFC0000
00FFFC0000
01FFFE0000
01FDFE0000
01F9FE0000
01F9FE0000
01F9FF0000
01F8FF0000
03F8FF0000
03F8FF0000
03F0FF8000
03F07F8000
03F07F8000
03F07F8000
07F07FC000
07F03FC000
07F03FC000
07F03FC000
07F03FE000
3FF01FE000
7FFC1FE000
7FFFFFF000
7FFFFFF000
1FFFFFF000
0FFFFFF800
0FFFFFF800
0FF07FF800
1FE00FFC00
1FE00FFC00
1FE007FC00
1FE007FE00
3FE007FE00
3FE007FF00
3FE003FF00
3FC003FF00
3FC003FF80
7FC003FF80
7FC001FF80
7FC001FFC0
7FC001FFC0
FF8001FFC0
FF8001FFE0
FF8000FFE0
FF8000FFC0
FF00003F00
ENDCHAR
STARTCHAR 00C2
ENCODING 194
SWIDTH 525 0
DWIDTH 35 0
BBX 34 65 2 -1
BITMAP
000E000000
003F800000
00FFC00000
01FFE00000
03FFF00000
07FFF80000
0FFFFC0000
1FF1FE0000
1FE0FE0000
1F807E0000
0E001C0000
0000000000
0000000000
0000000000
003FE00000
007FE00000
007FF00000
00FFF00000
00FFF80000
00FFF80000
00FFF80000
01FFFC0000
01FFFC0000
01FFFC0000
01F9FC0000
01F9FE0000
03F9FE0000
03F9FE0000
03F8FE0000
03F8FE0000
03F0FF0000
03F0FF0000
07F07F0000
07F07F0000
07F07F8000
07F07F8000
07F03F8000
07F03F8000
07F03FC000
3FF03FC000
7FFC3FC000
7FFFFFE000
7FFFFFE000
3FFFFFE000
0FFFFFF000
0FFFFFF000
1FF0FFF000
1FE00FF800
1FE00FF800
1FE00FFC00
3FE00FFC00
3FE00FFC00
3FE007FE00
3FE007FE00
3FC007FE00
7FC007FF00
7FC003FF00
7FC003FF80
7FC003FF80
7F8003FF80
FF8003FFC0
FF8001FFC0
FF8001FFC0
FF8001FF80
FF00007E00
ENDCHAR
STARTCHAR 00C3
ENCODING 195
SWIDTH 540 0
DWIDTH 36 0
BBX 35 65 2 -1
BITMAP
0000070000
03F00F8000
0FFE1F8000
1FFFFF8000
1FFFFF8000
3FFFFF8000
3FFFFF0000
3FFFFF0000
3F8FFE0000
3E00F80000
1C00000000
0000000000
0000000000
0000000000
003FE00000
007FF00000
007FF80000
00FFF80000
00FFFC0000
00FFFC0000
00FFFC0000
01FFFE0000
01FFFE0000
01FDFE0000
01F9FE0000
01F9FF0000
03F9FF0000
03F8FF0000
03F8FF0000
03F8FF8000
03F87F8000
03F07F8000
07F07F8000
07F07FC000
07F03FC000
07F03FC000
07F03FC000
07F03FE000
07F01FE000
3FF01FE000
7FFC1FF000
7FFFFFF000
7FFFFFF000
3FFFFFF800
0FFFFFF800
0FFFFFF800
1FF07FFC00
1FE00FFC00
1FE007FC00
1FE007FE00
3FE007FE00
3FE007FE00
3FE003FF00
3FE003FF00
3FC003FF80
7FC003FF80
7FC003FF80
7FC001FFC0
7FC001FFC0
7FC001FFC0
FF8001FFE0
FF8000FFE0
FF8000FFE0
FF8000FFE0
FF00001F80
ENDCHAR
STARTCHAR 00C4
ENCODING 196
SWIDTH 540 0
DWIDTH 36 0
BBX 35 64 2 -1
BITMAP
0F003C0000
1F807F0000
3FC0FF8000
3FC0FF8000
3FC0FF8000
3FC0FF8000
3FC0FF0000
1F807F0000
0F003C0000
0000000000
0000000000
0000000000
0000000000
003FE00000
007FF00000
00FFF00000
00FFF80000
00FFF80000
00FFFC0000
01FFFC0000
01FFFC0000
01FFFC0000
01FFFE0000
01F9FE0000
01F9FE0000
03F9FE0000
03F9FF0000
03F8FF0000
03F8FF0000
03F0FF0000
03F0FF8000
03F07F8000
07F07F8000
07F07F8000
07F07FC000
07F03FC000
07F03FC000
07F03FC000
3FF03FE000
7FFC1FE000
7FFFFFE000
7FFFFFF000
1FFFFFF000
0FFFFFF000
0FFFFFF800
0FE0FFF800
1FE00FF800
1FE00FFC00
1FE00FFC00
1FE007FE00
3FE007FE00
3FC007FE00
3FC007FF00
3FC003FF00
3FC003FF00
7FC003FF80
7FC003FF80
7F8003FFC0
7F8001FFC0
7F8001FFC0
FF8001FFC0
FF8001FFE0
FF0000FFC0
FF00003F00
ENDCHAR
STARTCHAR 00C5
ENCODING 197
SWIDTH 510 0
DWIDTH 34 0
BBX 34 70 1 -1
BITMAP
000F800000
003FE00000
007FF00000
00FFF80000
00FFF80000
01F8FC0000
01F07C0000
01F07C0000
01F07C0000
01F07C0000
01F07C0000
01F8FC0000
00FFF80000
00FFF80000
007FF00000
003FE00000
000F800000
0000000000
0000000000
003FE00000
007FF00000
007FF00000
007FF00000
00FFF80000
00FFF80000
00FFFC0000
00FFFC0000
00FFFC0000
01FFFC0000
01F9FE0000
01F9FE0000
01F9FE0000
01F9FE0000
01F8FF0000
03F8FF0000
03F0FF0000
03F0FF0000
03F07F0000
03F07F8000
03F07F8000
07F07F8000
07F07F8000
07F03FC000
07F03FC000
3FF03FC000
7FFC3FE000
7FFFFFE000
7FFFFFE000
1FFFFFF000
0FFFFFF000
0FFFFFF000
0FF0FFF800
1FF00FF800
1FF00FF800
1FE00FFC00
1FE00FFC00
1FE007FE00
3FE007FE00
3FE007FE00
3FE007FF00
3FE007FF00
7FC003FF00
7FC003FF80
7FC003FF80
7FC003FFC0
FFC001FFC0
FFC001FFC0
FF8001FFC0
FF8001FFC0
FF00003F00
ENDCHAR
STARTCHAR 00C6
ENCODING 198
SWIDTH 810 0
DWIDTH 54 0
BBX 53 50 -1 0
BITMAP
00003FFFFFFFC0
00007FFFFFFFE0
0000FFFFFFFFF0
0000FFFFFFFFF0
0001FFFFFFFFF0
0001FFFFFFFFF0
0001FFFFFFFFC0
0003FE7F800000
0003FC7F800000
0007FC7F800000
0007FC7F800000
0007F87F800000
000FF87F800000
000FF87F800000
000FF07F800000
001FF07F800000
001FF07F800000
001FE07F800000
003FE07F800000
003FE07F800000
003FC07FFFFE00
007FC07FFFFF00
007FC07FFFFF00
007F80FFFFFF00
00FFFFFFFFFF00
00FFFFFFFFFE00
00FFFFFFFFF000
01FFFFFF800000
01FFFFFF800000
01FFFFFF800000
03FFFFFF800000
03FE00FF800000
03FE00FF800000
07FE00FF800000
07FC00FF800000
07FC00FF800000
0FFC00FF800000
0FFC00FF800000
0FF800FF800000
1FF800FF800000
1FF800FF800000
1FF000FF8001E0
3FF000FFF81FF0
3FF000FFFFFFF0
3FE000FFFFFFF8
7FE000FFFFFFF8
7FC000FFFFFFF8
7FC000FFFFFFF0
FFC000FFFFFFE0
FF80003FFFFF00
ENDCHAR
STARTCHAR 00C7
ENCODING 199
SWIDTH 555 0
DWIDTH 37 0
BBX 35 62 1 -12
BITMAP
0000FC0000
0007FF8000
001FFFE000
003FFFF800
00FFFFFE00
01FFFFFF00
03FFFFFF80
07FFFFFF80
0FFFFFFF80
0FFF83FF80
1FFE007F00
1FFC000C00
3FF8000000
3FF0000000
3FF0000000
7FE0000000
7FE0000000
7FE0000000
7FE0000000
7FC0000000
FFC0000000
FFC0000000
FFC0000000
FFC0000000
FFC0000000
FFC0000000
FFC0000000
FFC0000000
FFC0000000
FFE0000000
FFE0000000
7FE0000000
7FE0000000
7FE0000000
7FF0000000
7FF0000000
7FF8000000
3FFC000000
3FFE0001C0
3FFF0007E0
1FFF801FE0
1FFFC03FE0
0FFFF0FFE0
07FFFFFFE0
07FFFFFFC0
03FFFFFF80
01FFFFFF80
007FFFFE00
003FFFFC00
000FFFF000
0003FF0000
0000380000
0000380000
00003F0000
00003F8000
00000FC000
000007C000
000F07C000
001FFFC000
001FFF8000
000FFF0000
0001FC0000
ENDCHAR
STARTCHAR 00C8
ENCODING 200
SWIDTH 540 0
DWIDTH 36 0
BBX 31 64 3 -1
BITMAP
01C00000
03F00000
07FC0000
07FE0000
07FF0000
03FFC000
00FFE000
003FF000
000FF000
0003F000
0000E000
00000000
00000000
00000000
20000000
7FFFFFF8
FFFFFFFC
FFFFFFFE
FFFFFFFE
FFFFFFFE
FFFFFFFE
7FFFFFFC
7FC00000
7FC00000
7FC00000
7FC00000
7FC00000
7FC00000
7FC00000
7FC00000
7FC00000
7FC00000
7FC00000
7FE00000
7FFFFF00
7FFFFF80
FFFFFF80
FFFFFF80
FFFFFF80
FFFFFF00
FFFFFC00
7FC00000
7FC00000
7FC00000
7F800000
7F800000
7F800000
7F800000
7F800000
7F800000
7F800000
7F800000
7FC00000
7FC00000
7FC00000
7FC00000
7FC003FC
7FFFFFFE
7FFFFFFE
7FFFFFFE
7FFFFFFE
7FFFFFFE
7FFFFFFC
1FFFFFF8
ENDCHAR
STARTCHAR 00C9
ENCODING 201
SWIDTH 540 0
DWIDTH 36 0
BBX 31 64 3 -1
BITMAP
00001800
00007C00
0001FE00
0003FE00
000FFE00
001FFC00
003FF000
007FC000
007F8000
007E0000
00380000
00000000
00000000
00000000
30000000
7FFFFFF8
FFFFFFFC
FFFFFFFE
FFFFFFFE
FFFFFFFE
FFFFFFFE
7FFFFFFC
7FC00000
7FC00000
7FC00000
7FC00000
7FC00000
7FC00000
7FC00000
7FC00000
7FC00000
7FC00000
7FC00000
7FE00000
7FFFFF00
7FFFFF80
FFFFFF80
FFFFFF80
FFFFFF80
FFFFFF00
FFFFFC00
7FC00000
7FC00000
7FC00000
7F800000
7F800000
7F800000
7F800000
7F800000
7F800000
7F800000
7F800000
7FC00000
7FC00000
7FC00000
7FC00000
7FC003FC
7FFFFFFE
7FFFFFFE
7FFFFFFE
7FFFFFFE
7FFFFFFE
7FFFFFFC
1FFFFFF8
ENDCHAR
STARTCHAR 00CA
ENCODING 202
SWIDTH 540 0
DWIDTH 36 0
BBX 31 64 3 -1
BITMAP
00020000
000FC000
003FF000
00FFF800
01FFFC00
07FFFF00
0FFDFF00
0FF07F80
0FC03F80
07000F00
00000000
00000000
00000000
00000000
20000000
7FFFFFF8
FFFFFFFC
FFFFFFFE
FFFFFFFE
FFFFFFFE
FFFFFFFE
7FFFFFFC
7FC00000
7FC00000
7FC00000
7FC00000
7FC00000
7FC00000
7FC00000
7FC00000
7FC00000
7FC00000
7FC00000
7FE00000
7FFFFF00
7FFFFF80
FFFFFF80
FFFFFF80
FFFFFF80
FFFFFF00
FFFFFC00
7FC00000
7FC00000
7FC00000
7F800000
7F800000
7F800000
7F800000
7F800000
7F800000
7F800000
7F800000
7FC00000
7FC00000
7FC00000
7FC00000
7FC003FC
7FFFFFFE
7FFFFFFE
7FFFFFFE
7FFFFFFE
7FFFFFFE
7FFFFFFC
1FFFFFF8
ENDCHAR
STARTCHAR 00CB
ENCODING 203
SWIDTH 540 0
DWIDTH 36 0
BBX 31 63 3 -1
BITMAP
07801E00
0FC03F80
1FE07FC0
1FE07FC0
1FE07FC0
1FE07FC0
1FE07F80
0FC03F80
07801E00
00000000
00000000
00000000
00000000
30000000
7FFFFFF8
FFFFFFFC
FFFFFFFE
FFFFFFFE
FFFFFFFE
FFFFFFFE
7FFFFFFC
7FC00000
7FC00000
7FC00000
7FC00000
7FC00000
7FC00000
7FC00000
7FC00000
7FC00000
7FC00000
7FC00000
7FE00000
7FFFFF00
7FFFFF80
FFFFFF80
FFFFFF80
FFFFFF80
FFFFFF00
FFFFFC00
7FC00000
7FC00000
7FC00000
7F800000
7F800000
7F800000
7F800000
7F800000
7F800000
7F800000
7F800000
7F800000
7FC00000
7FC00000
7FC00000
7FC003F8
7FFFFFFC
7FFFFFFE
7FFFFFFE
7FFFFFFE
7FFFFFFE
7FFFFFFC
1FFFFFF0
ENDCHAR
STARTCHAR 00CC
ENCODING 204
SWIDTH 285 0
DWIDTH 19 0
BBX 14 66 1 -2
BITMAP
3800
7C00
FF00
FF80
FFC0
7FF0
1FF8
0FF8
03FC
00F8
0038
0000
0000
0000
03C0
07F0
07F8
07F8
0FF8
0FF8
0FF8
0FF8
0FF8
0FF8
0FF8
0FF8
0FF8
0FF8
0FF8
0FF8
0FF8
0FF8
0FF8
0FF8
0FF8
0FF8
0FF8
0FF8
0FF8
0FF8
0FF8
0FF8
0FF8
0FF8
0FF8
0FF8
0FF8
0FF8
0FF8
0FF8
0FF8
0FF8
0FF8
0FF8
0FF8
0FF8
0FF8
0FF8
0FF8
0FF8
0FFC
0FFC
0FFC
0FFC
07F8
01F8
ENDCHAR
STARTCHAR 00CD
ENCODING 205
SWIDTH 285 0
DWIDTH 19 0
BBX 14 65 4 -1
BITMAP
0078
01FC
07FC
0FFC
3FF8
7FF0
FFC0
FF00
FC00
7000
0000
0000
0000
1E00
3F80
3FC0
3FC0
7FC0
7FC0
7FC0
7FC0
7FC0
7FC0
7FC0
7FC0
7FC0
7FC0
7FC0
7FC0
7FC0
7FC0
7FC0
7FC0
7FC0
7FC0
7FC0
7FC0
7FC0
7FC0
7FC0
7FC0
7FC0
7FC0
7FC0
7FC0
7FC0
7FC0
7FC0
7FC0
7FC0
7FC0
7FC0
7FC0
7FC0
7FC0
7FC0
7FC0
7FC0
7FC0
7FE0
7FE0
7FE0
7FE0
3FC0
0FC0
ENDCHAR
STARTCHAR 00CE
ENCODING 206
SWIDTH 285 0
DWIDTH 19 0
BBX 20 65 0 -1
BITMAP
00F000
01FC00
07FE00
0FFF80
3FFFC0
7FFFE0
FFBFF0
FF0FF0
FC07F0
7001E0
000000
000000
000000
01E000
03F800
03FC00
03FC00
07FC00
07FC00
07FC00
07FC00
07FC00
07FC00
07FC00
07FC00
07FC00
07FC00
07FC00
07FC00
07FC00
07FC00
07FC00
07FC00
07FC00
07FC00
07FC00
07FC00
07FC00
07FC00
07FC00
07FC00
07FC00
07FC00
07FC00
07FC00
07FC00
07FC00
07FC00
07FC00
07FC00
07FC00
07FC00
07FC00
07FC00
07FC00
07FC00
07FC00
07FC00
07FC00
07FE00
07FE00
07FE00
07FE00
03FC00
00FC00
ENDCHAR
STARTCHAR 00CF
ENCODING 207
SWIDTH 285 0
DWIDTH 19 0
BBX 23 65 -2 -2
BITMAP
3C00F0
7E01FC
FF03FE
FF03FE
FF03FE
FF03FE
FF03FC
7E01FC
3C00F0
000000
000000
000000
000000
00F800
00FE00
01FF00
01FF00
01FF00
01FF00
01FF00
01FF00
01FF00
01FF00
01FF00
01FF00
01FF00
01FF00
01FF00
01FF00
01FF00
01FF00
01FF00
01FF00
01FF00
01FF00
01FF00
01FF00
01FF00
01FF00
01FF00
01FF00
01FF00
01FF00
01FF00
01FF00
01FF00
01FF00
01FF00
01FF00
01FF00
01FF00
01FF00
01FF00
01FF00
01FF00
01FF00
01FF00
01FF00
01FF00
01FF80
01FF80
01FF80
01FF80
00FF00
003F00
ENDCHAR
STARTCHAR 00D0
ENCODING 208
SWIDTH 585 0
DWIDTH 39 0
BBX 36 50 1 -1
BITMAP
01FF000000
07FFE00000
07FFFC0000
07FFFF0000
07FFFFC000
07FFFFF000
07FFFFF800
07F87FFC00
07F81FFE00
07F807FE00
07F803FF00
07F801FF00
07F800FF00
07F8007F80
07F8003F80
07F8003F80
07F8003FC0
07F8003FC0
07F8001FC0
07F8001FE0
07FFC01FE0
3FFFF01FE0
FFFFF81FE0
FFFFF81FE0
FFFFF81FF0
FFFFF81FF0
3FFFC01FF0
07F8001FF0
07F8001FF0
07F8001FF0
07FC001FF0
07FC003FF0
07FC003FF0
07FC003FF0
07FC003FE0
07FC007FE0
07FC007FE0
07FC00FFC0
07FC00FFC0
07FC01FF80
07FC01FF80
07FC03FF00
07FE0FFE00
07FFFFFC00
07FFFFF800
07FFFFF000
07FFFFC000
07FFFF0000
07FFFC0000
01FFF00000
ENDCHAR
STARTCHAR 00D1
ENCODING 209
SWIDTH 630 0
DWIDTH 42 0
BBX 37 65 2 -1
BITMAP
0000001C00
000FE03E00
001FFC7E00
003FFFFE00
007FFFFE00
00FFFFFE00
00FFFFFC00
00FFFFFC00
00FE1FF800
00FC01F000
0078000000
0000000000
0780000000
3FC00003E0
7FC0001FF0
FFE0001FF8
FFE0001FF8
FFE0001FF8
7FF0001FF8
7FF0001FF8
3FF0001FF0
3FF8001FF0
3FF8001FF0
3FFC001FF0
3FFC001FF0
3FFE001FF0
3FFE001FF0
3FFF001FF0
3FFF001FF0
3FFF801FF0
3FFF801FF0
3FFFC01FF0
3F7FC01FF0
3FBFE01FF0
3FBFE01FF0
3F9FF01FF0
3F9FF01FF0
3F8FF81FF0
3F8FF81FF0
3F87FC1FF0
3FC7FC1FF0
3FC3FE1FF0
3FC3FE1FF0
3FC1FF1FF0
3FC1FF1FF0
3FC0FF9FF0
3FC0FF9FF0
3FC07FDFF0
3FC07FDFF0
3FC03FDFF0
3FC03FFFF0
7FC01FFFF0
7FC01FFFF0
7FC00FFFF0
7FC007FFF0
7FC007FFF0
7FC003FFF0
7FC001FFF0
7FC001FFF0
7FC000FFF0
7F80007FF0
7F80003FF0
7F80001FE0
3F00000FE0
1E000003C0
ENDCHAR
STARTCHAR 00D2
ENCODING 210
SWIDTH 645 0
DWIDTH 43 0
BBX 39 65 2 -1
BITMAP
0007000000
000FC00000
001FE00000
001FF00000
001FFC0000
000FFE0000
0003FF0000
0001FF8000
00007F8000
00001F8000
0000070000
0000000000
0000000000
0000000000
0001FE0000
000FFFE000
003FFFF800
007FFFFE00
00FFFFFF00
01FFFFFF80
03FFFFFFC0
07FF83FFE0
0FFC00FFE0
1FF8003FF0
1FF0003FF0
3FF0001FF8
3FE0001FF8
3FE0000FF8
7FC0000FF8
7FC0000FFC
7F80000FFC
7F800007FC
7F800007FC
FF800007FC
FF000007FE
FF000007FE
FF000003FE
FF000003FE
FF000003FE
FF000003FE
FF000003FE
FF000003FE
FF800003FE
FF800003FE
FF800003FE
7F800003FE
7FC00003FE
7FC00003FE
7FC00003FE
3FE00007FC
3FE00007FC
3FF00007FC
1FF80007F8
1FF8000FF8
0FFC001FF0
0FFE001FF0
07FF803FE0
03FFE0FFC0
03FFFFFFC0
00FFFFFF80
007FFFFF00
003FFFFE00
000FFFFC00
0001FFF000
00003FC000
ENDCHAR
STARTCHAR 00D3
ENCODING 211
SWIDTH 645 0
DWIDTH 43 0
BBX 39 65 2 -1
BITMAP
0000008000
000003E000
00000FF000
00001FF000
00003FF000
0000FFE000
0001FF8000
0003FE0000
0003FC0000
0003F00000
0001C00000
0000000000
0000000000
0000000000
0001FE0000
000FFFE000
003FFFF800
007FFFFE00
00FFFFFF00
01FFFFFF80
03FFFFFFC0
07FF83FFE0
0FFC00FFE0
1FF8003FF0
1FF0003FF0
3FF0001FF8
3FE0001FF8
3FE0000FF8
7FC0000FF8
7FC0000FFC
7F80000FFC
7F800007FC
7F800007FC
FF800007FC
FF000007FE
FF000007FE
FF000003FE
FF000003FE
FF000003FE
FF000003FE
FF000003FE
FF000003FE
FF800003FE
FF800003FE
FF800003FE
7F800003FE
7FC00003FE
7FC00003FE
7FC00003FE
3FE00007FC
3FE00007FC
3FF00007FC
1FF80007F8
1FF8000FF8
0FFC001FF0
0FFE001FF0
07FF803FE0
03FFE0FFC0
03FFFFFFC0
00FFFFFF80
007FFFFF00
003FFFFE00
000FFFFC00
0001FFF000
00003FC000
ENDCHAR
STARTCHAR 00D4
ENCODING 212
SWIDTH 645 0
DWIDTH 43 0
BBX 39 64 2 0
BITMAP
00003E0000
0000FF0000
0001FFC000
0007FFE000
000FFFF000
001FFFF800
003FE7FC00
003FC3FC00
003F00FC00
001C007800
0000000000
0000000000
0000000000
0001FE0000
000FFFE000
003FFFF800
007FFFFE00
00FFFFFF80
01FFFFFFC0
03FFFFFFC0
07FF83FFE0
0FFC00FFE0
1FF8003FF0
1FF0003FF0
3FF0001FF8
3FE0001FF8
3FE0000FF8
7FC0000FF8
7FC0000FFC
7F80000FFC
7F800007FC
7F800007FC
FF800007FC
FF000007FE
FF000007FE
FF000003FE
FF000003FE
FF000003FE
FF000003FE
FF000003FE
FF000003FE
FF800003FE
FF800003FE
FF800003FE
7F800003FE
7FC00003FE
7FC00003FE
7FC00003FE
3FE00007FC
3FE00007FC
3FF00007FC
1FF80007F8
1FF8000FF8
0FFC001FF0
0FFE001FF0
07FF803FE0
03FFE0FFC0
03FFFFFFC0
00FFFFFF80
007FFFFF00
003FFFFE00
000FFFFC00
0001FFF000
00003FC000
ENDCHAR
STARTCHAR 00D5
ENCODING 213
SWIDTH 645 0
DWIDTH 43 0
BBX 39 65 2 0
BITMAP
0000001C00
000F803E00
003FF07E00
003FFFFE00
007FFFFE00
007FFFFC00
00FFFFFC00
00FFFFF800
00FC3FF800
00F803E000
0070000000
0000000000
0000000000
0000000000
0003FE0000
000FFFE000
003FFFF800
007FFFFE00
00FFFFFF80
01FFFFFFC0
03FFFFFFE0
07FF83FFE0
0FFC00FFF0
1FF8003FF0
1FF0003FF0
3FF0001FF8
3FE0001FF8
3FE0000FF8
7FC0000FF8
7FC0000FFC
7F80000FFC
7F800007FC
7F800007FC
FF800007FC
FF000007FE
FF000007FE
FF000003FE
FF000003FE
FF000003FE
FF000003FE
FF000003FE
FF000003FE
FF800003FE
FF800003FE
FF800003FE
7F800003FE
7FC00003FE
7FC00003FE
7FC00003FE
3FE00007FC
3FE00007FC
3FF00007FC
1FF80007F8
1FF8000FF8
0FFC001FF0
0FFE001FF0
07FF803FE0
03FFE0FFC0
03FFFFFFC0
00FFFFFF80
007FFFFF00
003FFFFE00
000FFFFC00
0001FFF000
00003FC000
ENDCHAR
STARTCHAR 00D6
ENCODING 214
SWIDTH 645 0
DWIDTH 43 0
BBX 39 64 2 -1
BITMAP
003C00F000
007E01FC00
00FF03FE00
00FF03FE00
00FF03FE00
00FF03FE00
00FF03FC00
007E01FC00
003C00F000
0000000000
0000000000
0000000000
0000000000
0003FE0000
000FFFE000
003FFFF800
007FFFFE00
00FFFFFF00
01FFFFFF80
03FFFFFFC0
07FF83FFE0
0FFC00FFE0
1FF8003FF0
1FF0003FF0
3FF0001FF8
3FE0001FF8
3FE0000FF8
7FC0000FF8
7FC0000FFC
7F80000FFC
7F800007FC
7F800007FC
FF800007FC
FF000007FE
FF000007FE
FF000003FE
FF000003FE
FF000003FE
FF000003FE
FF000003FE
FF000003FE
FF800003FE
FF800003FE
FF800003FE
7F800003FE
7FC00003FE
7FC00003FE
7FC00003FE
3FE00007FC
3FE00007FC
3FF00007FC
1FF80007F8
1FF8000FF8
0FFC001FF0
0FFE001FF0
07FF803FE0
03FFE0FFC0
01FFFFFFC0
00FFFFFF80
007FFFFF00
003FFFFE00
000FFFFC00
0001FFF000
00003FC000
ENDCHAR
STARTCHAR 00D7
ENCODING 215
SWIDTH 600 0
DWIDTH 40 0
BBX 34 35 3 7
BITMAP
3800000700
7C00001F80
FE00003FC0
FF00007FC0
FF8000FFC0
7FC001FF80
7FE003FF80
3FF007FF00
1FF807FE00
1FFC0FFC00
07FE1FF800
03FF3FF000
01FFFFE000
00FFFFC000
007FFFC000
003FFF8000
001FFF0000
000FFE0000
001FFF0000
003FFF8000
007FFFC000
00FFFFE000
01FFFFE000
03FFBFF000
07FF1FF800
0FFE0FFC00
1FFC07FE00
3FF803FF00
7FF001FF80
7FE001FF80
FFC000FFC0
FF80007FC0
FF00003FC0
7E00001F80
3800000700
ENDCHAR
STARTCHAR 00D8
ENCODING 216
SWIDTH 660 0
DWIDTH 44 0
BBX 43 51 0 -1
BITMAP
00007F8001C0
0003FFF803C0
000FFFFE07E0
001FFFFF8FE0
003FFFFFDFE0
007FFFFFFFC0
00FFFFFFFFC0
01FFE07FFF80
03FF000FFF00
07FE0007FE00
07FC0003FC00
0FFC0003FE00
0FF80007FE00
0FF8000FFE00
1FF0001FFF00
1FF0003FFF00
1FE0007FFF00
1FE0007FFF00
1FE000FFFF80
3FE001FFFF80
3FC003FEFF80
3FC007FC7F80
3FC00FF87F80
3FC00FF07F80
3FC01FE07F80
3FC03FE07F80
3FC07FC07F80
3FE0FF807F80
3FE0FF007F80
3FE1FE007F80
3FE3FC007F80
1FE7F8007F80
1FEFF8007F80
1FFFF0007F80
1FFFE0007F80
0FFFC000FF80
0FFF8000FF00
07FF0000FF00
07FE0001FE00
07FE0001FE00
0FFF0003FC00
1FFF8007FC00
1FFFE00FF800
3FFFF83FF000
3FFFFFFFF000
7FBFFFFFE000
FF1FFFFFC000
FF07FFFF8000
FE01FFFF0000
FC007FFE0000
70000FF00000
ENDCHAR
STARTCHAR 00D9
ENCODING 217
SWIDTH 600 0
DWIDTH 40 0
BBX 33 66 3 -2
BITMAP
00E0000000
01F8000000
03FC000000
03FE000000
03FF800000
01FFC00000
007FE00000
003FF00000
000FF00000
0003F00000
0000E00000
0000000000
0000000000
000001F000
000003FC00
3F0007FE00
7F8007FE00
FF8007FF00
FF8007FF00
FF8007FF00
FF8003FF00
FF8003FF00
FF8003FF00
7F8003FF00
7F8003FF00
7F8003FF00
7F8003FF00
7F8003FF00
7F8003FF00
7F8003FF00
7F8003FF00
7F8001FF00
7F8001FF00
7F8001FF00
7F8001FF00
7F8001FF00
7F8001FF00
7F8001FF00
7F8001FF00
7F8001FF00
7F8001FF00
7F8001FF00
7F8001FF00
7F8001FF00
7F8001FF00
7F8001FF00
7F8001FF00
7F8001FF00
7F8003FF00
7F8003FF00
7F8003FF00
7F8003FF00
7F8003FF00
7F8007FF00
7FC007FF00
7FC00FFF00
3FE00FFF00
3FE01FFF00
3FF87FFF00
1FFFFFFF00
0FFFFFFF00
0FFFFFFF80
07FFFFFF80
01FFFFFF80
007FFC7F80
000FF01F00
ENDCHAR
STARTCHAR 00DA
ENCODING 218
SWIDTH 600 0
DWIDTH 40 0
BBX 33 66 3 -2
BITMAP
00001C0000
00007E0000
0000FE0000
0003FE0000
0007FE0000
000FFC0000
001FF80000
003FE00000
003F800000
003E000000
001C000000
0000000000
0000000000
000001F000
000003FC00
3F0007FE00
7F8007FE00
FF8007FF00
FF8007FF00
FF8007FF00
FF8003FF00
FF8003FF00
FF8003FF00
7F8003FF00
7F8003FF00
7F8003FF00
7F8003FF00
7F8003FF00
7F8003FF00
7F8003FF00
7F8003FF00
7F8001FF00
7F8001FF00
7F8001FF00
7F8001FF00
7F8001FF00
7F8001FF00
7F8001FF00
7F8001FF00
7F8001FF00
7F8001FF00
7F8001FF00
7F8001FF00
7F8001FF00
7F8001FF00
7F8001FF00
7F8001FF00
7F8001FF00
7F8003FF00
7F8003FF00
7F8003FF00
7F8003FF00
7FC003FF00
7FC007FF00
7FC007FF00
7FE00FFF00
3FE00FFF00
3FF01FFF00
3FF83FFF00
1FFFFFFF00
0FFFFFFF00
0FFFFFFF80
07FFFFFF80
01FFFFFF80
007FFC7F80
000FF01F00
ENDCHAR
STARTCHAR 00DB
ENCODING 219
SWIDTH 600 0
DWIDTH 40 0
BBX 33 66 3 -2
BITMAP
0003C00000
000FF00000
003FF80000
007FFC0000
00FFFF0000
03FFFF8000
07FEFF8000
07F87FC000
07E01FC000
0380078000
0000000000
0000000000
000001F000
000003FC00
3F0007FE00
7F8007FE00
FF8007FF00
FF8007FF00
FF8007FF00
FF8003FF00
FF8003FF00
FF8003FF00
7F8003FF00
7F8003FF00
7F8003FF00
7F8003FF00
7F8003FF00
7F8003FF00
7F8003FF00
7F8003FF00
7F8001FF00
7F8001FF00
7F8001FF00
7F8001FF00
7F8001FF00
7F8001FF00
7F8001FF00
7F8001FF00
7F8001FF00
7F8001FF00
7F8001FF00
7F8001FF00
7F8001FF00
7F8001FF00
7F8001FF00
7F8001FF00
7F8001FF00
7F8003FF00
7F8003FF00
7F8003FF00
7F8003FF00
7F8003FF00
7F8007FF00
7FC007FF00
7FC00FFF00
3FE00FFF00
3FE01FFF00
3FF87FFF00
1FFFFFFF00
0FFFFFFF00
0FFFFFFF80
07FFFFFF80
01FFFFFF80
007FFCFF80
000FF07F00
0000001E00
ENDCHAR
STARTCHAR 00DC
ENCODING 220
SWIDTH 600 0
DWIDTH 40 0
BBX 33 65 3 -2
BITMAP
03E00F0000
07F01FC000
0FF83FE000
0FF83FE000
0FF83FE000
0FF83FE000
0FF01FC000
07F01FC000
01C0070000
0000000000
0000000000
000001F000
000003FC00
3F0007FE00
7F8007FE00
FF8007FF00
FF8007FF00
FF8007FF00
FF8003FF00
FF8003FF00
FF8003FF00
7F8003FF00
7F8003FF00
7F8003FF00
7F8003FF00
7F8003FF00
7F8003FF00
7F8003FF00
7F8003FF00
7F8001FF00
7F8001FF00
7F8001FF00
7F8001FF00
7F8001FF00
7F8001FF00
7F8001FF00
7F8001FF00
7F8001FF00
7F8001FF00
7F8001FF00
7F8001FF00
7F8001FF00
7F8001FF00
7F8001FF00
7F8001FF00
7F8001FF00
7F8003FF00
7F8003FF00
7F8003FF00
7F8003FF00
7F8003FF00
7FC007FF00
7FC007FF00
7FC00FFF00
3FE00FFF00
3FF01FFF00
1FF87FFF00
1FFFFFFF00
0FFFFFFF00
07FFFFFF80
03FFFFFF80
01FFFFFF80
007FFCFF80
000FF07F00
0000001E00
ENDCHAR
STARTCHAR 00DD
ENCODING 221
SWIDTH 540 0
DWIDTH 36 0
BBX 35 65 1 -1
BITMAP
0000070000
00001F8000
00003FC000
00007FC000
0001FFC000
0003FF8000
0007FE0000
000FF80000
000FF00000
000FC00000
0007000000
0000000000
0000000000
0000000000
1E00001F00
7F00001FC0
FF80003FE0
FFC0003FE0
FFC0003FE0
7FE0007FC0
7FF0007FC0
3FF0007FC0
1FF8007F80
1FFC00FF80
0FFC00FF00
07FE01FF00
07FE01FF00
03FF01FE00
01FF03FE00
01FF83FC00
00FF83FC00
007FC7F800
007FC7F800
003FEFF000
003FEFF000
001FFFE000
000FFFE000
000FFFC000
0007FFC000
0007FF8000
0003FF8000
0003FF8000
0003FF8000
0001FF8000
0001FF8000
0001FF0000
0001FF0000
0001FF0000
0001FF0000
0001FF0000
0001FF0000
0001FF0000
0001FF0000
0001FF0000
0001FF0000
0001FF0000
0001FF0000
0001FF0000
0001FF0000
0001FF0000
0001FF0000
0001FF0000
0001FF0000
0001FF0000
0000780000
ENDCHAR
STARTCHAR 00DE
ENCODING 222
SWIDTH 525 0
DWIDTH 35 0
BBX 31 52 3 -2
BITMAP
1E000000
7F000000
7F000000
7F000000
FF000000
FF000000
FF000000
FF000000
FF000000
FFFF0000
FFFFF800
FFFFFF00
FFFFFFC0
FFFFFFE0
FFFFFFF0
FF80FFF8
FF801FF8
FF800FFC
FF8007FC
FF8003FE
FF8003FE
FF8001FE
FF8001FE
FF8001FE
FF8001FE
FF8001FE
FF8001FE
FF8003FE
FF8003FE
FF8007FE
FF800FFC
FFE03FFC
FFFFFFF8
FFFFFFF0
FFFFFFE0
FFFFFFC0
FFFFFF00
FF9FF000
FFC00000
FFC00000
FFC00000
FFC00000
FFC00000
FFC00000
FFC00000
FFC00000
FFC00000
FF800000
FF800000
FF800000
7F000000
1E000000
ENDCHAR
STARTCHAR 00DF
ENCODING 223
SWIDTH 570 0
DWIDTH 38 0
BBX 35 53 1 -1
BITMAP
0007FE0000
001FFFC000
007FFFE000
00FFFFF000
01FFFFF800
01FFFFFC00
03FF07FC00
03FE03FC00
03FC01FE00
07FC00FE00
07FC00FE00
07FC00FE00
07FC00FE00
07FC00FE00
07FC01FE00
7FF801FE00
FFF803FC00
FFF807FC00
FFF80FF800
FFF81FF800
FFF83FE000
7FF87F8000
07F87FC000
07F87FF000
07F87FF800
07F83FFE00
07F80FFF00
07F803FF00
07F801FF80
07F8007FC0
07F8003FC0
07F8003FC0
07F8001FE0
07F8001FE0
07F8001FE0
07F8001FE0
07F8001FE0
07F8001FE0
07F8001FE0
07F8001FE0
07F8001FE0
07F8003FE0
07F8003FE0
07F8007FC0
07F800FFC0
07F801FF80
07F80FFF80
07F83FFF00
07F87FFE00
07F87FFC00
03F07FF800
03F03FF000
01E01FC000
ENDCHAR
STARTCHAR 00E0
ENCODING 224
SWIDTH 540 0
DWIDTH 36 0
BBX 32 57 1 -2
BITMAP
00180000
003E0000
007F0000
007FC000
007FE000
003FF000
001FF800
000FFC00
0003FE00
0000FE00
00007E00
00001C00
00000000
00000000
0007F078
003FFCFC
007FFEFE
01FFFFFE
03FFFFFE
03FFFFFE
07FFFFFE
0FFE0FFE
1FF801FE
1FF001FE
3FE001FE
3FE001FE
3FC001FE
7FC001FE
7F8001FE
7F8001FE
FF8001FE
FF8001FE
FF8001FE
FF0001FE
FF0001FE
FF0001FE
FF0001FE
FF0001FE
FF0001FE
FF0003FE
FF0003FE
FF8003FE
7F8003FE
7F8007FE
7FC007FE
3FC007FE
3FE00FFF
3FF01FFF
1FFC3FFF
0FFFFFFF
0FFFFFFF
07FFFE7F
03FFFC7F
01FFF87F
007FF03F
000FC03E
0000001E
ENDCHAR
STARTCHAR 00E1
ENCODING 225
SWIDTH 540 0
DWIDTH 36 0
BBX 32 56 1 -2
BITMAP
00000700
00000F80
00003FC0
00007FC0
0001FFC0
0003FF80
0007FE00
000FF800
000FF000
000FC000
00070000
00000000
00000000
0007F078
003FFCFC
007FFEFE
01FFFFFE
03FFFFFE
03FFFFFE
07FFFFFE
0FFE0FFE
1FF801FE
1FF001FE
3FE001FE
3FE001FE
3FC001FE
7FC001FE
7F8001FE
7F8001FE
FF8001FE
FF8001FE
FF8001FE
FF0001FE
FF0001FE
FF0001FE
FF0001FE
FF0001FE
FF0003FE
FF0003FE
FF0003FE
FF8003FE
7F8003FE
7F8007FE
7FC007FE
3FC007FE
3FE00FFF
3FF01FFF
1FFC3FFF
0FFFFFFF
0FFFFFFF
07FFFE7F
03FFFC7F
01FFF87F
007FF03F
001FC03E
0000001E
ENDCHAR
STARTCHAR 00E2
ENCODING 226
SWIDTH 540 0
DWIDTH 36 0
BBX 32 57 1 -2
BITMAP
00002000
0000F800
0003FC00
0007FF00
000FFF80
003FFFC0
007FFFE0
007FFFE0
00FF1FF0
00FE0FF0
00F803F0
006001E0
00000000
00000000
0007F078
003FFCFC
007FFEFE
01FFFFFE
03FFFFFE
03FFFFFE
07FFFFFE
0FFE0FFE
1FF801FE
1FF001FE
3FE001FE
3FE001FE
3FC001FE
7FC001FE
7F8001FE
7F8001FE
FF8001FE
FF8001FE
FF8001FE
FF0001FE
FF0001FE
FF0001FE
FF0001FE
FF0001FE
FF0003FE
FF0003FE
FF0003FE
FF8003FE
7F8003FE
7F8007FE
7FC007FE
3FC007FE
3FE00FFF
3FF01FFF
1FFC3FFF
0FFFFFFF
0FFFFFFF
07FFFE7F
03FFFC7F
01FFF87F
007FF03F
001FC03E
0000001E
ENDCHAR
STARTCHAR 00E3
ENCODING 227
SWIDTH 540 0
DWIDTH 36 0
BBX 32 56 1 -1
BITMAP
00000070
003F80F8
007FE1F8
00FFFFF8
00FFFFF8
01FFFFF8
01FFFFF0
01FFFFF0
01F87FE0
01F00F80
00E00000
00000000
00000000
0007F078
003FFCFC
007FFEFE
01FFFFFE
03FFFFFE
03FFFFFE
07FFFFFE
0FFE0FFE
1FF801FE
1FF001FE
3FE001FE
3FE001FE
3FC001FE
7FC001FE
7F8001FE
7F8001FE
FF8001FE
FF8001FE
FF8001FE
FF0001FE
FF0001FE
FF0001FE
FF0001FE
FF0001FE
FF0003FE
FF0003FE
FF0003FE
FF8003FE
7F8003FE
7F8007FE
7FC007FE
3FC007FE
3FE00FFF
3FF01FFF
1FFC3FFF
0FFFFFFF
0FFFFF7F
07FFFE7F
03FFFC7F
01FFF87F
007FF03F
001FC03E
0000001E
ENDCHAR
STARTCHAR 00E4
ENCODING 228
SWIDTH 540 0
DWIDTH 36 0
BBX 32 55 1 -2
BITMAP
007803C0
00FC07F0
01FE0FF8
01FE0FF8
01FE0FF8
01FE0FF8
01FE0FF0
00FC07F0
007803C0
00000000
00000000
00000000
0007F078
003FFCFC
007FFEFE
01FFFFFE
03FFFFFE
03FFFFFE
07FFFFFE
0FFE0FFE
1FF801FE
1FF001FE
3FE001FE
3FE001FE
3FC001FE
7FC001FE
7F8001FE
7F8001FE
FF8001FE
FF8001FE
FF8001FE
FF0001FE
FF0001FE
FF0001FE
FF0001FE
FF0001FE
FF0003FE
FF0003FE
FF0003FE
FF8003FE
7F8003FE
7F8007FE
7FC007FE
7FC007FE
3FE00FFF
3FF01FFF
1FFC3FFF
0FFFFFFF
0FFFFFFF
07FFFE7F
03FFFC7F
01FFF87F
007FF07F
001F803E
0000001E
ENDCHAR
STARTCHAR 00E5
ENCODING 229
SWIDTH 540 0
DWIDTH 36 0
BBX 32 61 1 -2
BITMAP
0000FC00
0003FF00
0007FF80
000FFFC0
000FFFC0
001F87E0
001F03E0
001F03E0
001F03E0
001F03E0
001F87E0
000FFFC0
000FFFC0
0007FF80
0003FF00
0000FC00
00000000
00000000
0007F078
003FFCFC
007FFEFE
01FFFFFE
03FFFFFE
03FFFFFE
07FFFFFE
0FFE0FFE
1FF801FE
1FF001FE
3FE001FE
3FE001FE
3FC001FE
7FC001FE
7F8001FE
7F8001FE
FF8001FE
FF8001FE
FF8001FE
FF0001FE
FF0001FE
FF0001FE
FF0001FE
FF0001FE
FF0003FE
FF0003FE
FF0003FE
FF8003FE
7F8003FE
7F8007FE
7FC007FE
3FC007FE
3FE00FFF
3FF01FFF
1FFC3FFF
0FFFFFFF
0FFFFFFF
07FFFE7F
03FFFC7F
01FFF87F
007FF03F
001FC03E
0000001E
ENDCHAR
STARTCHAR 00E6
ENCODING 230
SWIDTH 900 0
DWIDTH 60 0
BBX 57 42 1 -1
BITMAP
0007F03C07F80000
003FFC7E1FFF0000
007FFEFE7FFF8000
00FFFFFEFFFFE000
01FFFFFFFFFFF000
03FFFFFFFFFFF800
07FFFFFFFFFFFC00
0FFE0FFFFC3FFC00
1FF801FFE007FE00
1FF001FFC003FE00
3FE001FF8001FF00
3FE000FF8001FF00
3FC000FF0001FF00
7FC000FF0000FF80
7F8000FF0000FF80
7F8000FFFFFFFF80
FF8000FFFFFFFF80
FF8000FFFFFFFF80
FF8000FFFFFFFF80
FF0000FFFFFFFF80
FF0000FFFFFFFC00
FF0000FF00000000
FF0001FF00000000
FF0001FF00000000
FF0001FF00000000
FF0001FF00000000
FF0001FF00000000
FF8001FF80000000
7F8003FF80000000
7F8003FFC0000000
7FC003FFC0001E00
3FC007FFE0003F00
3FE00FFFF000FF00
3FF00FFFF801FF00
1FFC3FFFFE0FFF00
0FFFFFFFFFFFFE00
0FFFFFCFFFFFFC00
07FFFF87FFFFF800
03FFFF03FFFFF000
00FFFE01FFFFE000
007FFC007FFF8000
000FE0000FFC0000
ENDCHAR
STARTCHAR 00E7
ENCODING 231
SWIDTH 540 0
DWIDTH 36 0
BBX 34 53 1 -12
BITMAP
0007FC0000
003FFF8000
00FFFFC000
01FFFFF000
07FFFFF800
0FFFFFF800
0FFFFFFC00
1FFE1FFE00
3FF807FE00
3FF001FE00
3FE001FE00
7FC000FC00
7FC0003800
7FC0000000
FF80000000
FF80000000
FF80000000
FF80000000
FF80000000
FF80000000
FF80000000
FF80000000
FF80000000
FF80000000
FF80000000
FFC0000000
7FC0000780
7FC0000FC0
7FE0001FC0
7FE0001FC0
3FF0003FC0
3FF0007F80
3FF800FF80
1FFC01FF80
1FFF07FF00
0FFFFFFE00
0FFFFFFE00
07FFFFFC00
03FFFFF800
01FFFFE000
007FFFC000
000FFE0000
0000E00000
0000E00000
0000F80000
0000FE0000
0000FF0000
00000F8000
003C0F8000
003FFF8000
003FFF0000
001FFE0000
0003FC0000
ENDCHAR
STARTCHAR 00E8
ENCODING 232
SWIDTH 585 0
DWIDTH 39 0
BBX 35 55 2 0
BITMAP
003C000000
007F000000
007F800000
007FE00000
007FF00000
003FF80000
001FFC0000
0007FE0000
0001FE0000
00007E0000
00001C0000
0000000000
0000000000
0007FC0000
003FFF8000
00FFFFE000
01FFFFF800
07FFFFFC00
0FFFFFFE00
0FFFFFFF00
1FFE0FFF00
3FF801FF80
3FF000FF80
7FE0007FC0
7FC0007FC0
7F80003FE0
7F80003FE0
FF80003FE0
FFFFFFFFE0
FFFFFFFFE0
FFFFFFFFE0
FFFFFFFFE0
FFFFFFFFE0
FFFFFFFF80
FF80000000
FF80000000
FF80000000
FF80000000
7FC0000000
7FC0000000
7FC0000000
7FE0000000
3FE0000000
3FF0000780
3FF8000FC0
1FF8001FC0
1FFE007FC0
0FFF83FFC0
0FFFFFFF80
07FFFFFF00
03FFFFFE00
01FFFFFC00
00FFFFF800
003FFFE000
0007FF0000
ENDCHAR
STARTCHAR 00E9
ENCODING 233
SWIDTH 585 0
DWIDTH 39 0
BBX 35 55 2 0
BITMAP
0000078000
00001FC000
00003FC000
0000FFC000
0001FFC000
0003FF0000
0007FE0000
000FF80000
000FE00000
000FC00000
0007000000
0000000000
0000000000
0007FC0000
003FFF8000
00FFFFE000
01FFFFF800
07FFFFFC00
0FFFFFFE00
0FFFFFFF00
1FFE0FFF00
3FF801FF80
3FF000FF80
7FE000FFC0
7FC0007FC0
7F80007FE0
7F80003FE0
FF80003FE0
FFFFFFFFE0
FFFFFFFFE0
FFFFFFFFE0
FFFFFFFFE0
FFFFFFFFE0
FFFFFFFF80
FF80000000
FF80000000
FF80000000
FF80000000
7FC0000000
7FC0000000
7FC0000000
7FC0000000
3FE0000000
3FF0000780
3FF0000FC0
1FF8001FC0
1FFE007FC0
0FFF83FFC0
0FFFFFFF80
07FFFFFF00
03FFFFFE00
01FFFFFC00
00FFFFF800
003FFFE000
0007FF0000
ENDCHAR
STARTCHAR 00EA
ENCODING 234
SWIDTH 585 0
DWIDTH 39 0
BBX 35 55 2 0
BITMAP
0000F80000
0003FC0000
0007FF0000
001FFF8000
003FFFC000
007FFFE000
00FFBFF000
00FE0FF000
00FC07F000
007001E000
0000000000
0000000000
0000000000
0007FC0000
003FFF8000
00FFFFE000
01FFFFF800
07FFFFFC00
0FFFFFFE00
0FFFFFFF00
1FFE0FFF00
3FF801FF80
3FF000FF80
7FE0007FC0
7FC0007FC0
7F80007FE0
7F80003FE0
FF80003FE0
FFFFFFFFE0
FFFFFFFFE0
FFFFFFFFE0
FFFFFFFFE0
FFFFFFFFE0
FFFFFFFF80
FF80000000
FF80000000
FF80000000
FF80000000
7FC0000000
7FC0000000
7FC0000000
7FC0000000
3FE0000000
3FF0000780
3FF0000FC0
1FF8001FC0
1FFE007FC0
0FFF83FFC0
0FFFFFFF80
07FFFFFF00
03FFFFFE00
01FFFFFC00
00FFFFF800
003FFFE000
0007FF0000
ENDCHAR
STARTCHAR 00EB
ENCODING 235
SWIDTH 585 0
DWIDTH 39 0
BBX 35 54 2 -1
BITMAP
00F003C000
01F807F000
03FC0FF800
03FC0FF800
03FC0FF800
03FC0FF800
03FC0FF000
01F807F000
00F003C000
0000000000
0000000000
0000000000
0007FC0000
003FFF8000
00FFFFE000
01FFFFF800
07FFFFFC00
0FFFFFFE00
0FFFFFFF00
1FFE0FFF00
3FF801FF80
3FE000FF80
7FE000FFC0
7FC0007FC0
7F80007FE0
7F80007FE0
FF80003FE0
FFFFFFFFE0
FFFFFFFFE0
FFFFFFFFE0
FFFFFFFFE0
FFFFFFFFE0
FFFFFFFF80
FF80000000
FF80000000
FF80000000
FF80000000
7FC0000000
7FC0000000
7FC0000000
7FC0000000
3FE0000000
3FF0000780
3FF0000FC0
1FF8003FC0
1FFE007FC0
0FFF83FFC0
0FFFFFFF80
07FFFFFF00
03FFFFFE00
01FFFFFC00
00FFFFF800
003FFFE000
0007FF0000
ENDCHAR
STARTCHAR 00EC
ENCODING 236
SWIDTH 255 0
DWIDTH 17 0
BBX 14 55 -1 -1
BITMAP
3800
7E00
FF00
FF80
FFE0
7FF0
1FF8
0FFC
03FC
00FC
0038
0000
0000
00F0
03F8
03F8
07F8
07FC
07FC
07FC
07FC
07FC
07FC
07FC
07FC
07FC
07FC
07FC
07FC
07FC
07FC
07FC
07FC
07FC
07FC
07FC
07FC
07FC
07FC
07FC
07FC
07FC
07FC
07FC
07FC
07FC
07FC
07FC
07FC
07FC
07FC
07FC
03F8
03F8
00F0
ENDCHAR
STARTCHAR 00ED
ENCODING 237
SWIDTH 255 0
DWIDTH 17 0
BBX 14 55 2 -1
BITMAP
0070
00F8
03FC
07FC
1FFC
3FF8
7FE0
FF80
FE00
FC00
7000
0000
0000
0F00
3F80
3F80
7F80
7FC0
7FC0
7FC0
7FC0
7FC0
7FC0
7FC0
7FC0
7FC0
7FC0
7FC0
7FC0
7FC0
7FC0
7FC0
7FC0
7FC0
7FC0
7FC0
7FC0
7FC0
7FC0
7FC0
7FC0
7FC0
7FC0
7FC0
7FC0
7FC0
7FC0
7FC0
7FC0
7FC0
7FC0
7FC0
3F80
3F80
0F00
ENDCHAR
STARTCHAR 00EE
ENCODING 238
SWIDTH 255 0
DWIDTH 17 0
BBX 20 56 -2 -1
BITMAP
002000
00F800
03FC00
07FF00
0FFF80
3FFFC0
7FFFE0
7FFFE0
FF8FF0
FE07F0
FC03F0
7000E0
000000
000000
007800
01FC00
01FC00
03FC00
03FE00
03FE00
03FE00
03FE00
03FE00
03FE00
03FE00
03FE00
03FE00
03FE00
03FE00
03FE00
03FE00
03FE00
03FE00
03FE00
03FE00
03FE00
03FE00
03FE00
03FE00
03FE00
03FE00
03FE00
03FE00
03FE00
03FE00
03FE00
03FE00
03FE00
03FE00
03FE00
03FE00
03FE00
03FE00
01FC00
01FC00
007800
ENDCHAR
STARTCHAR 00EF
ENCODING 239
SWIDTH 255 0
DWIDTH 17 0
BBX 23 54 -4 -1
BITMAP
3C00F0
7E01FC
FF03FE
FF03FE
FF03FE
FF03FE
FF03FC
7E01FC
3C00F0
000000
000000
000000
003C00
00FE00
00FE00
01FE00
01FF00
01FF00
01FF00
01FF00
01FF00
01FF00
01FF00
01FF00
01FF00
01FF00
01FF00
01FF00
01FF00
01FF00
01FF00
01FF00
01FF00
01FF00
01FF00
01FF00
01FF00
01FF00
01FF00
01FF00
01FF00
01FF00
01FF00
01FF00
01FF00
01FF00
01FF00
01FF00
01FF00
01FF00
01FF00
00FE00
00FE00
003C00
ENDCHAR
STARTCHAR 00F0
ENCODING 240
SWIDTH 570 0
DWIDTH 38 0
BBX 34 51 2 -1
BITMAP
07F003C000
0FFE1FE000
0FFFFFE000
0FFFFFC000
03FFFF8000
00FFFE0000
007FFE0000
01FFFF0000
03FFFF8000
07FDFFC000
0FF8FFE000
0FE03FF000
0F801FF000
06001FF800
00000FFC00
001FFFFC00
007FFFFE00
01FFFFFE00
03FFFFFF00
07FFFFFF00
0FFFFFFF00
1FFFFFFF80
1FFC1FFF80
3FF007FF80
3FE003FF80
7FC001FFC0
7FC000FFC0
7F8000FFC0
FF80007FC0
FF80007FC0
FF80007FC0
FF00007FC0
FF00003FC0
FF00003FC0
FF00003FC0
FF00003FC0
FF00003F80
FF80007F80
7FC0007F80
7FE000FF80
7FE000FF00
3FF001FF00
3FFC03FE00
1FFF0FFE00
1FFFFFFC00
0FFFFFFC00
07FFFFF800
03FFFFF000
00FFFFE000
003FFF8000
0007FC0000
ENDCHAR
STARTCHAR 00F1
ENCODING 241
SWIDTH 555 0
DWIDTH 37 0
BBX 31 55 3 -1
BITMAP
00000380
01FC07C0
03FFFFC0
07FFFFC0
07FFFFC0
0FFFFF80
0FFFFF80
0FFFFF00
0F80FE00
07000000
00000000
00000000
00000000
3807FC00
7C1FFF00
7C7FFFC0
FCFFFFE0
FFFFFFF0
FFFFFFF0
FFFFFFF8
FFFFFFF8
FFF03FF8
FFC00FFC
FF8007FC
FF8007FC
FF0007FC
FF0003FC
FF0003FC
FF0003FE
FF0003FE
FF0003FE
FF0003FE
FF0001FE
FF0001FE
FF0001FE
FF0001FE
FF0001FE
FF0001FE
FF0001FE
FF0001FE
FF0001FE
FF0001FE
FF0001FE
FF0001FE
FF0001FE
FF0001FE
FF0001FE
FF0001FE
FF0001FE
FF0001FE
FF0001FE
FF0001FE
7F0000FE
7E0000FE
3C00007C
ENDCHAR
STARTCHAR 00F2
ENCODING 242
SWIDTH 555 0
DWIDTH 37 0
BBX 34 55 2 -1
BITMAP
0060000000
00F8000000
01FE000000
01FF000000
01FFC00000
00FFE00000
003FF00000
001FF80000
0007F80000
0001F80000
0000700000
0000000000
0000000000
000FF00000
007FFE0000
01FFFF8000
03FFFFC000
07FFFFF000
0FFFFFF800
1FFFFFF800
1FFE1FFC00
3FF00FFE00
3FE007FE00
7FC003FF00
7FC001FF00
7F8000FF00
7F8000FF80
FF80007F80
FF80007F80
FF00007F80
FF00007FC0
FF00003FC0
FF00003FC0
FF00003FC0
FF00003FC0
FF00003FC0
FF00003FC0
FF80003FC0
7F80003FC0
7F80007FC0
7F80007FC0
7FC0007F80
7FC0007F80
3FE000FF80
3FF000FF00
3FF801FF00
1FFC03FE00
1FFF07FE00
0FFFFFFC00
07FFFFF800
07FFFFF000
03FFFFE000
00FFFFC000
003FFF0000
0007FC0000
ENDCHAR
STARTCHAR 00F3
ENCODING 243
SWIDTH 555 0
DWIDTH 37 0
BBX 34 55 2 -1
BITMAP
0000060000
00001F0000
00007F8000
0000FF8000
0001FF8000
0007FF0000
000FFC0000
001FF00000
001FE00000
001F800000
000E000000
0000000000
0000000000
000FF00000
007FFE0000
00FFFF8000
03FFFFE000
07FFFFF000
0FFFFFF800
1FFFFFF800
1FFE1FFC00
3FF807FE00
3FE003FE00
7FE001FF00
7FC000FF00
7F8000FF00
7F80007F80
FF80007F80
FF80007F80
FF00007F80
FF00003FC0
FF00003FC0
FF00003FC0
FF00003FC0
FF00003FC0
FF00003FC0
FF00003FC0
FF80003FC0
7F80003FC0
7F80007FC0
7F80007FC0
7FC0007F80
7FC0007F80
3FE000FF80
3FF000FF00
3FF801FF00
1FFC03FE00
1FFF07FE00
0FFFFFFC00
07FFFFF800
07FFFFF000
03FFFFE000
00FFFFC000
003FFF0000
0007FC0000
ENDCHAR
STARTCHAR 00F4
ENCODING 244
SWIDTH 555 0
DWIDTH 37 0
BBX 34 55 2 0
BITMAP
0003E00000
000FF00000
001FF80000
003FFC0000
007FFF0000
00FFFF8000
01FFFF8000
03FE3FC000
03FC1FC000
03F00FC000
01C0038000
0000000000
0000000000
000FF00000
007FFE0000
01FFFF8000
03FFFFE000
07FFFFF000
0FFFFFF800
1FFFFFF800
1FFE1FFC00
3FF00FFE00
3FE003FE00
7FE001FF00
7FC001FF00
7F8000FF00
7F8000FF80
FF80007F80
FF80007F80
FF00007F80
FF00003FC0
FF00003FC0
FF00003FC0
FF00003FC0
FF00003FC0
FF00003FC0
FF00003FC0
FF80003FC0
7F80003FC0
7F80007FC0
7F80007FC0
7FC0007F80
7FC0007F80
3FE000FF80
3FF000FF00
3FF801FF00
1FFC03FE00
1FFF07FE00
0FFFFFFC00
07FFFFF800
07FFFFF000
03FFFFE000
00FFFFC000
003FFF0000
0007FC0000
ENDCHAR
STARTCHAR 00F5
ENCODING 245
SWIDTH 555 0
DWIDTH 37 0
BBX 34 55 2 -1
BITMAP
0000008000
007F03E000
01FFFFE000
03FFFFE000
03FFFFE000
07FFFFE000
07FFFFC000
07FFFFC000
07E1FF8000
07C01F0000
0380000000
0000000000
0000000000
000FF00000
007FFE0000
01FFFF8000
03FFFFE000
07FFFFF000
0FFFFFF800
1FFFFFF800
1FFE1FFC00
3FF00FFE00
3FE003FE00
7FE001FF00
7FC001FF00
7F8000FF00
7F8000FF80
FF80007F80
FF80007F80
FF00007F80
FF00003FC0
FF00003FC0
FF00003FC0
FF00003FC0
FF00003FC0
FF00003FC0
FF00003FC0
FF80003FC0
7F80003FC0
7F80007FC0
7F80007FC0
7FC0007F80
7FC0007F80
3FE000FF80
3FF000FF00
3FF801FF00
1FFC03FE00
1FFF07FE00
0FFFFFFC00
07FFFFF800
07FFFFF000
03FFFFE000
00FFFFC000
003FFF0000
0007FC0000
ENDCHAR
STARTCHAR 00F6
ENCODING 246
SWIDTH 555 0
DWIDTH 37 0
BBX 34 54 2 -1
BITMAP
01E0078000
03F00FE000
07F81FF000
07F81FF000
07F81FF000
07F81FF000
07F81FE000
03F00FE000
01E0078000
0000000000
0000000000
0000000000
000FF80000
003FFF0000
00FFFF8000
01FFFFE000
07FFFFF000
07FFFFF800
0FFFFFF800
1FFE1FFC00
3FF00FFE00
3FE003FE00
3FE001FF00
7FC001FF00
7F8000FF00
7F8000FF80
FF80007F80
FF80007F80
FF00007F80
FF00007FC0
FF00003FC0
FF00003FC0
FF00003FC0
FF00003FC0
FF00003FC0
FF00003FC0
FF80003FC0
7F80003FC0
7F80007FC0
7F80007FC0
7FC0007F80
7FC0007F80
3FE000FF80
3FF000FF00
3FF801FF00
1FFC03FE00
1FFF07FE00
0FFFFFFC00
07FFFFF800
07FFFFF000
03FFFFE000
00FFFFC000
003FFF0000
0007FC0000
ENDCHAR
STARTCHAR 00F7
ENCODING 247
SWIDTH 585 0
DWIDTH 39 0
BBX 37 33 1 8
BITMAP
0000780000
0000FC0000
0001FE0000
0001FE0000
0001FE0000
0001FE0000
0001FE0000
0000FC0000
0000780000
0000000000
0000000000
0000000000
1FFFFFFFE0
7FFFFFFFF8
FFFFFFFFF8
FFFFFFFFF8
FFFFFFFFF8
FFFFFFFFF0
7FFFFFFFF0
1FFFFFFF80
0000000000
0000000000
0000000000
0000000000
0000780000
0000FC0000
0001FE0000
0001FE0000
0001FE0000
0001FE0000
0001FE0000
0000FC0000
0000780000
ENDCHAR
STARTCHAR 00F8
ENCODING 248
SWIDTH 570 0
DWIDTH 38 0
BBX 37 42 0 -1
BITMAP
0003FC00F0
001FFF81F8
003FFFE3F8
00FFFFFFF0
01FFFFFFE0
03FFFFFFC0
03FFFFFF80
07FF0FFF00
0FFC03FF80
0FF801FF80
1FF000FF80
1FF001FFC0
1FE003FFC0
1FE007FFC0
3FE00FFFC0
3FE00FDFE0
3FC01F8FE0
3FC03F0FE0
3FC07F0FE0
3FC0FE0FE0
3FC1FC0FE0
3FC1F80FE0
3FC3F00FE0
3FE7F00FE0
1FEFE00FE0
1FFFC00FE0
1FFF801FE0
1FFF001FE0
0FFF001FE0
0FFE001FC0
0FFC003FC0
07FC003FC0
07FE007F80
07FF00FF80
0FFFC3FF00
1FFFFFFF00
1FFFFFFE00
3FFFFFFC00
7E7FFFF800
FC1FFFF000
F807FFE000
7000FF0000
ENDCHAR
STARTCHAR 00F9
ENCODING 249
SWIDTH 570 0
DWIDTH 38 0
BBX 32 55 3 -1
BITMAP
00700000
00FC0000
01FE0000
01FF0000
01FFC000
00FFE000
003FF000
001FF800
0007F800
0001F800
00007000
00000000
00000000
3C00001C
7F00007E
FF00007E
FF00007F
FF8000FF
FF8000FF
FF8000FF
FF8000FF
FF8000FF
FF8000FF
FF8000FF
FF8000FF
FF8000FF
FF8000FF
FF8000FF
FF8000FF
FF8000FF
FF8000FF
FF8000FF
FF8000FF
FF8000FF
FF8000FF
FF8000FF
FF8000FF
FF8000FF
FF8001FF
FF8001FF
FF8001FF
FF8001FF
FF8003FF
7FC003FF
7FC007FF
7FE00FFF
7FF81FFF
7FFFFFFF
3FFFFFFF
3FFFFFFF
1FFFFFFF
0FFFFDFF
07FFF8FE
01FFE0FE
007F007C
ENDCHAR
STARTCHAR 00FA
ENCODING 250
SWIDTH 570 0
DWIDTH 38 0
BBX 32 55 3 -1
BITMAP
00001C00
00003E00
0000FF00
0001FF00
0007FF00
000FFE00
001FFC00
003FF000
003FC000
003F0000
001C0000
00000000
00000000
3C00001C
7F00007E
FF00007E
FF00007F
FF8000FF
FF8000FF
FF8000FF
FF8000FF
FF8000FF
FF8000FF
FF8000FF
FF8000FF
FF8000FF
FF8000FF
FF8000FF
FF8000FF
FF8000FF
FF8000FF
FF8000FF
FF8000FF
FF8000FF
FF8000FF
FF8000FF
FF8000FF
FF8000FF
FF8001FF
FF8001FF
FF8001FF
FF8001FF
FF8003FF
7FC003FF
7FC007FF
7FE00FFF
7FF81FFF
7FFFFFFF
3FFFFFFF
3FFFFFFF
1FFFFFFF
0FFFFDFF
07FFF8FE
01FFE0FE
007F807C
ENDCHAR
STARTCHAR 00FB
ENCODING 251
SWIDTH 570 0
DWIDTH 38 0
BBX 32 55 3 -1
BITMAP
0001C000
0007F000
001FF800
003FFE00
00FFFF00
01FFFF80
03FF7FC0
03FC3FC0
03F00FC0
01C00380
00000000
00000000
00000000
3C00001C
7F00007E
FF00007E
FF00007F
FF8000FF
FF8000FF
FF8000FF
FF8000FF
FF8000FF
FF8000FF
FF8000FF
FF8000FF
FF8000FF
FF8000FF
FF8000FF
FF8000FF
FF8000FF
FF8000FF
FF8000FF
FF8000FF
FF8000FF
FF8000FF
FF8000FF
FF8000FF
FF8000FF
FF8001FF
FF8001FF
FF8001FF
FF8001FF
FF8003FF
7FC003FF
7FC007FF
7FE00FFF
7FF81FFF
7FFFFFFF
3FFFFFFF
3FFFFFFF
1FFFFFFF
0FFFFCFF
07FFF8FE
01FFE0FE
003F807C
ENDCHAR
STARTCHAR 00FC
ENCODING 252
SWIDTH 570 0
DWIDTH 38 0
BBX 32 54 3 -1
BITMAP
01F00780
03F80FE0
07FC1FF0
07FC1FF0
07FC1FF0
07FC1FF0
07FC1FE0
03F80FE0
01F00780
00000000
00000000
00000000
3C00001C
7F00007E
FF00007E
FF00007F
FF8000FF
FF8000FF
FF8000FF
FF8000FF
FF8000FF
FF8000FF
FF8000FF
FF8000FF
FF8000FF
FF8000FF
FF8000FF
FF8000FF
FF8000FF
FF8000FF
FF8000FF
FF8000FF
FF8000FF
FF8000FF
FF8000FF
FF8000FF
FF8000FF
FF8001FF
FF8001FF
FF8001FF
FF8001FF
FF8003FF
7FC003FF
7FC007FF
7FE00FFF
7FF81FFF
7FFFFFFF
3FFFFFFF
3FFFFFFF
1FFFFFFF
0FFFFCFF
07FFF8FE
01FFE0FE
003F807C
ENDCHAR
STARTCHAR 00FD
ENCODING 253
SWIDTH 570 0
DWIDTH 38 0
BBX 33 66 2 -12
BITMAP
00000E0000
00001F0000
00007F8000
0000FF8000
0003FF8000
0007FF0000
000FFC0000
001FF80000
001FE00000
001F800000
000E000000
3C00000000
7E00000000
FF00001E00
FF00007F00
7F80007F00
7F8000FF80
7F8000FF80
7F8000FF80
7F8000FF80
7F8000FF80
7F8000FF80
7F8000FF80
7F8000FF80
7F8000FF80
7F8000FF80
7F8000FF80
7F8000FF80
7F8000FF80
7F8000FF80
7F8000FF80
7F8000FF80
7F8001FF80
7F8001FF80
7F8001FF80
7F8001FF80
7FC001FF80
7FC003FF80
7FC003FF00
7FE007FF00
7FF00FFF00
3FF81FFF00
3FFFFFFF00
3FFFFFFF00
1FFFFFFF00
1FFFFFFF00
0FFFFFFE00
03FFFFFE00
01FFFBFE00
003FC3FE00
000003FE00
000007FC00
000007FC00
00000FFC00
00001FF800
00001FF800
00007FF000
0000FFF000
0001FFE000
0003FFC000
0007FF8000
000FFF8000
000FFF0000
000FFC0000
000FF80000
0003E00000
ENDCHAR
STARTCHAR 00FE
ENCODING 254
SWIDTH 540 0
DWIDTH 36 0
BBX 31 64 3 -12
BITMAP
3E000000
7F000000
7F000000
FF000000
FF000000
FF000000
FF000000
FF000000
FF000000
FF000000
FF000000
FF03F000
FF0FFE00
FF3FFF00
FF7FFF80
FFFFFFC0
FFFFFFE0
FFFFFFF0
FFFC3FF0
FFF00FF8
FFE007F8
FFC007FC
FF8003FC
FF8003FC
FF8003FE
FF0003FE
FF0001FE
FF0001FE
FF0001FE
FF0001FE
FF0001FE
FF0001FE
FF0001FE
FF0001FE
FF0001FE
FF8001FE
FF8001FE
FF8001FE
FF8003FE
FF8003FE
FFC003FC
FFC007FC
FFC007FC
FFE00FFC
FFF01FF8
FFFC3FF8
FFFFFFF0
FFFFFFF0
FFFFFFE0
FF7FFFC0
FF1FFF80
FF0FFF00
FF01F800
FF000000
FF000000
FF000000
FF000000
FF000000
FF000000
FF000000
7F000000
7F000000
7E000000
3C000000
ENDCHAR
STARTCHAR 00FF
ENCODING 255
SWIDTH 570 0
DWIDTH 38 0
BBX 33 66 2 -12
BITMAP
01E003C000
03F80FF000
03F80FF000
07FC1FF800
07FC1FF800
07FC1FF800
07FC1FF800
03F80FF000
03F80FE000
01E003C000
0000000000
3C00000000
FF00001E00
FF00003F00
7F00007F00
7F8000FF80
7F8000FF80
7F8000FF80
7F8000FF80
7F8000FF80
7F8000FF80
7F8000FF80
7F8000FF80
7F8000FF80
7F8000FF80
7F8000FF80
7F8000FF80
7F8000FF80
7F8000FF80
7F8000FF80
7F8000FF80
7F8001FF80
7F8001FF80
7F8001FF80
7F8001FF80
7F8001FF80
7FC003FF80
7FC003FF80
7FC003FF00
7FE007FF00
7FF00FFF00
3FF81FFF00
3FFFFFFF00
3FFFFFFF00
1FFFFFFF00
1FFFFFFF00
0FFFFFFE00
03FFFFFE00
01FFF3FE00
003FC3FE00
000007FC00
000007FC00
000007FC00
00000FF800
00001FF800
00003FF800
00007FF000
0000FFE000
0001FFE000
0003FFC000
0007FF8000
000FFF8000
000FFF0000
000FFC0000
000FF80000
0003E00000
ENDCHAR
STARTCHAR 0131
ENCODING 305
SWIDTH 255 0
DWIDTH 17 0
BBX 9 42 4 -1
BITMAP
1E00
7F00
7F00
FF00
FF80
FF80
FF80
FF80
FF80
FF80
FF80
FF80
FF80
FF80
FF80
FF80
FF80
FF80
FF80
FF80
FF80
FF80
FF80
FF80
FF80
FF80
FF80
FF80
FF80
FF80
FF80
FF80
FF80
FF80
FF80
FF80
FF80
FF80
FF80
7F00
7F00
1E00
ENDCHAR
STARTCHAR 0141
ENCODING 321
SWIDTH 420 0
DWIDTH 28 0
BBX 27 52 0 -1
BITMAP
01E00000
03F80000
03FC0000
07FE0000
07FE0000
07FE0000
07FE0000
07FE0000
07FE0000
07FE0000
07FE0000
07FE0000
07FE0000
07FE0000
07FE0000
07FE0000
07FE0000
07FE0E00
07FE3F00
07FEFF00
07FFFF00
07FFFE00
07FFFC00
07FFF800
07FFE000
0FFFC000
3FFF0000
7FFC0000
FFFC0000
FFFC0000
FFFC0000
FFFC0000
F7FC0000
07FC0000
07FC0000
07FC0000
07FC0000
07FC0000
07FC0000
07FC0000
07FC0000
07FE0000
07FE0000
07FE0000
07FFFFC0
07FFFFC0
07FFFFE0
07FFFFE0
07FFFFE0
07FFFFE0
07FFFFE0
00001F80
ENDCHAR
STARTCHAR 0142
ENCODING 322
SWIDTH 300 0
DWIDTH 20 0
BBX 20 51 0 -1
BITMAP
00F800
01FC00
01FC00
03FC00
03FC00
03FC00
03FC00
03FC00
03FC00
03FC00
03FC00
03FC00
03FC00
03FC00
03FC00
03FC00
03FC00
03FCE0
03FFF0
03FFF0
03FFF0
03FFE0
0FFFC0
1FFF80
7FFE00
FFFC00
FFFC00
7FFC00
7BFC00
03FC00
03FC00
03FC00
03FC00
03FC00
03FC00
03FC00
03FC00
03FC00
03FC00
03FC00
03FC00
03FC00
03FC00
03FC00
03FC00
03FC00
03FC00
03FC00
03FC00
01F800
00F000
ENDCHAR
STARTCHAR 0152
ENCODING 338
SWIDTH 975 0
DWIDTH 65 0
BBX 61 51 2 -1
BITMAP
0001FF0000000000
000FFFE3FFFFFFC0
003FFFF3FFFFFFE0
007FFFFBFFFFFFF0
01FFFFFFFFFFFFF0
03FFFFFFFFFFFFF0
07FFFFFFFFFFFFF0
0FFF03FFFFFFFFF0
0FFC00FFFE000000
1FF8003FFE000000
3FF0001FFE000000
3FE0001FFE000000
3FE0000FFE000000
7FC0000FFE000000
7FC00007FE000000
7FC00007FE000000
7F800007FE000000
7F800003FE000000
FF800003FE000000
FF800003FE000000
FF000003FF800000
FF000003FFFFF800
FF000003FFFFFC00
FF000003FFFFFC00
FF000003FFFFFC00
FF000003FFFFFC00
FF000003FFFFF800
FF000003FFFFE000
FF800003FE000000
FF800003FE000000
7F800003FE000000
7F800003FE000000
7F800003FE000000
7FC00003FE000000
7FC00007FE000000
3FE00007FE000000
3FE00007FE000000
3FF00007FE000000
1FF0000FFE000000
1FF8000FFE000000
0FFC001FFE000000
0FFE003FFE000000
07FF007FFE0001E0
03FFC1FFFF807FF0
01FFFFFFFFFFFFF8
00FFFFFFFFFFFFF8
007FFFFFFFFFFFF8
003FFFFFFFFFFFF8
000FFFFBFFFFFFF8
0001FFE3FFFFFFF0
00003F81FFFFFFC0
ENDCHAR
STARTCHAR 0153
ENCODING 339
SWIDTH 960 0
DWIDTH 64 0
BBX 60 42 2 -1
BITMAP
000FF80003FE0000
007FFF003FFFC000
01FFFFC07FFFF000
03FFFFE1FFFFF800
07FFFFF3FFFFFC00
0FFFFFFFFFFFFE00
1FFFFFFFFFFFFF00
1FFE1FFFFF07FF80
3FF007FFFC01FF80
3FE003FFF0007FC0
7FE001FFE0007FC0
7FC001FFE0003FE0
7F8000FFC0003FE0
7F8000FFC0003FE0
FF80007FC0001FE0
FF80007FFFFFFFF0
FF00007FFFFFFFF0
FF00007FFFFFFFF0
FF00003FFFFFFFF0
FF00003FFFFFFFF0
FF00003FFFFFFF80
FF00003FC0000000
FF00003FC0000000
FF00003FC0000000
FF80003FC0000000
FF80003FC0000000
7F80007FC0000000
7F80007FE0000000
7FC0007FE0000000
7FC0007FE0000000
3FE000FFF00003C0
3FF000FFF8000FE0
3FF801FFFC001FE0
1FFC03FFFE003FE0
1FFF07FFFFC1FFE0
0FFFFFFFFFFFFFC0
0FFFFFFFFFFFFF80
07FFFFFBFFFFFF00
03FFFFF1FFFFFE00
00FFFFC0FFFFFC00
003FFF803FFFF000
0007FC0007FF0000
ENDCHAR
STARTCHAR 0160
ENCODING 352
SWIDTH 450 0
DWIDTH 30 0
BBX 28 64 1 -1
BITMAP
03800F00
07E01F80
07F07F80
07FDFF80
03FFFF00
01FFFE00
007FFC00
003FF000
000FE000
00078000
00000000
00000000
00000000
001FF000
00FFFE00
01FFFF00
07FFFF80
0FFFFFC0
1FFFFFE0
1FFFFFE0
3FF83FF0
3FE00FF0
7FE003E0
7FC000E0
7FC00000
7FC00000
7FC00000
7FE00000
7FE00000
3FF00000
3FF80000
3FFC0000
1FFE0000
0FFF0000
0FFFC000
07FFE000
03FFF000
01FFF800
00FFFC00
007FFE00
003FFF00
000FFF80
0007FFC0
0003FFC0
0001FFC0
0000FFE0
00007FE0
00003FE0
00003FE0
00001FE0
00001FE0
00001FE0
78001FE0
FC001FE0
FE003FE0
FF807FC0
FFF0FFC0
FFFFFFC0
7FFFFF80
3FFFFF00
1FFFFE00
07FFFC00
01FFF000
003FC000
ENDCHAR
STARTCHAR 0161
ENCODING 353
SWIDTH 450 0
DWIDTH 30 0
BBX 26 56 2 -2
BITMAP
0E001C00
1F807E00
1FC0FE00
1FF3FE00
0FFFFC00
07FFF800
03FFF000
01FFE000
00FFC000
003F8000
001E0000
00000000
00000000
003FE000
01FFFC00
07FFFE00
0FFFFF00
1FFFFF80
1FFFFFC0
3FFFFFC0
3FF07FC0
7FC01FC0
7F800780
7F800000
7F800000
7FC00000
7FE00000
7FF00000
3FF80000
3FFC0000
1FFF0000
1FFF8000
0FFFE000
07FFF000
03FFFC00
00FFFE00
007FFF00
003FFF00
000FFF80
0007FF80
0001FFC0
0000FFC0
00007FC0
00007FC0
00003FC0
00003FC0
78007FC0
FE007FC0
FFC1FF80
FFFFFF80
FFFFFF00
7FFFFF00
3FFFFE00
1FFFFC00
07FFF000
00FFC000
ENDCHAR
STARTCHAR 0178
ENCODING 376
SWIDTH 540 0
DWIDTH 36 0
BBX 35 64 1 -1
BITMAP
007803C000
00FC07F000
01FE0FF800
01FE0FF800
01FE0FF800
01FE0FF800
01FE0FF000
00FC07F000
007803C000
0000000000
0000000000
0000000000
0000000000
1E00001F00
7F80001FC0
FFC0003FE0
FFC0003FE0
FFE0003FE0
7FF0007FC0
7FF0007FC0
3FF8007FC0
1FF800FF80
0FFC00FF80
0FFC00FF00
07FE01FF00
03FE01FE00
01FF03FE00
01FF03FC00
00FF03FC00
007F87F800
007F87F800
003FCFF000
003FCFF000
001FDFF000
000FFFE000
000FFFE000
0007FFC000
0007FFC000
0003FF8000
0003FF8000
0003FF8000
0001FF8000
0001FF8000
0001FF8000
0001FF8000
0001FF0000
0001FF0000
0001FF0000
0001FF0000
0001FF0000
0001FF0000
0001FF0000
0001FF0000
0001FF0000
0001FF0000
0001FF0000
0001FF0000
0001FF0000
0001FF0000
0001FF0000
0001FF0000
0001FF0000
0001FF0000
0000780000
ENDCHAR
STARTCHAR 017D
ENCODING 381
SWIDTH 630 0
DWIDTH 42 0
BBX 40 64 1 -1
BITMAP
0008003800
003E00FC00
003F81FC00
003FE7FC00
001FFFF800
000FFFF000
0007FFF000
0003FFC000
0001FF8000
00007F0000
00003C0000
0000000000
0000000000
0000000000
1F00000000
7FFFFFFF80
7FFFFFFFE0
FFFFFFFFF0
FFFFFFFFF0
FFFFFFFFF0
FFFFFFFFF0
3FFFFFFFF0
0000007FF0
000000FFE0
000001FFE0
000003FFC0
000003FF80
000007FF00
00000FFF00
00000FFE00
00001FFC00
00003FFC00
00003FF800
00007FF000
0000FFE000
0000FFE000
0001FFC000
0003FF8000
0003FF0000
0007FF0000
000FFE0000
000FFC0000
001FFC0000
003FF80000
007FF00000
007FF00000
00FFE00000
00FFC00000
01FFC00000
03FF800000
03FF000000
07FF000000
0FFE000000
0FFE000000
1FFC000000
1FF8000000
3FF8000000
3FFFFFFFFC
7FFFFFFFFE
7FFFFFFFFF
7FFFFFFFFF
7FFFFFFFFF
3FFFFFFFFF
07FFFFFFFC
ENDCHAR
STARTCHAR 017E
ENCODING 382
SWIDTH 555 0
DWIDTH 37 0
BBX 36 55 1 -1
BITMAP
007000E000
00FC03F000
00FE07F000
00FF9FF000
007FFFE000
003FFFC000
001FFF8000
000FFF0000
0007FE0000
0001FC0000
0000F00000
0000000000
0000000000
0000000000
3FFFFFFE00
7FFFFFFF00
FFFFFFFF80
FFFFFFFF80
FFFFFFFF80
FFFFFFFF80
7FFFFFFF00
7E001FFF00
00000FFE00
00001FFE00
00003FFC00
00003FF800
00007FF000
0000FFE000
0001FFE000
0003FFC000
0007FF8000
0007FF0000
000FFE0000
001FFE0000
003FFC0000
003FF80000
007FF00000
00FFE00000
01FFE00000
01FFC00000
03FF800000
07FF000000
07FF000000
0FFE000000
1FFC000000
1FFC000000
3FFE0007C0
3FFFFFFFE0
7FFFFFFFF0
7FFFFFFFF0
7FFFFFFFF0
7FFFFFFFF0
3FFFFFFFF0
1FFFFFFFE0
07FFFFFFC0
ENDCHAR
STARTCHAR 0192
ENCODING 402
SWIDTH 615 0
DWIDTH 41 0
BBX 37 62 2 -12
BITMAP
000001FE00
000007FFC0
00001FFFE0
00003FFFF0
00007FC7F0
00007F83F8
0000FF83F8
0000FF83F8
0000FF03F8
0001FF01F8
0001FF01F0
0001FF0060
0003FE0000
0003FE0000
0003FE0000
0003FE0000
0003FE0000
0007FE0000
0007FE0000
0007FE0000
0007FE0000
0007FE0000
03FFFFF000
07FFFFFC00
07FFFFFC00
01FFFFF800
000FF80000
000FF80000
000FF80000
000FF80000
000FF80000
000FF80000
000FF80000
000FF80000
000FF80000
000FF80000
000FF80000
000FF80000
000FF80000
000FF00000
000FF00000
000FF00000
000FF00000
000FF00000
000FF00000
000FF00000
000FF00000
000FE00000
000FE00000
000FE00000
000FE00000
380FC00000
7C0FC00000
FE0FC00000
FE1F800000
FE1F800000
FF3F000000
7FFF000000
7FFE000000
3FFC000000
1FF8000000
07E0000000
ENDCHAR
STARTCHAR 02C6
ENCODING 710
SWIDTH 480 0
DWIDTH 32 0
BBX 20 10 6 44
BITMAP
00F000
01FC00
07FE00
0FFF80
3FFFC0
7FFFE0
FF9FF0
FF0FF0
FC03F0
7001E0
ENDCHAR
STARTCHAR 02C7
ENCODING 711
SWIDTH 480 0
DWIDTH 32 0
BBX 20 10 6 44
BITMAP
7000E0
FC03F0
FF0FF0
FF9FF0
7FFFE0
3FFFC0
0FFF80
07FE00
01FC00
00F000
ENDCHAR
STARTCHAR 02C9
ENCODING 713
SWIDTH 495 0
DWIDTH 33 0
BBX 23 6 5 46
BITMAP
7FFFFC
FFFFFE
FFFFFE
FFFFFE
FFFFFE
7FFFF8
ENDCHAR
STARTCHAR 02D8
ENCODING 728
SWIDTH 495 0
DWIDTH 33 0
BBX 21 10 6 44
BITMAP
780070
FC01F8
FE03F8
FF87F8
FFFFF0
7FFFF0
3FFFE0
1FFFC0
07FF80
01FC00
ENDCHAR
STARTCHAR 02D9
ENCODING 729
SWIDTH 495 0
DWIDTH 33 0
BBX 10 10 11 44
BITMAP
1E00
3F80
7F80
FFC0
FFC0
FFC0
FFC0
7F80
7F80
1E00
ENDCHAR
STARTCHAR 02DA
ENCODING 730
SWIDTH 480 0
DWIDTH 32 0
BBX 16 16 8 44
BITMAP
07E0
1FF8
3FFC
7FFE
7FFE
FC3F
F81F
F81F
F81F
F81F
FC3F
7FFE
7FFE
3FFC
1FF8
07E0
ENDCHAR
STARTCHAR 02DB
ENCODING 731
SWIDTH 465 0
DWIDTH 31 0
BBX 13 12 11 -11
BITMAP
1E00
3C00
7800
7800
F800
F800
FC18
FE38
FFF8
7FF8
3FF0
0FC0
ENDCHAR
STARTCHAR 02DC
ENCODING 732
SWIDTH 480 0
DWIDTH 32 0
BBX 22 11 5 43
BITMAP
000038
1FC07C
3FF8FC
7FFFFC
7FFFFC
FFFFFC
FFFFF8
FFFFF8
FC3FF0
F803C0
700000
ENDCHAR
STARTCHAR 02DD
ENCODING 733
SWIDTH 495 0
DWIDTH 33 0
BBX 20 11 9 44
BITMAP
0701C0
0F83E0
1FC7F0
1FC7F0
3F8FE0
3F0FC0
7F1F80
7E1F80
FC3F00
F83E00
701800
ENDCHAR
STARTCHAR 03BC
ENCODING 956
SWIDTH 585 0
DWIDTH 39 0
BBX 34 53 2 -13
BITMAP
3E00000E00
7F00003F00
7F80003F80
FF80007F80
7FC0007FC0
7FC0007FC0
7FC0007FC0
7FC0007FC0
7FC0007FC0
7FC0007FC0
7FC0007FC0
7FC0007FC0
7FC0007FC0
7FC0007FC0
7FC0007FC0
7FC0007FC0
7FC0007FC0
7FC0007FC0
7FC0007FC0
7FC0007FC0
7FC0007FC0
7FC0007F80
7FC0007F80
7FC0007F80
7FC0007F80
7FC000FF80
7FC000FF80
7FC000FF80
7FC001FF80
7FE001FF80
7FF003FF80
7FF807FF80
7FFE0FFF80
7FFFFFFF80
7FFFFFFF80
7FFFFFFF80
7FFFFFFF80
7FFFFE7F80
7FDFFC7F80
7FCFF83F00
7FC3E03E00
7FC0000000
7FC0000000
7FC0000000
7FC0000000
7FC0000000
7FC0000000
7F80000000
3F80000000
3F80000000
3F80000000
1F80000000
0E00000000
ENDCHAR
STARTCHAR 2010
ENCODING 8208
SWIDTH 360 0
DWIDTH 24 0
BBX 20 9 2 16
BITMAP
0FFF80
7FFFE0
7FFFF0
FFFFF0
FFFFF0
FFFFF0
FFFFF0
7FFFE0
1FFF00
ENDCHAR
STARTCHAR 2013
ENCODING 8211
SWIDTH 480 0
DWIDTH 32 0
BBX 27 9 2 16
BITMAP
0FFFFF00
7FFFFFC0
7FFFFFE0
FFFFFFE0
FFFFFFE0
FFFFFFE0
FFFFFFC0
7FFFFFC0
1FFFFE00
ENDCHAR
STARTCHAR 2014
ENCODING 8212
SWIDTH 915 0
DWIDTH 61 0
BBX 57 9 2 16
BITMAP
1FFFFFFFFFFFFE00
7FFFFFFFFFFFFF00
FFFFFFFFFFFFFF80
FFFFFFFFFFFFFF80
FFFFFFFFFFFFFF80
FFFFFFFFFFFFFF80
FFFFFFFFFFFFFF00
7FFFFFFFFFFFFF00
1FFFFFFFFFFFF800
ENDCHAR
STARTCHAR 2018
ENCODING 8216
SWIDTH 270 0
DWIDTH 18 0
BBX 14 22 2 28
BITMAP
0E00
1F00
3F00
7F00
7E00
7E00
FE00
FE00
FE00
FE00
FE00
FFE0
FFF0
FFF8
FFFC
7FFC
7FFC
3FFC
3FFC
1FF8
0FF0
03E0
ENDCHAR
STARTCHAR 2019
ENCODING 8217
SWIDTH 270 0
DWIDTH 18 0
BBX 12 23 4 27
BITMAP
1F00
3F80
7FC0
FFE0
FFE0
FFF0
FFF0
FFF0
7FF0
7FF0
1FF0
0FF0
0FE0
0FE0
1FE0
1FC0
3FC0
3F80
7F80
FF00
FE00
FC00
7800
ENDCHAR
STARTCHAR 201A
ENCODING 8218
SWIDTH 270 0
DWIDTH 18 0
BBX 12 23 3 -13
BITMAP
1F00
3F80
7FC0
FFE0
FFE0
FFF0
FFF0
FFF0
7FF0
7FF0
1FF0
0FF0
0FE0
0FE0
1FE0
1FC0
3FC0
3F80
7F80
FF00
FE00
FC00
7800
ENDCHAR
STARTCHAR 201C
ENCODING 8220
SWIDTH 495 0
DWIDTH 33 0
BBX 29 22 2 28
BITMAP
0E001C00
1F007E00
3F007E00
7F00FE00
7F00FC00
7E00FC00
FE01FC00
FE01FC00
FE01FC00
FE01FC00
FE01FC00
FFE1FF80
FFF1FFE0
FFF9FFF0
FFFDFFF8
7FFCFFF8
7FFCFFF8
3FFCFFF8
3FFC7FF8
1FF83FF0
0FF01FE0
03E00FC0
ENDCHAR
STARTCHAR 201D
ENCODING 8221
SWIDTH 495 0
DWIDTH 33 0
BBX 27 22 3 28
BITMAP
1F007C00
3F80FF00
7FC1FF80
FFE1FFC0
FFE3FFC0
FFF3FFE0
FFF3FFE0
FFF1FFE0
7FF1FFE0
3FF0FFE0
0FF03FE0
07F01FE0
0FE01FC0
0FE01FC0
0FE03FC0
1FC03F80
1FC03F80
3F807F00
3F807F00
7F00FE00
7E00FC00
3C007800
ENDCHAR
STARTCHAR 201E
ENCODING 8222
SWIDTH 495 0
DWIDTH 33 0
BBX 27 22 3 -12
BITMAP
1F003E00
3F807F00
7FC0FF80
FFE1FFC0
FFE1FFC0
FFF1FFE0
FFF1FFE0
FFF1FFE0
7FF0FFE0
3FF07FE0
0FF01FE0
07F00FE0
0FE00FC0
0FE01FC0
0FE01FC0
1FC01F80
1FC03F80
3F807F00
3F807F00
7F00FE00
7E00FC00
3C007800
ENDCHAR
STARTCHAR 2020
ENCODING 8224
SWIDTH 555 0
DWIDTH 37 0
BBX 34 60 2 -10
BITMAP
0003C00000
0007E00000
000FF00000
000FF00000
000FF00000
000FF00000
000FF00000
000FF00000
000FF00000
0007F00000
0007F00000
0007F00000
3F07F3FC00
FFFFFFFF00
FFFFFFFF80
FFFFFFFF80
FFFFFFFFC0
FFFFFFFF80
FFFFFFFF80
7FCFF3FF00
3E0FF03C00
000FF00000
000FF00000
000FF00000
000FF00000
000FF00000
000FF00000
000FF00000
000FF00000
000FF00000
000FF00000
000FF00000
000FF00000
000FF00000
000FF00000
000FF00000
000FF00000
000FF00000
000FF00000
000FF00000
000FF00000
000FF00000
000FF00000
000FF00000
000FF00000
000FF00000
000FF00000
000FF00000
000FF00000
000FF00000
000FF00000
000FF00000
000FF00000
000FF00000
000FF00000
000FF00000
000FF00000
0007F00000
0007F00000
0001800000
ENDCHAR
STARTCHAR 2021
ENCODING 8225
SWIDTH 555 0
DWIDTH 37 0
BBX 33 60 2 -10
BITMAP
0003E00000
0007F00000
000FF00000
000FF80000
000FF80000
000FF80000
000FF80000
000FF80000
000FF80000
0007F80000
0007F80000
0007F00000
3F07F1FC00
7FFFFFFF00
FFFFFFFF00
FFFFFFFF80
FFFFFFFF80
FFFFFFFF80
FFFFFFFF00
7FC7F3FF00
3F07F03C00
0007F00000
0007F00000
0007F00000
0007F00000
0007F00000
0007F00000
0007F00000
0007F00000
0007F00000
0007F00000
0007F00000
0007F00000
0007F00000
0007F00000
0007F00000
0007F00000
0007F00000
0007F00000
0007F00000
3FF7F0FE00
7FFFFFFF00
FFFFFFFF80
FFFFFFFF80
FFFFFFFF80
FFFFFFFF80
7FFFFFFF00
1FE7F07E00
0007F00000
0007F00000
000FF80000
000FF80000
000FF80000
000FF80000
000FF80000
000FF80000
000FF80000
000FF00000
0007F00000
0003E00000
ENDCHAR
STARTCHAR 2022
ENCODING 8226
SWIDTH 660 0
DWIDTH 44 0
BBX 39 40 2 10
BITMAP
0001FF0000
000FFFE000
003FFFF800
00FFFFFE00
01FFFFFF00
03FFFFFF80
07FFFFFFC0
0FFFFFFFE0
0FFFFFFFE0
1FFFFFFFF0
3FFFFFFFF8
3FFFFFFFF8
7FFFFFFFFC
7FFFFFFFFC
7FFFFFFFFC
FFFFFFFFFE
FFFFFFFFFE
FFFFFFFFFE
FFFFFFFFFE
FFFFFFFFFE
FFFFFFFFFE
FFFFFFFFFE
FFFFFFFFFE
FFFFFFFFFE
FFFFFFFFFE
7FFFFFFFFC
7FFFFFFFFC
7FFFFFFFFC
3FFFFFFFF8
3FFFFFFFF8
1FFFFFFFF0
1FFFFFFFE0
0FFFFFFFE0
07FFFFFFC0
03FFFFFF80
01FFFFFF00
00FFFFFE00
003FFFF800
000FFFE000
0001FF0000
ENDCHAR
STARTCHAR 2026
ENCODING 8230
SWIDTH 930 0
DWIDTH 62 0
BBX 52 11 5 12
BITMAP
1E0000F0000780
3F8001FC000FE0
7F8003FC001FE0
FFC007FE003FF0
FFC007FE003FF0
FFC007FE003FF0
FFC007FE003FF0
FFC007FE003FF0
7F8003FC001FE0
7F8003F8000FC0
1E0000F0000780
ENDCHAR
STARTCHAR 2030
ENCODING 8240
SWIDTH 1260 0
DWIDTH 84 0
BBX 80 51 2 -1
BITMAP
01FE0000007000000000
07FF800000F800000000
1FFFE00001FC00000000
3FFFF00003FC00000000
3FFFF80007FC00000000
7FFFF8000FF800000000
7FFFFC001FF800000000
FFC7FC001FF000000000
FF01FC003FE000000000
FF01FE007FC000000000
FE00FE007FC000000000
FE00FE00FF8000000000
FE00FE01FF0000000000
FF01FE03FF0000000000
FF01FE03FE0000000000
7FC7FE07FC0000000000
7FFFFC0FF80000000000
7FFFFC1FF80000000000
3FFFFC1FF00000000000
3FFFF83FE00000000000
1FFFF07FC00000000000
07FFC07FC00000000000
01FF00FF800000000000
000001FF000000000000
000003FE000000000000
000003FE000000000000
000007FC000000000000
00000FF8000000000000
00001FF00FF80001FF00
00001FF03FFF0007FFE0
00003FE0FFFF801FFFF0
00007FC1FFFFC03FFFF8
0000FFC3FFFFE07FFFFC
0000FF83FFFFE07FFFFC
0001FF07FFFFF0FFFFFE
0003FE07FE1FF0FFC3FE
0003FE07F80FF0FF01FE
0007FC07F807F8FF00FF
000FF807F003F8FE007F
001FF007F003F8FE007F
001FF007F003F8FE007F
003FE007F807F8FF00FF
007FC007FC0FF8FF81FF
007F8003FE1FF87FC7FF
00FF8003FFFFF07FFFFE
01FF0003FFFFF07FFFFE
01FE0001FFFFE03FFFFC
03FE0000FFFFE01FFFFC
03FC00007FFF800FFFF8
03F800003FFF0007FFE0
01E0000007F80000FF00
ENDCHAR
STARTCHAR 2039
ENCODING 8249
SWIDTH 405 0
DWIDTH 27 0
BBX 21 34 3 3
BITMAP
0003C0
0007E0
000FE0
001FE0
003FE0
007FC0
00FF80
01FF80
03FF00
07FE00
0FFC00
1FF800
3FF000
7FE000
7FC000
FF8000
FF0000
FF0000
FF8000
FFC000
7FE000
3FF800
1FFC00
0FFE00
07FF00
03FF80
01FFC0
00FFE0
007FF0
003FF0
000FF8
0007F8
0001F8
0000F0
ENDCHAR
STARTCHAR 203A
ENCODING 8250
SWIDTH 405 0
DWIDTH 27 0
BBX 21 34 3 3
BITMAP
1E0000
3F0000
3F8000
3FC000
3FE000
1FF000
0FF800
0FFC00
07FE00
03FF00
01FF80
00FFC0
007FE0
003FF0
001FF0
000FF8
0007F8
0007F8
000FF8
001FF8
007FF0
00FFE0
01FFC0
03FF80
07FF00
0FFE00
1FFC00
3FF800
7FF000
7FE000
FF8000
FF0000
FC0000
780000
ENDCHAR
STARTCHAR 2044
ENCODING 8260
SWIDTH 150 0
DWIDTH 10 0
BBX 20 51 -10 -1
BITMAP
000060
0000F0
0000F0
0001F0
0001F0
0003F0
0003E0
0003E0
0007E0
0007C0
000FC0
000FC0
000F80
001F80
001F80
001F00
003F00
003F00
003E00
007E00
007C00
007C00
00FC00
00F800
01F800
01F800
01F000
03F000
03F000
03E000
07E000
07C000
07C000
0FC000
0F8000
0F8000
1F8000
1F0000
3F0000
3F0000
3E0000
7E0000
7E0000
7C0000
7C0000
FC0000
F80000
F80000
F00000
F00000
600000
ENDCHAR
STARTCHAR 2122
ENCODING 8482
SWIDTH 750 0
DWIDTH 50 0
BBX 47 26 2 23
BITMAP
0000007800F0
7FFFF8FC01F0
FFFFF8FE03F0
FFFFF8FE03F0
FFFFF8FE03F8
7FFFC0FF07F8
007E00FF07F8
007E00FF87F8
007E00FF8FF8
007E00FF8FF8
007E00FBDEF8
007E00FBDEFC
007E00FBFCFC
007F00F9FCFC
007F00F9FCFC
007F00F9F8FC
007F00F8F87C
007F00F8F07C
007F00F8607C
007F00F8007E
007F00F8007E
007F00F8007E
007F00F8007E
007F00F8007E
003E00F0007E
00080070003C
ENDCHAR
STARTCHAR 2212
ENCODING 8722
SWIDTH 585 0
DWIDTH 39 0
BBX 37 8 1 20
BITMAP
1FFFFFFFE0
7FFFFFFFF8
FFFFFFFFF8
FFFFFFFFF8
FFFFFFFFF8
FFFFFFFFF0
7FFFFFFFF0
1FFFFFFF80
ENDCHAR
STARTCHAR 2219
ENCODING 8729
SWIDTH 300 0
DWIDTH 20 0
BBX 11 11 5 20
BITMAP
1E00
3F80
7FC0
7FE0
FFE0
FFE0
FFE0
FFE0
7FC0
3F80
1F00
ENDCHAR
STARTCHAR F001
ENCODING 61441
SWIDTH 615 0
DWIDTH 41 0
BBX 37 54 -1 -1
BITMAP
0000FF83C0
0007FFC7F0
000FFFE7F8
001FFFE7F8
003FFFE7F8
003FFFC7F8
007FF803F8
007FC001F0
007F800000
00FF800000
00FF000000
00FF000000
00FF0001E0
00FF0003F0
00FFFF83F0
3FFFFFC7F8
FFFFFFC7F8
FFFFFFC7F8
FFFFFFC7F8
7FFFFF87F8
1FFFFE07F8
00FF0007F8
00FF0007F8
00FF0007F8
00FF0007F8
00FF0007F8
00FF0007F8
00FF0007F8
00FF0007F8
00FF0007F8
00FF0007F8
00FF0007F8
00FF0007F8
00FF0007F8
00FF0007F8
00FF0007F8
00FF0007F8
00FF0007F8
00FF0007F8
00FF0007F8
00FF0007F8
00FF0007F8
00FF0007F8
00FF0007F8
00FF0007F8
00FF0007F8
00FF0007F8
00FF0007F8
00FF0007F8
00FF0007F8
00FF0007F8
007F0003F8
007E0003F0
003E0001E0
ENDCHAR
STARTCHAR F002
ENCODING 61442
SWIDTH 615 0
DWIDTH 41 0
BBX 38 55 -1 -1
BITMAP
00000E0000
0001FFC000
0007FFC000
000FFFE000
001FFFE0F8
003FFFE1FC
003FFFE3FC
007FFF83FC
007FF003FC
007FC003FC
00FF8003FC
00FF8003FC
00FF0003FC
00FF0003FC
00FF0003FC
00FFFF83FC
3FFFFFC3FC
FFFFFFC3FC
FFFFFFC3FC
FFFFFFC3FC
7FFFFF83FC
1FFFFE03FC
00FF0003FC
00FF0003FC
00FF0003FC
00FF0003FC
00FF0003FC
00FF0003FC
00FF0003FC
00FF0003FC
00FF0003FC
00FF0003FC
00FF0003FC
00FF0003FC
00FF0003FC
00FF0003FC
00FF0003FC
00FF0003FC
00FF0003FC
00FF0003FC
00FF0003FC
00FF0003FC
00FF0003FC
00FF0003FC
00FF0003FC
00FF0003FC
00FF0003FC
00FF0003FC
00FF0003FC
00FF0003FC
00FF0003FC
007F0003FC
007F0003F8
007E0001F8
001C0000F0
ENDCHAR
ENDFONT
